<?xml version="1.0" encoding="UTF-8" standalone="no"?>
<!DOCTYPE svg PUBLIC "-//W3C//DTD SVG 1.1//EN"
 "http://www.w3.org/Graphics/SVG/1.1/DTD/svg11.dtd">
<!-- Generated by graphviz version 2.40.1 (20161225.0304)
 -->
<!-- Title: Call graph Pages: 1 -->
<svg width="949pt" height="282pt"
 viewBox="0.00 0.00 949.32 282.00" xmlns="http://www.w3.org/2000/svg" xmlns:xlink="http://www.w3.org/1999/xlink">
<g id="graph0" class="graph" transform="scale(1 1) rotate(0) translate(4 278)">
<title>Call graph</title>
<polygon fill="#ffffff" stroke="transparent" points="-4,4 -4,-278 945.3234,-278 945.3234,4 -4,4"/>
<text text-anchor="middle" x="470.6617" y="-6.8" font-family="Times,serif" font-size="14.00" fill="#000000">Call graph</text>
<!-- Node0x80563d900 -->
<g id="node1" class="node">
<title>Node0x80563d900</title>
<ellipse fill="none" stroke="#000000" cx="71.644" cy="-112" rx="71.7884" ry="18"/>
<text text-anchor="middle" x="71.644" y="-107.8" font-family="Times,serif" font-size="14.00" fill="#000000">{sctp_getpaddrs}</text>
</g>
<!-- Node0x80563d660 -->
<g id="node2" class="node">
<title>Node0x80563d660</title>
<ellipse fill="none" stroke="#000000" cx="482.644" cy="-40" rx="56.8215" ry="18"/>
<text text-anchor="middle" x="482.644" y="-35.8" font-family="Times,serif" font-size="14.00" fill="#000000">{getsockopt}</text>
</g>
<!-- Node0x80563d900&#45;&gt;Node0x80563d660 -->
<g id="edge1" class="edge">
<title>Node0x80563d900&#45;&gt;Node0x80563d660</title>
<path fill="none" stroke="#000000" stroke-opacity="0.200000" d="M124.7111,-99.7574C134.0022,-97.7427 143.5912,-95.7451 152.644,-94 245.7682,-76.0485 354.4233,-59.0181 420.8652,-49.0435"/>
<polygon fill="#000000" fill-opacity="0.200000" stroke="#000000" stroke-opacity="0.200000" points="421.3839,-52.505 430.756,-47.564 420.3482,-45.582 421.3839,-52.505"/>
</g>
<!-- Node0x80563dc00 -->
<g id="node3" class="node">
<title>Node0x80563dc00</title>
<ellipse fill="none" stroke="#000000" cx="168.644" cy="-184" rx="57.7906" ry="18"/>
<text text-anchor="middle" x="168.644" y="-179.8" font-family="Times,serif" font-size="14.00" fill="#000000">{sctp_sendx}</text>
</g>
<!-- Node0x80563db40 -->
<g id="node4" class="node">
<title>Node0x80563db40</title>
<ellipse fill="none" stroke="#000000" cx="235.644" cy="-112" rx="74.2022" ry="18"/>
<text text-anchor="middle" x="235.644" y="-107.8" font-family="Times,serif" font-size="14.00" fill="#000000">{sctp_getassocid}</text>
</g>
<!-- Node0x80563dc00&#45;&gt;Node0x80563db40 -->
<g id="edge2" class="edge">
<title>Node0x80563dc00&#45;&gt;Node0x80563db40</title>
<path fill="none" stroke="#000000" stroke-opacity="0.200000" d="M184.8629,-166.5708C193.0527,-157.7698 203.14,-146.9297 212.1604,-137.2362"/>
<polygon fill="#000000" fill-opacity="0.200000" stroke="#000000" stroke-opacity="0.200000" points="214.859,-139.4739 219.1091,-129.7689 209.7345,-134.7053 214.859,-139.4739"/>
</g>
<!-- Node0x80563db40&#45;&gt;Node0x80563d660 -->
<g id="edge6" class="edge">
<title>Node0x80563db40&#45;&gt;Node0x80563d660</title>
<path fill="none" stroke="#000000" stroke-opacity="0.200000" d="M283.2681,-98.1177C325.5362,-85.7966 387.1642,-67.8322 430.6919,-55.144"/>
<polygon fill="#000000" fill-opacity="0.200000" stroke="#000000" stroke-opacity="0.200000" points="431.8955,-58.4388 440.5164,-52.2801 429.9365,-51.7185 431.8955,-58.4388"/>
</g>
<!-- Node0x80563dc60 -->
<g id="node5" class="node">
<title>Node0x80563dc60</title>
<ellipse fill="none" stroke="#000000" cx="168.644" cy="-256" rx="72.7747" ry="18"/>
<text text-anchor="middle" x="168.644" y="-251.8" font-family="Times,serif" font-size="14.00" fill="#000000">{sctp_sendmsgx}</text>
</g>
<!-- Node0x80563dc60&#45;&gt;Node0x80563dc00 -->
<g id="edge3" class="edge">
<title>Node0x80563dc60&#45;&gt;Node0x80563dc00</title>
<path fill="none" stroke="#000000" stroke-opacity="0.200000" d="M168.644,-237.8314C168.644,-230.131 168.644,-220.9743 168.644,-212.4166"/>
<polygon fill="#000000" fill-opacity="0.200000" stroke="#000000" stroke-opacity="0.200000" points="172.1441,-212.4132 168.644,-202.4133 165.1441,-212.4133 172.1441,-212.4132"/>
</g>
<!-- Node0x80563dde0 -->
<g id="node6" class="node">
<title>Node0x80563dde0</title>
<ellipse fill="none" stroke="#000000" cx="302.644" cy="-184" rx="57.7906" ry="18"/>
<text text-anchor="middle" x="302.644" y="-179.8" font-family="Times,serif" font-size="14.00" fill="#000000">{sctp_sendv}</text>
</g>
<!-- Node0x80563dde0&#45;&gt;Node0x80563db40 -->
<g id="edge4" class="edge">
<title>Node0x80563dde0&#45;&gt;Node0x80563db40</title>
<path fill="none" stroke="#000000" stroke-opacity="0.200000" d="M286.4252,-166.5708C278.2354,-157.7698 268.1481,-146.9297 259.1277,-137.2362"/>
<polygon fill="#000000" fill-opacity="0.200000" stroke="#000000" stroke-opacity="0.200000" points="261.5536,-134.7053 252.179,-129.7689 256.4291,-139.4739 261.5536,-134.7053"/>
</g>
<!-- Node0x80563d5a0 -->
<g id="node7" class="node">
<title>Node0x80563d5a0</title>
<ellipse fill="none" stroke="#000000" cx="402.644" cy="-112" rx="74.6694" ry="18"/>
<text text-anchor="middle" x="402.644" y="-107.8" font-family="Times,serif" font-size="14.00" fill="#000000">{sctp_getaddrlen}</text>
</g>
<!-- Node0x80563d5a0&#45;&gt;Node0x80563d660 -->
<g id="edge5" class="edge">
<title>Node0x80563d5a0&#45;&gt;Node0x80563d660</title>
<path fill="none" stroke="#000000" stroke-opacity="0.200000" d="M422.0098,-94.5708C432.3046,-85.3055 445.1104,-73.7802 456.2973,-63.7121"/>
<polygon fill="#000000" fill-opacity="0.200000" stroke="#000000" stroke-opacity="0.200000" points="458.6411,-66.3115 463.7327,-57.0202 453.9583,-61.1084 458.6411,-66.3115"/>
</g>
<!-- Node0x80564a220 -->
<g id="node8" class="node">
<title>Node0x80564a220</title>
<ellipse fill="none" stroke="#000000" cx="563.644" cy="-112" rx="68.3797" ry="18"/>
<text text-anchor="middle" x="563.644" y="-107.8" font-family="Times,serif" font-size="14.00" fill="#000000">{mac_get_peer}</text>
</g>
<!-- Node0x80564a220&#45;&gt;Node0x80563d660 -->
<g id="edge7" class="edge">
<title>Node0x80564a220&#45;&gt;Node0x80563d660</title>
<path fill="none" stroke="#000000" stroke-opacity="0.200000" d="M544.0362,-94.5708C533.6128,-85.3055 520.6468,-73.7802 509.3201,-63.7121"/>
<polygon fill="#000000" fill-opacity="0.200000" stroke="#000000" stroke-opacity="0.200000" points="511.5912,-61.048 501.7918,-57.0202 506.9406,-66.2799 511.5912,-61.048"/>
</g>
<!-- Node0x80563d8a0 -->
<g id="node9" class="node">
<title>Node0x80563d8a0</title>
<ellipse fill="none" stroke="#000000" cx="716.644" cy="-112" rx="67.4627" ry="18"/>
<text text-anchor="middle" x="716.644" y="-107.8" font-family="Times,serif" font-size="14.00" fill="#000000">{sctp_opt_info}</text>
</g>
<!-- Node0x80563d8a0&#45;&gt;Node0x80563d660 -->
<g id="edge8" class="edge">
<title>Node0x80563d8a0&#45;&gt;Node0x80563d660</title>
<path fill="none" stroke="#000000" stroke-opacity="0.200000" d="M672.3553,-98.3727C632.7348,-86.1818 574.6835,-68.3198 533.2445,-55.5694"/>
<polygon fill="#000000" fill-opacity="0.200000" stroke="#000000" stroke-opacity="0.200000" points="534.2037,-52.2026 523.6165,-52.6069 532.145,-58.8931 534.2037,-52.2026"/>
</g>
<!-- Node0x80563d9c0 -->
<g id="node10" class="node">
<title>Node0x80563d9c0</title>
<ellipse fill="none" stroke="#000000" cx="871.644" cy="-112" rx="69.8591" ry="18"/>
<text text-anchor="middle" x="871.644" y="-107.8" font-family="Times,serif" font-size="14.00" fill="#000000">{sctp_getladdrs}</text>
</g>
<!-- Node0x80563d9c0&#45;&gt;Node0x80563d660 -->
<g id="edge9" class="edge">
<title>Node0x80563d9c0&#45;&gt;Node0x80563d660</title>
<path fill="none" stroke="#000000" stroke-opacity="0.200000" d="M819.8824,-99.8046C810.8212,-97.7846 801.4705,-95.7731 792.644,-94 706.6475,-76.7248 606.5787,-59.8774 543.9183,-49.7166"/>
<polygon fill="#000000" fill-opacity="0.200000" stroke="#000000" stroke-opacity="0.200000" points="544.2404,-46.2233 533.81,-48.0829 543.1235,-53.1337 544.2404,-46.2233"/>
</g>
</g>
</svg>
