<?xml version="1.0" encoding="UTF-8" standalone="no"?>
<!DOCTYPE svg PUBLIC "-//W3C//DTD SVG 1.1//EN"
 "http://www.w3.org/Graphics/SVG/1.1/DTD/svg11.dtd">
<!-- Generated by graphviz version 2.40.1 (20161225.0304)
 -->
<!-- Title: Call graph Pages: 1 -->
<svg width="294pt" height="282pt"
 viewBox="0.00 0.00 293.98 282.00" xmlns="http://www.w3.org/2000/svg" xmlns:xlink="http://www.w3.org/1999/xlink">
<g id="graph0" class="graph" transform="scale(1 1) rotate(0) translate(4 278)">
<title>Call graph</title>
<polygon fill="#ffffff" stroke="transparent" points="-4,4 -4,-278 289.9783,-278 289.9783,4 -4,4"/>
<text text-anchor="middle" x="142.9891" y="-6.8" font-family="Times,serif" font-size="14.00" fill="#000000">Call graph</text>
<!-- Node0x80813e7a0 -->
<g id="node1" class="node">
<title>Node0x80813e7a0</title>
<ellipse fill="none" stroke="#000000" cx="145.2" cy="-184" rx="78.087" ry="18"/>
<text text-anchor="middle" x="145.2" y="-179.8" font-family="Times,serif" font-size="14.00" fill="#000000">{do_posix_spawn}</text>
</g>
<!-- Node0x80813e800 -->
<g id="node2" class="node">
<title>Node0x80813e800</title>
<ellipse fill="none" stroke="#000000" cx="145.2" cy="-112" rx="83.8409" ry="18"/>
<text text-anchor="middle" x="145.2" y="-107.8" font-family="Times,serif" font-size="14.00" fill="#000000">{process_spawnattr}</text>
</g>
<!-- Node0x80813e7a0&#45;&gt;Node0x80813e800 -->
<g id="edge1" class="edge">
<title>Node0x80813e7a0&#45;&gt;Node0x80813e800</title>
<path fill="none" stroke="#000000" stroke-opacity="0.200000" d="M145.2,-165.8314C145.2,-158.131 145.2,-148.9743 145.2,-140.4166"/>
<polygon fill="#000000" fill-opacity="0.200000" stroke="#000000" stroke-opacity="0.200000" points="148.7001,-140.4132 145.2,-130.4133 141.7001,-140.4133 148.7001,-140.4132"/>
</g>
<!-- Node0x80813e980 -->
<g id="node4" class="node">
<title>Node0x80813e980</title>
<ellipse fill="none" stroke="#000000" cx="145.2" cy="-40" rx="75.1453" ry="18"/>
<text text-anchor="middle" x="145.2" y="-35.8" font-family="Times,serif" font-size="14.00" fill="#000000">{sched_setparam}</text>
</g>
<!-- Node0x80813e800&#45;&gt;Node0x80813e980 -->
<g id="edge3" class="edge">
<title>Node0x80813e800&#45;&gt;Node0x80813e980</title>
<path fill="none" stroke="#000000" stroke-opacity="0.200000" d="M145.2,-93.8314C145.2,-86.131 145.2,-76.9743 145.2,-68.4166"/>
<polygon fill="#000000" fill-opacity="0.200000" stroke="#000000" stroke-opacity="0.200000" points="148.7001,-68.4132 145.2,-58.4133 141.7001,-68.4133 148.7001,-68.4132"/>
</g>
<!-- Node0x80813ec20 -->
<g id="node3" class="node">
<title>Node0x80813ec20</title>
<ellipse fill="none" stroke="#000000" cx="69.2" cy="-256" rx="69.4006" ry="18"/>
<text text-anchor="middle" x="69.2" y="-251.8" font-family="Times,serif" font-size="14.00" fill="#000000">{posix_spawnp}</text>
</g>
<!-- Node0x80813ec20&#45;&gt;Node0x80813e7a0 -->
<g id="edge2" class="edge">
<title>Node0x80813ec20&#45;&gt;Node0x80813e7a0</title>
<path fill="none" stroke="#000000" stroke-opacity="0.200000" d="M87.5975,-238.5708C97.1421,-229.5286 108.9587,-218.3338 119.4005,-208.4417"/>
<polygon fill="#000000" fill-opacity="0.200000" stroke="#000000" stroke-opacity="0.200000" points="121.8561,-210.9366 126.7085,-201.5182 117.0419,-205.8549 121.8561,-210.9366"/>
</g>
<!-- Node0x80813e740 -->
<g id="node5" class="node">
<title>Node0x80813e740</title>
<ellipse fill="none" stroke="#000000" cx="221.2" cy="-256" rx="64.5573" ry="18"/>
<text text-anchor="middle" x="221.2" y="-251.8" font-family="Times,serif" font-size="14.00" fill="#000000">{posix_spawn}</text>
</g>
<!-- Node0x80813e740&#45;&gt;Node0x80813e7a0 -->
<g id="edge4" class="edge">
<title>Node0x80813e740&#45;&gt;Node0x80813e7a0</title>
<path fill="none" stroke="#000000" stroke-opacity="0.200000" d="M202.8025,-238.5708C193.2579,-229.5286 181.4413,-218.3338 170.9995,-208.4417"/>
<polygon fill="#000000" fill-opacity="0.200000" stroke="#000000" stroke-opacity="0.200000" points="173.3581,-205.8549 163.6915,-201.5182 168.5439,-210.9366 173.3581,-205.8549"/>
</g>
</g>
</svg>
