<?xml version="1.0" encoding="UTF-8" standalone="no"?>
<!DOCTYPE svg PUBLIC "-//W3C//DTD SVG 1.1//EN"
 "http://www.w3.org/Graphics/SVG/1.1/DTD/svg11.dtd">
<!-- Generated by graphviz version 2.40.1 (20161225.0304)
 -->
<!-- Title: Call graph Pages: 1 -->
<svg width="988pt" height="282pt"
 viewBox="0.00 0.00 987.61 282.00" xmlns="http://www.w3.org/2000/svg" xmlns:xlink="http://www.w3.org/1999/xlink">
<g id="graph0" class="graph" transform="scale(1 1) rotate(0) translate(4 278)">
<title>Call graph</title>
<polygon fill="#ffffff" stroke="transparent" points="-4,4 -4,-278 983.6112,-278 983.6112,4 -4,4"/>
<text text-anchor="middle" x="489.8056" y="-6.8" font-family="Times,serif" font-size="14.00" fill="#000000">Call graph</text>
<!-- Node0x80814e100 -->
<g id="node1" class="node">
<title>Node0x80814e100</title>
<ellipse fill="none" stroke="#000000" cx="662.0503" cy="-112" rx="64.0555" ry="18"/>
<text text-anchor="middle" x="662.0503" y="-107.8" font-family="Times,serif" font-size="14.00" fill="#000000">{_umtx_wake}</text>
</g>
<!-- Node0x80814e160 -->
<g id="node2" class="node">
<title>Node0x80814e160</title>
<ellipse fill="none" stroke="#000000" cx="328.0503" cy="-40" rx="54.4247" ry="18"/>
<text text-anchor="middle" x="328.0503" y="-35.8" font-family="Times,serif" font-size="14.00" fill="#000000">{_umtx_op}</text>
</g>
<!-- Node0x80814e100&#45;&gt;Node0x80814e160 -->
<g id="edge1" class="edge">
<title>Node0x80814e100&#45;&gt;Node0x80814e160</title>
<path fill="none" stroke="#000000" stroke-opacity="0.200000" d="M610.9593,-100.9864C549.5541,-87.7493 446.8931,-65.6188 383.577,-51.9698"/>
<polygon fill="#000000" fill-opacity="0.200000" stroke="#000000" stroke-opacity="0.200000" points="384.2784,-48.5407 373.7653,-49.8547 382.8032,-55.3835 384.2784,-48.5407"/>
</g>
<!-- Node0x80814ebe0 -->
<g id="node3" class="node">
<title>Node0x80814ebe0</title>
<ellipse fill="none" stroke="#000000" cx="77.0503" cy="-184" rx="77.1006" ry="18"/>
<text text-anchor="middle" x="77.0503" y="-179.8" font-family="Times,serif" font-size="14.00" fill="#000000">{_sem_timedwait}</text>
</g>
<!-- Node0x80814ec40 -->
<g id="node4" class="node">
<title>Node0x80814ec40</title>
<ellipse fill="none" stroke="#000000" cx="96.0503" cy="-112" rx="56.8215" ry="18"/>
<text text-anchor="middle" x="96.0503" y="-107.8" font-family="Times,serif" font-size="14.00" fill="#000000">{usem_wait}</text>
</g>
<!-- Node0x80814ebe0&#45;&gt;Node0x80814ec40 -->
<g id="edge2" class="edge">
<title>Node0x80814ebe0&#45;&gt;Node0x80814ec40</title>
<path fill="none" stroke="#000000" stroke-opacity="0.200000" d="M81.8448,-165.8314C83.8992,-158.0463 86.3463,-148.7729 88.6259,-140.1347"/>
<polygon fill="#000000" fill-opacity="0.200000" stroke="#000000" stroke-opacity="0.200000" points="92.0238,-140.9753 91.1912,-130.4133 85.2555,-139.1892 92.0238,-140.9753"/>
</g>
<!-- Node0x80814ec40&#45;&gt;Node0x80814e160 -->
<g id="edge3" class="edge">
<title>Node0x80814ec40&#45;&gt;Node0x80814e160</title>
<path fill="none" stroke="#000000" stroke-opacity="0.200000" d="M136.7271,-99.3762C176.1885,-87.1295 236.139,-68.5242 278.395,-55.4103"/>
<polygon fill="#000000" fill-opacity="0.200000" stroke="#000000" stroke-opacity="0.200000" points="279.6837,-58.6751 288.1969,-52.3683 277.6089,-51.9896 279.6837,-58.6751"/>
</g>
<!-- Node0x80814ed60 -->
<g id="node5" class="node">
<title>Node0x80814ed60</title>
<ellipse fill="none" stroke="#000000" cx="239.0503" cy="-112" rx="60.1876" ry="18"/>
<text text-anchor="middle" x="239.0503" y="-107.8" font-family="Times,serif" font-size="14.00" fill="#000000">{usem_wake}</text>
</g>
<!-- Node0x80814ed60&#45;&gt;Node0x80814e160 -->
<g id="edge4" class="edge">
<title>Node0x80814ed60&#45;&gt;Node0x80814e160</title>
<path fill="none" stroke="#000000" stroke-opacity="0.200000" d="M260.1421,-94.937C271.8644,-85.4537 286.6164,-73.5196 299.3736,-63.1991"/>
<polygon fill="#000000" fill-opacity="0.200000" stroke="#000000" stroke-opacity="0.200000" points="301.8438,-65.7027 307.417,-56.6921 297.4411,-60.2606 301.8438,-65.7027"/>
</g>
<!-- Node0x80814eca0 -->
<g id="node6" class="node">
<title>Node0x80814eca0</title>
<ellipse fill="none" stroke="#000000" cx="77.0503" cy="-256" rx="56.8215" ry="18"/>
<text text-anchor="middle" x="77.0503" y="-251.8" font-family="Times,serif" font-size="14.00" fill="#000000">{_sem_wait}</text>
</g>
<!-- Node0x80814eca0&#45;&gt;Node0x80814ebe0 -->
<g id="edge5" class="edge">
<title>Node0x80814eca0&#45;&gt;Node0x80814ebe0</title>
<path fill="none" stroke="#000000" stroke-opacity="0.200000" d="M77.0503,-237.8314C77.0503,-230.131 77.0503,-220.9743 77.0503,-212.4166"/>
<polygon fill="#000000" fill-opacity="0.200000" stroke="#000000" stroke-opacity="0.200000" points="80.5504,-212.4132 77.0503,-202.4133 73.5504,-212.4133 80.5504,-212.4132"/>
</g>
<!-- Node0x80814e0a0 -->
<g id="node7" class="node">
<title>Node0x80814e0a0</title>
<ellipse fill="none" stroke="#000000" cx="662.0503" cy="-184" rx="90.5642" ry="18"/>
<text text-anchor="middle" x="662.0503" y="-179.8" font-family="Times,serif" font-size="14.00" fill="#000000">{sem_cancel_handler}</text>
</g>
<!-- Node0x80814e0a0&#45;&gt;Node0x80814e100 -->
<g id="edge6" class="edge">
<title>Node0x80814e0a0&#45;&gt;Node0x80814e100</title>
<path fill="none" stroke="#000000" stroke-opacity="0.200000" d="M662.0503,-165.8314C662.0503,-158.131 662.0503,-148.9743 662.0503,-140.4166"/>
<polygon fill="#000000" fill-opacity="0.200000" stroke="#000000" stroke-opacity="0.200000" points="665.5504,-140.4132 662.0503,-130.4133 658.5504,-140.4133 665.5504,-140.4132"/>
</g>
<!-- Node0x80814dce0 -->
<g id="node8" class="node">
<title>Node0x80814dce0</title>
<ellipse fill="none" stroke="#000000" cx="428.0503" cy="-184" rx="125.3686" ry="18"/>
<text text-anchor="middle" x="428.0503" y="-179.8" font-family="Times,serif" font-size="14.00" fill="#000000">{_libc_sem_timedwait_compat}</text>
</g>
<!-- Node0x80814dfe0 -->
<g id="node9" class="node">
<title>Node0x80814dfe0</title>
<ellipse fill="none" stroke="#000000" cx="407.0503" cy="-112" rx="79.0474" ry="18"/>
<text text-anchor="middle" x="407.0503" y="-107.8" font-family="Times,serif" font-size="14.00" fill="#000000">{_umtx_wait_uint}</text>
</g>
<!-- Node0x80814dce0&#45;&gt;Node0x80814dfe0 -->
<g id="edge7" class="edge">
<title>Node0x80814dce0&#45;&gt;Node0x80814dfe0</title>
<path fill="none" stroke="#000000" stroke-opacity="0.200000" d="M422.7511,-165.8314C420.4805,-158.0463 417.7757,-148.7729 415.2563,-140.1347"/>
<polygon fill="#000000" fill-opacity="0.200000" stroke="#000000" stroke-opacity="0.200000" points="418.5809,-139.0332 412.4208,-130.4133 411.8609,-140.9933 418.5809,-139.0332"/>
</g>
<!-- Node0x80814dfe0&#45;&gt;Node0x80814e160 -->
<g id="edge10" class="edge">
<title>Node0x80814dfe0&#45;&gt;Node0x80814e160</title>
<path fill="none" stroke="#000000" stroke-opacity="0.200000" d="M387.5222,-94.2022C377.5214,-85.0876 365.2028,-73.8605 354.3756,-63.9926"/>
<polygon fill="#000000" fill-opacity="0.200000" stroke="#000000" stroke-opacity="0.200000" points="356.5583,-61.2465 346.8098,-57.0972 351.8431,-66.4201 356.5583,-61.2465"/>
</g>
<!-- Node0x80814e2e0 -->
<g id="node10" class="node">
<title>Node0x80814e2e0</title>
<ellipse fill="none" stroke="#000000" cx="875.0503" cy="-184" rx="104.6219" ry="18"/>
<text text-anchor="middle" x="875.0503" y="-179.8" font-family="Times,serif" font-size="14.00" fill="#000000">{_libc_sem_post_compat}</text>
</g>
<!-- Node0x80814e2e0&#45;&gt;Node0x80814e100 -->
<g id="edge8" class="edge">
<title>Node0x80814e2e0&#45;&gt;Node0x80814e100</title>
<path fill="none" stroke="#000000" stroke-opacity="0.200000" d="M827.5141,-167.9314C793.444,-156.4148 747.6179,-140.9243 712.8317,-129.1655"/>
<polygon fill="#000000" fill-opacity="0.200000" stroke="#000000" stroke-opacity="0.200000" points="713.9261,-125.841 703.3319,-125.9543 711.6845,-132.4724 713.9261,-125.841"/>
</g>
<!-- Node0x80814e1c0 -->
<g id="node11" class="node">
<title>Node0x80814e1c0</title>
<ellipse fill="none" stroke="#000000" cx="428.0503" cy="-256" rx="105.0891" ry="18"/>
<text text-anchor="middle" x="428.0503" y="-251.8" font-family="Times,serif" font-size="14.00" fill="#000000">{_libc_sem_wait_compat}</text>
</g>
<!-- Node0x80814e1c0&#45;&gt;Node0x80814dce0 -->
<g id="edge9" class="edge">
<title>Node0x80814e1c0&#45;&gt;Node0x80814dce0</title>
<path fill="none" stroke="#000000" stroke-opacity="0.200000" d="M428.0503,-237.8314C428.0503,-230.131 428.0503,-220.9743 428.0503,-212.4166"/>
<polygon fill="#000000" fill-opacity="0.200000" stroke="#000000" stroke-opacity="0.200000" points="431.5504,-212.4132 428.0503,-202.4133 424.5504,-212.4133 431.5504,-212.4132"/>
</g>
<!-- Node0x80814ed00 -->
<g id="node12" class="node">
<title>Node0x80814ed00</title>
<ellipse fill="none" stroke="#000000" cx="228.0503" cy="-184" rx="56.3542" ry="18"/>
<text text-anchor="middle" x="228.0503" y="-179.8" font-family="Times,serif" font-size="14.00" fill="#000000">{_sem_post}</text>
</g>
<!-- Node0x80814ed00&#45;&gt;Node0x80814ed60 -->
<g id="edge11" class="edge">
<title>Node0x80814ed00&#45;&gt;Node0x80814ed60</title>
<path fill="none" stroke="#000000" stroke-opacity="0.200000" d="M230.8261,-165.8314C232.0025,-158.131 233.4014,-148.9743 234.7089,-140.4166"/>
<polygon fill="#000000" fill-opacity="0.200000" stroke="#000000" stroke-opacity="0.200000" points="238.1867,-140.8272 236.2372,-130.4133 231.267,-139.7699 238.1867,-140.8272"/>
</g>
</g>
</svg>
