<?xml version="1.0" encoding="UTF-8" standalone="no"?>
<!DOCTYPE svg PUBLIC "-//W3C//DTD SVG 1.1//EN"
 "http://www.w3.org/Graphics/SVG/1.1/DTD/svg11.dtd">
<!-- Generated by graphviz version 2.40.1 (20161225.0304)
 -->
<!-- Title: Call graph Pages: 1 -->
<svg width="428pt" height="210pt"
 viewBox="0.00 0.00 427.82 210.00" xmlns="http://www.w3.org/2000/svg" xmlns:xlink="http://www.w3.org/1999/xlink">
<g id="graph0" class="graph" transform="scale(1 1) rotate(0) translate(4 206)">
<title>Call graph</title>
<polygon fill="#ffffff" stroke="transparent" points="-4,4 -4,-206 423.8199,-206 423.8199,4 -4,4"/>
<text text-anchor="middle" x="209.91" y="-6.8" font-family="Times,serif" font-size="14.00" fill="#000000">Call graph</text>
<!-- Node0x80563d720 -->
<g id="node1" class="node">
<title>Node0x80563d720</title>
<ellipse fill="none" stroke="#000000" cx="69.1827" cy="-112" rx="69.3659" ry="18"/>
<text text-anchor="middle" x="69.1827" y="-107.8" font-family="Times,serif" font-size="14.00" fill="#000000">{sctp_connectx}</text>
</g>
<!-- Node0x80563d7e0 -->
<g id="node2" class="node">
<title>Node0x80563d7e0</title>
<ellipse fill="none" stroke="#000000" cx="214.1827" cy="-40" rx="55.8611" ry="18"/>
<text text-anchor="middle" x="214.1827" y="-35.8" font-family="Times,serif" font-size="14.00" fill="#000000">{setsockopt}</text>
</g>
<!-- Node0x80563d720&#45;&gt;Node0x80563d7e0 -->
<g id="edge1" class="edge">
<title>Node0x80563d720&#45;&gt;Node0x80563d7e0</title>
<path fill="none" stroke="#000000" stroke-opacity="0.200000" d="M101.3629,-96.0209C122.9221,-85.3156 151.4561,-71.147 174.4334,-59.7376"/>
<polygon fill="#000000" fill-opacity="0.200000" stroke="#000000" stroke-opacity="0.200000" points="176.1815,-62.7774 183.5815,-55.1951 173.0683,-56.5078 176.1815,-62.7774"/>
</g>
<!-- Node0x80563d840 -->
<g id="node3" class="node">
<title>Node0x80563d840</title>
<ellipse fill="none" stroke="#000000" cx="214.1827" cy="-112" rx="57.3147" ry="18"/>
<text text-anchor="middle" x="214.1827" y="-107.8" font-family="Times,serif" font-size="14.00" fill="#000000">{sctp_bindx}</text>
</g>
<!-- Node0x80563d840&#45;&gt;Node0x80563d7e0 -->
<g id="edge2" class="edge">
<title>Node0x80563d840&#45;&gt;Node0x80563d7e0</title>
<path fill="none" stroke="#000000" stroke-opacity="0.200000" d="M214.1827,-93.8314C214.1827,-86.131 214.1827,-76.9743 214.1827,-68.4166"/>
<polygon fill="#000000" fill-opacity="0.200000" stroke="#000000" stroke-opacity="0.200000" points="217.6828,-68.4132 214.1827,-58.4133 210.6828,-68.4133 217.6828,-68.4132"/>
</g>
<!-- Node0x80563dc00 -->
<g id="node4" class="node">
<title>Node0x80563dc00</title>
<ellipse fill="none" stroke="#000000" cx="347.1827" cy="-112" rx="57.7906" ry="18"/>
<text text-anchor="middle" x="347.1827" y="-107.8" font-family="Times,serif" font-size="14.00" fill="#000000">{sctp_sendx}</text>
</g>
<!-- Node0x80563dc00&#45;&gt;Node0x80563d7e0 -->
<g id="edge3" class="edge">
<title>Node0x80563dc00&#45;&gt;Node0x80563d7e0</title>
<path fill="none" stroke="#000000" stroke-opacity="0.200000" d="M318.3237,-96.3771C298.8909,-85.857 273.0637,-71.8754 251.9917,-60.468"/>
<polygon fill="#000000" fill-opacity="0.200000" stroke="#000000" stroke-opacity="0.200000" points="253.4458,-57.2753 242.9854,-55.5924 250.1132,-63.4311 253.4458,-57.2753"/>
</g>
<!-- Node0x80563dc60 -->
<g id="node5" class="node">
<title>Node0x80563dc60</title>
<ellipse fill="none" stroke="#000000" cx="347.1827" cy="-184" rx="72.7747" ry="18"/>
<text text-anchor="middle" x="347.1827" y="-179.8" font-family="Times,serif" font-size="14.00" fill="#000000">{sctp_sendmsgx}</text>
</g>
<!-- Node0x80563dc60&#45;&gt;Node0x80563dc00 -->
<g id="edge4" class="edge">
<title>Node0x80563dc60&#45;&gt;Node0x80563dc00</title>
<path fill="none" stroke="#000000" stroke-opacity="0.200000" d="M347.1827,-165.8314C347.1827,-158.131 347.1827,-148.9743 347.1827,-140.4166"/>
<polygon fill="#000000" fill-opacity="0.200000" stroke="#000000" stroke-opacity="0.200000" points="350.6828,-140.4132 347.1827,-130.4133 343.6828,-140.4133 350.6828,-140.4132"/>
</g>
</g>
</svg>
