<?xml version="1.0" encoding="UTF-8" standalone="no"?>
<!DOCTYPE svg PUBLIC "-//W3C//DTD SVG 1.1//EN"
 "http://www.w3.org/Graphics/SVG/1.1/DTD/svg11.dtd">
<!-- Generated by graphviz version 2.40.1 (20161225.0304)
 -->
<!-- Title: Call graph Pages: 1 -->
<svg width="364pt" height="138pt"
 viewBox="0.00 0.00 364.30 138.00" xmlns="http://www.w3.org/2000/svg" xmlns:xlink="http://www.w3.org/1999/xlink">
<g id="graph0" class="graph" transform="scale(1 1) rotate(0) translate(4 134)">
<title>Call graph</title>
<polygon fill="#ffffff" stroke="transparent" points="-4,4 -4,-134 360.296,-134 360.296,4 -4,4"/>
<text text-anchor="middle" x="178.148" y="-6.8" font-family="Times,serif" font-size="14.00" fill="#000000">Call graph</text>
<!-- Node0x80563f040 -->
<g id="node1" class="node">
<title>Node0x80563f040</title>
<ellipse fill="none" stroke="#000000" cx="85.8722" cy="-112" rx="85.7445" ry="18"/>
<text text-anchor="middle" x="85.8722" y="-107.8" font-family="Times,serif" font-size="14.00" fill="#000000">{acl_delete_def_file}</text>
</g>
<!-- Node0x80563f0a0 -->
<g id="node2" class="node">
<title>Node0x80563f0a0</title>
<ellipse fill="none" stroke="#000000" cx="178.8722" cy="-40" rx="79.0042" ry="18"/>
<text text-anchor="middle" x="178.8722" y="-35.8" font-family="Times,serif" font-size="14.00" fill="#000000">{__acl_delete_file}</text>
</g>
<!-- Node0x80563f040&#45;&gt;Node0x80563f0a0 -->
<g id="edge1" class="edge">
<title>Node0x80563f040&#45;&gt;Node0x80563f0a0</title>
<path fill="none" stroke="#000000" stroke-opacity="0.200000" d="M108.3849,-94.5708C120.3794,-85.2847 135.3063,-73.7285 148.3317,-63.6442"/>
<polygon fill="#000000" fill-opacity="0.200000" stroke="#000000" stroke-opacity="0.200000" points="150.8022,-66.158 156.5668,-57.2687 146.5169,-60.6229 150.8022,-66.158"/>
</g>
<!-- Node0x80563f1c0 -->
<g id="node3" class="node">
<title>Node0x80563f1c0</title>
<ellipse fill="none" stroke="#000000" cx="272.8722" cy="-112" rx="83.3477" ry="18"/>
<text text-anchor="middle" x="272.8722" y="-107.8" font-family="Times,serif" font-size="14.00" fill="#000000">{acl_delete_file_np}</text>
</g>
<!-- Node0x80563f1c0&#45;&gt;Node0x80563f0a0 -->
<g id="edge2" class="edge">
<title>Node0x80563f1c0&#45;&gt;Node0x80563f0a0</title>
<path fill="none" stroke="#000000" stroke-opacity="0.200000" d="M250.1174,-94.5708C237.8784,-85.1963 222.6189,-73.5081 209.3654,-63.3565"/>
<polygon fill="#000000" fill-opacity="0.200000" stroke="#000000" stroke-opacity="0.200000" points="211.4845,-60.5709 201.4174,-57.2687 207.2279,-66.1281 211.4845,-60.5709"/>
</g>
</g>
</svg>
