<?xml version="1.0" encoding="UTF-8" standalone="no"?>
<!DOCTYPE svg PUBLIC "-//W3C//DTD SVG 1.1//EN"
 "http://www.w3.org/Graphics/SVG/1.1/DTD/svg11.dtd">
<!-- Generated by graphviz version 2.40.1 (20161225.0304)
 -->
<!-- Title: Call graph Pages: 1 -->
<svg width="3410pt" height="498pt"
 viewBox="0.00 0.00 3410.02 498.00" xmlns="http://www.w3.org/2000/svg" xmlns:xlink="http://www.w3.org/1999/xlink">
<g id="graph0" class="graph" transform="scale(1 1) rotate(0) translate(4 494)">
<title>Call graph</title>
<polygon fill="#ffffff" stroke="transparent" points="-4,4 -4,-494 3406.0182,-494 3406.0182,4 -4,4"/>
<text text-anchor="middle" x="1701.0091" y="-6.8" font-family="Times,serif" font-size="14.00" fill="#000000">Call graph</text>
<!-- Node0x805627e80 -->
<g id="node1" class="node">
<title>Node0x805627e80</title>
<ellipse fill="none" stroke="#000000" cx="1877.6915" cy="-256" rx="85.779" ry="18"/>
<text text-anchor="middle" x="1877.6915" y="-251.8" font-family="Times,serif" font-size="14.00" fill="#000000">{_dns_getnetbyaddr}</text>
</g>
<!-- Node0x805625d80 -->
<g id="node2" class="node">
<title>Node0x805625d80</title>
<ellipse fill="none" stroke="#000000" cx="2512.6915" cy="-184" rx="58.2752" ry="18"/>
<text text-anchor="middle" x="2512.6915" y="-179.8" font-family="Times,serif" font-size="14.00" fill="#000000">{__res_ninit}</text>
</g>
<!-- Node0x805627e80&#45;&gt;Node0x805625d80 -->
<g id="edge1" class="edge">
<title>Node0x805627e80&#45;&gt;Node0x805625d80</title>
<path fill="none" stroke="#000000" stroke-opacity="0.200000" d="M1939.6492,-243.4508C1950.6287,-241.4586 1961.9755,-239.548 1972.6915,-238 2142.1801,-213.5168 2343.2053,-196.5786 2445.5485,-188.8133"/>
<polygon fill="#000000" fill-opacity="0.200000" stroke="#000000" stroke-opacity="0.200000" points="2446.0296,-192.287 2455.7384,-188.0457 2445.5038,-185.3068 2446.0296,-192.287"/>
</g>
<!-- Node0x805651ce0 -->
<g id="node26" class="node">
<title>Node0x805651ce0</title>
<ellipse fill="none" stroke="#000000" cx="1119.6915" cy="-112" rx="58.2752" ry="18"/>
<text text-anchor="middle" x="1119.6915" y="-107.8" font-family="Times,serif" font-size="14.00" fill="#000000">{__res_vinit}</text>
</g>
<!-- Node0x805625d80&#45;&gt;Node0x805651ce0 -->
<g id="edge37" class="edge">
<title>Node0x805625d80&#45;&gt;Node0x805651ce0</title>
<path fill="none" stroke="#000000" stroke-opacity="0.200000" d="M2455.0492,-181.0206C2232.1911,-169.5018 1427.4963,-127.9095 1187.6306,-115.5116"/>
<polygon fill="#000000" fill-opacity="0.200000" stroke="#000000" stroke-opacity="0.200000" points="1187.4786,-111.9991 1177.3112,-114.9782 1187.1172,-118.9898 1187.4786,-111.9991"/>
</g>
<!-- Node0x803d2f7c0 -->
<g id="node3" class="node">
<title>Node0x803d2f7c0</title>
<ellipse fill="none" stroke="#000000" cx="285.6915" cy="-40" rx="63.0864" ry="18"/>
<text text-anchor="middle" x="285.6915" y="-35.8" font-family="Times,serif" font-size="14.00" fill="#000000">{gethostname}</text>
</g>
<!-- Node0x8056ae740 -->
<g id="node4" class="node">
<title>Node0x8056ae740</title>
<ellipse fill="none" stroke="#000000" cx="95.6915" cy="-184" rx="59.2098" ry="18"/>
<text text-anchor="middle" x="95.6915" y="-179.8" font-family="Times,serif" font-size="14.00" fill="#000000">{getnetname}</text>
</g>
<!-- Node0x8056afac0 -->
<g id="node5" class="node">
<title>Node0x8056afac0</title>
<ellipse fill="none" stroke="#000000" cx="95.6915" cy="-112" rx="67.9298" ry="18"/>
<text text-anchor="middle" x="95.6915" y="-107.8" font-family="Times,serif" font-size="14.00" fill="#000000">{host2netname}</text>
</g>
<!-- Node0x8056ae740&#45;&gt;Node0x8056afac0 -->
<g id="edge2" class="edge">
<title>Node0x8056ae740&#45;&gt;Node0x8056afac0</title>
<path fill="none" stroke="#000000" stroke-opacity="0.200000" d="M95.6915,-165.8314C95.6915,-158.131 95.6915,-148.9743 95.6915,-140.4166"/>
<polygon fill="#000000" fill-opacity="0.200000" stroke="#000000" stroke-opacity="0.200000" points="99.1916,-140.4132 95.6915,-130.4133 92.1916,-140.4133 99.1916,-140.4132"/>
</g>
<!-- Node0x8056afac0&#45;&gt;Node0x803d2f7c0 -->
<g id="edge7" class="edge">
<title>Node0x8056afac0&#45;&gt;Node0x803d2f7c0</title>
<path fill="none" stroke="#000000" stroke-opacity="0.200000" d="M134.5994,-97.256C164.5099,-85.9214 205.9783,-70.2071 237.9061,-58.1082"/>
<polygon fill="#000000" fill-opacity="0.200000" stroke="#000000" stroke-opacity="0.200000" points="239.3742,-61.2948 247.485,-54.4783 236.8936,-54.749 239.3742,-61.2948"/>
</g>
<!-- Node0x8056a6680 -->
<g id="node6" class="node">
<title>Node0x8056a6680</title>
<ellipse fill="none" stroke="#000000" cx="95.6915" cy="-328" rx="82.3527" ry="18"/>
<text text-anchor="middle" x="95.6915" y="-323.8" font-family="Times,serif" font-size="14.00" fill="#000000">{authdes_seccreate}</text>
</g>
<!-- Node0x8056ae6e0 -->
<g id="node7" class="node">
<title>Node0x8056ae6e0</title>
<ellipse fill="none" stroke="#000000" cx="95.6915" cy="-256" rx="95.8835" ry="18"/>
<text text-anchor="middle" x="95.6915" y="-251.8" font-family="Times,serif" font-size="14.00" fill="#000000">{authdes_pk_seccreate}</text>
</g>
<!-- Node0x8056a6680&#45;&gt;Node0x8056ae6e0 -->
<g id="edge3" class="edge">
<title>Node0x8056a6680&#45;&gt;Node0x8056ae6e0</title>
<path fill="none" stroke="#000000" stroke-opacity="0.200000" d="M95.6915,-309.8314C95.6915,-302.131 95.6915,-292.9743 95.6915,-284.4166"/>
<polygon fill="#000000" fill-opacity="0.200000" stroke="#000000" stroke-opacity="0.200000" points="99.1916,-284.4132 95.6915,-274.4133 92.1916,-284.4133 99.1916,-284.4132"/>
</g>
<!-- Node0x8056ae6e0&#45;&gt;Node0x8056ae740 -->
<g id="edge10" class="edge">
<title>Node0x8056ae6e0&#45;&gt;Node0x8056ae740</title>
<path fill="none" stroke="#000000" stroke-opacity="0.200000" d="M95.6915,-237.8314C95.6915,-230.131 95.6915,-220.9743 95.6915,-212.4166"/>
<polygon fill="#000000" fill-opacity="0.200000" stroke="#000000" stroke-opacity="0.200000" points="99.1916,-212.4132 95.6915,-202.4133 92.1916,-212.4133 99.1916,-212.4132"/>
</g>
<!-- Node0x805631a20 -->
<g id="node8" class="node">
<title>Node0x805631a20</title>
<ellipse fill="none" stroke="#000000" cx="2048.6915" cy="-328" rx="50.0553" ry="18"/>
<text text-anchor="middle" x="2048.6915" y="-323.8" font-family="Times,serif" font-size="14.00" fill="#000000">{setnetent}</text>
</g>
<!-- Node0x805631120 -->
<g id="node9" class="node">
<title>Node0x805631120</title>
<ellipse fill="none" stroke="#000000" cx="2048.6915" cy="-256" rx="66.9696" ry="18"/>
<text text-anchor="middle" x="2048.6915" y="-251.8" font-family="Times,serif" font-size="14.00" fill="#000000">{_setnetdnsent}</text>
</g>
<!-- Node0x805631a20&#45;&gt;Node0x805631120 -->
<g id="edge4" class="edge">
<title>Node0x805631a20&#45;&gt;Node0x805631120</title>
<path fill="none" stroke="#000000" stroke-opacity="0.200000" d="M2048.6915,-309.8314C2048.6915,-302.131 2048.6915,-292.9743 2048.6915,-284.4166"/>
<polygon fill="#000000" fill-opacity="0.200000" stroke="#000000" stroke-opacity="0.200000" points="2052.1916,-284.4132 2048.6915,-274.4133 2045.1916,-284.4133 2052.1916,-284.4132"/>
</g>
<!-- Node0x805631120&#45;&gt;Node0x805625d80 -->
<g id="edge22" class="edge">
<title>Node0x805631120&#45;&gt;Node0x805625d80</title>
<path fill="none" stroke="#000000" stroke-opacity="0.200000" d="M2099.1215,-244.1506C2109.2173,-241.9601 2119.7694,-239.7991 2129.6915,-238 2240.9839,-217.8207 2371.6292,-200.8186 2447.9809,-191.5485"/>
<polygon fill="#000000" fill-opacity="0.200000" stroke="#000000" stroke-opacity="0.200000" points="2448.4218,-195.0208 2457.9301,-190.3471 2447.5825,-188.0713 2448.4218,-195.0208"/>
</g>
<!-- Node0x805633ee0 -->
<g id="node10" class="node">
<title>Node0x805633ee0</title>
<ellipse fill="none" stroke="#000000" cx="2197.6915" cy="-400" rx="81.4268" ry="18"/>
<text text-anchor="middle" x="2197.6915" y="-395.8" font-family="Times,serif" font-size="14.00" fill="#000000">{getipnodebyname}</text>
</g>
<!-- Node0x805633ee0&#45;&gt;Node0x805625d80 -->
<g id="edge5" class="edge">
<title>Node0x805633ee0&#45;&gt;Node0x805625d80</title>
<path fill="none" stroke="#000000" stroke-opacity="0.200000" d="M2185.1489,-382.0406C2164.007,-349.3637 2126.9155,-279.719 2162.6915,-238 2180.8653,-216.8072 2349.4368,-198.5039 2445.8433,-189.6582"/>
<polygon fill="#000000" fill-opacity="0.200000" stroke="#000000" stroke-opacity="0.200000" points="2446.4407,-193.1185 2456.0835,-188.7292 2445.8082,-186.1471 2446.4407,-193.1185"/>
</g>
<!-- Node0x805627700 -->
<g id="node11" class="node">
<title>Node0x805627700</title>
<ellipse fill="none" stroke="#000000" cx="2252.6915" cy="-328" rx="76.6161" ry="18"/>
<text text-anchor="middle" x="2252.6915" y="-323.8" font-family="Times,serif" font-size="14.00" fill="#000000">{gethostbyname2}</text>
</g>
<!-- Node0x805633ee0&#45;&gt;Node0x805627700 -->
<g id="edge6" class="edge">
<title>Node0x805633ee0&#45;&gt;Node0x805627700</title>
<path fill="none" stroke="#000000" stroke-opacity="0.200000" d="M2211.287,-382.2022C2217.7655,-373.7214 2225.6411,-363.4115 2232.7773,-354.0696"/>
<polygon fill="#000000" fill-opacity="0.200000" stroke="#000000" stroke-opacity="0.200000" points="2235.7727,-355.9139 2239.0618,-345.8425 2230.21,-351.6646 2235.7727,-355.9139"/>
</g>
<!-- Node0x8056275e0 -->
<g id="node29" class="node">
<title>Node0x8056275e0</title>
<ellipse fill="none" stroke="#000000" cx="2255.6915" cy="-256" rx="83.8495" ry="18"/>
<text text-anchor="middle" x="2255.6915" y="-251.8" font-family="Times,serif" font-size="14.00" fill="#000000">{gethostbyname2_r}</text>
</g>
<!-- Node0x805627700&#45;&gt;Node0x8056275e0 -->
<g id="edge31" class="edge">
<title>Node0x805627700&#45;&gt;Node0x8056275e0</title>
<path fill="none" stroke="#000000" stroke-opacity="0.200000" d="M2253.4486,-309.8314C2253.7694,-302.131 2254.1509,-292.9743 2254.5075,-284.4166"/>
<polygon fill="#000000" fill-opacity="0.200000" stroke="#000000" stroke-opacity="0.200000" points="2258.0049,-284.5503 2254.9243,-274.4133 2251.011,-284.2589 2258.0049,-284.5503"/>
</g>
<!-- Node0x805651f20 -->
<g id="node12" class="node">
<title>Node0x805651f20</title>
<ellipse fill="none" stroke="#000000" cx="444.6915" cy="-256" rx="77.092" ry="18"/>
<text text-anchor="middle" x="444.6915" y="-251.8" font-family="Times,serif" font-size="14.00" fill="#000000">{__res_mkupdate}</text>
</g>
<!-- Node0x805651c80 -->
<g id="node13" class="node">
<title>Node0x805651c80</title>
<ellipse fill="none" stroke="#000000" cx="1119.6915" cy="-184" rx="53.9315" ry="18"/>
<text text-anchor="middle" x="1119.6915" y="-179.8" font-family="Times,serif" font-size="14.00" fill="#000000">{__res_init}</text>
</g>
<!-- Node0x805651f20&#45;&gt;Node0x805651c80 -->
<g id="edge8" class="edge">
<title>Node0x805651f20&#45;&gt;Node0x805651c80</title>
<path fill="none" stroke="#000000" stroke-opacity="0.200000" d="M500.0373,-243.44C510.1964,-241.413 520.7352,-239.4933 530.6915,-238 720.8042,-209.4861 947.8516,-193.7976 1056.1433,-187.4252"/>
<polygon fill="#000000" fill-opacity="0.200000" stroke="#000000" stroke-opacity="0.200000" points="1056.4674,-190.9123 1066.2472,-186.8375 1056.0608,-183.9242 1056.4674,-190.9123"/>
</g>
<!-- Node0x805651c80&#45;&gt;Node0x805651ce0 -->
<g id="edge35" class="edge">
<title>Node0x805651c80&#45;&gt;Node0x805651ce0</title>
<path fill="none" stroke="#000000" stroke-opacity="0.200000" d="M1119.6915,-165.8314C1119.6915,-158.131 1119.6915,-148.9743 1119.6915,-140.4166"/>
<polygon fill="#000000" fill-opacity="0.200000" stroke="#000000" stroke-opacity="0.200000" points="1123.1916,-140.4132 1119.6915,-130.4133 1116.1916,-140.4133 1123.1916,-140.4132"/>
</g>
<!-- Node0x805626b60 -->
<g id="node14" class="node">
<title>Node0x805626b60</title>
<ellipse fill="none" stroke="#000000" cx="2428.6915" cy="-256" rx="70.8454" ry="18"/>
<text text-anchor="middle" x="2428.6915" y="-251.8" font-family="Times,serif" font-size="14.00" fill="#000000">{_sethostdnsent}</text>
</g>
<!-- Node0x805626b60&#45;&gt;Node0x805625d80 -->
<g id="edge9" class="edge">
<title>Node0x805626b60&#45;&gt;Node0x805625d80</title>
<path fill="none" stroke="#000000" stroke-opacity="0.200000" d="M2449.0256,-238.5708C2459.8351,-229.3055 2473.2813,-217.7802 2485.0275,-207.7121"/>
<polygon fill="#000000" fill-opacity="0.200000" stroke="#000000" stroke-opacity="0.200000" points="2487.5198,-210.1856 2492.8346,-201.0202 2482.9642,-204.8708 2487.5198,-210.1856"/>
</g>
<!-- Node0x8056277c0 -->
<g id="node15" class="node">
<title>Node0x8056277c0</title>
<ellipse fill="none" stroke="#000000" cx="2428.6915" cy="-328" rx="53.9315" ry="18"/>
<text text-anchor="middle" x="2428.6915" y="-323.8" font-family="Times,serif" font-size="14.00" fill="#000000">{sethostent}</text>
</g>
<!-- Node0x8056277c0&#45;&gt;Node0x805626b60 -->
<g id="edge11" class="edge">
<title>Node0x8056277c0&#45;&gt;Node0x805626b60</title>
<path fill="none" stroke="#000000" stroke-opacity="0.200000" d="M2428.6915,-309.8314C2428.6915,-302.131 2428.6915,-292.9743 2428.6915,-284.4166"/>
<polygon fill="#000000" fill-opacity="0.200000" stroke="#000000" stroke-opacity="0.200000" points="2432.1916,-284.4132 2428.6915,-274.4133 2425.1916,-284.4133 2432.1916,-284.4132"/>
</g>
<!-- Node0x805697ee0 -->
<g id="node16" class="node">
<title>Node0x805697ee0</title>
<ellipse fill="none" stroke="#000000" cx="281.6915" cy="-256" rx="68.3883" ry="18"/>
<text text-anchor="middle" x="281.6915" y="-251.8" font-family="Times,serif" font-size="14.00" fill="#000000">{rpc_broadcast}</text>
</g>
<!-- Node0x805697a00 -->
<g id="node17" class="node">
<title>Node0x805697a00</title>
<ellipse fill="none" stroke="#000000" cx="283.6915" cy="-184" rx="85.2686" ry="18"/>
<text text-anchor="middle" x="283.6915" y="-179.8" font-family="Times,serif" font-size="14.00" fill="#000000">{rpc_broadcast_exp}</text>
</g>
<!-- Node0x805697ee0&#45;&gt;Node0x805697a00 -->
<g id="edge12" class="edge">
<title>Node0x805697ee0&#45;&gt;Node0x805697a00</title>
<path fill="none" stroke="#000000" stroke-opacity="0.200000" d="M282.1962,-237.8314C282.4101,-230.131 282.6645,-220.9743 282.9022,-212.4166"/>
<polygon fill="#000000" fill-opacity="0.200000" stroke="#000000" stroke-opacity="0.200000" points="286.4009,-212.5066 283.1801,-202.4133 279.4036,-212.3122 286.4009,-212.5066"/>
</g>
<!-- Node0x805697580 -->
<g id="node28" class="node">
<title>Node0x805697580</title>
<ellipse fill="none" stroke="#000000" cx="285.6915" cy="-112" rx="104.0855" ry="18"/>
<text text-anchor="middle" x="285.6915" y="-107.8" font-family="Times,serif" font-size="14.00" fill="#000000">{authunix_create_default}</text>
</g>
<!-- Node0x805697a00&#45;&gt;Node0x805697580 -->
<g id="edge36" class="edge">
<title>Node0x805697a00&#45;&gt;Node0x805697580</title>
<path fill="none" stroke="#000000" stroke-opacity="0.200000" d="M284.1962,-165.8314C284.4101,-158.131 284.6645,-148.9743 284.9022,-140.4166"/>
<polygon fill="#000000" fill-opacity="0.200000" stroke="#000000" stroke-opacity="0.200000" points="288.4009,-140.5066 285.1801,-130.4133 281.4036,-140.3122 288.4009,-140.5066"/>
</g>
<!-- Node0x805625c60 -->
<g id="node18" class="node">
<title>Node0x805625c60</title>
<ellipse fill="none" stroke="#000000" cx="2597.6915" cy="-256" rx="80.475" ry="18"/>
<text text-anchor="middle" x="2597.6915" y="-251.8" font-family="Times,serif" font-size="14.00" fill="#000000">{_dns_getaddrinfo}</text>
</g>
<!-- Node0x805625c60&#45;&gt;Node0x805625d80 -->
<g id="edge13" class="edge">
<title>Node0x805625c60&#45;&gt;Node0x805625d80</title>
<path fill="none" stroke="#000000" stroke-opacity="0.200000" d="M2577.1154,-238.5708C2566.1772,-229.3055 2552.571,-217.7802 2540.6849,-207.7121"/>
<polygon fill="#000000" fill-opacity="0.200000" stroke="#000000" stroke-opacity="0.200000" points="2542.6776,-204.8131 2532.7849,-201.0202 2538.1531,-210.1544 2542.6776,-204.8131"/>
</g>
<!-- Node0x805627be0 -->
<g id="node19" class="node">
<title>Node0x805627be0</title>
<ellipse fill="none" stroke="#000000" cx="2752.6915" cy="-400" rx="78.0524" ry="18"/>
<text text-anchor="middle" x="2752.6915" y="-395.8" font-family="Times,serif" font-size="14.00" fill="#000000">{getipnodebyaddr}</text>
</g>
<!-- Node0x805627be0&#45;&gt;Node0x805625d80 -->
<g id="edge15" class="edge">
<title>Node0x805627be0&#45;&gt;Node0x805625d80</title>
<path fill="none" stroke="#000000" stroke-opacity="0.200000" d="M2744.4774,-382.0921C2739.7394,-371.6228 2733.7394,-358.1228 2728.6915,-346 2708.8942,-298.4552 2724.3604,-273.1212 2686.6915,-238 2669.6826,-222.1414 2614.8051,-206.6847 2571.1741,-196.4005"/>
<polygon fill="#000000" fill-opacity="0.200000" stroke="#000000" stroke-opacity="0.200000" points="2571.7378,-192.9385 2561.2062,-194.0937 2570.1595,-199.7583 2571.7378,-192.9385"/>
</g>
<!-- Node0x805627760 -->
<g id="node20" class="node">
<title>Node0x805627760</title>
<ellipse fill="none" stroke="#000000" cx="2806.6915" cy="-328" rx="68.8988" ry="18"/>
<text text-anchor="middle" x="2806.6915" y="-323.8" font-family="Times,serif" font-size="14.00" fill="#000000">{gethostbyaddr}</text>
</g>
<!-- Node0x805627be0&#45;&gt;Node0x805627760 -->
<g id="edge14" class="edge">
<title>Node0x805627be0&#45;&gt;Node0x805627760</title>
<path fill="none" stroke="#000000" stroke-opacity="0.200000" d="M2766.0399,-382.2022C2772.4005,-373.7214 2780.1329,-363.4115 2787.1394,-354.0696"/>
<polygon fill="#000000" fill-opacity="0.200000" stroke="#000000" stroke-opacity="0.200000" points="2790.1096,-355.9426 2793.3096,-345.8425 2784.5096,-351.7426 2790.1096,-355.9426"/>
</g>
<!-- Node0x805627640 -->
<g id="node35" class="node">
<title>Node0x805627640</title>
<ellipse fill="none" stroke="#000000" cx="2809.6915" cy="-256" rx="76.1316" ry="18"/>
<text text-anchor="middle" x="2809.6915" y="-251.8" font-family="Times,serif" font-size="14.00" fill="#000000">{gethostbyaddr_r}</text>
</g>
<!-- Node0x805627760&#45;&gt;Node0x805627640 -->
<g id="edge34" class="edge">
<title>Node0x805627760&#45;&gt;Node0x805627640</title>
<path fill="none" stroke="#000000" stroke-opacity="0.200000" d="M2807.4486,-309.8314C2807.7694,-302.131 2808.1509,-292.9743 2808.5075,-284.4166"/>
<polygon fill="#000000" fill-opacity="0.200000" stroke="#000000" stroke-opacity="0.200000" points="2812.0049,-284.5503 2808.9243,-274.4133 2805.011,-284.2589 2812.0049,-284.5503"/>
</g>
<!-- Node0x805652340 -->
<g id="node21" class="node">
<title>Node0x805652340</title>
<ellipse fill="none" stroke="#000000" cx="615.6915" cy="-256" rx="76.1316" ry="18"/>
<text text-anchor="middle" x="615.6915" y="-251.8" font-family="Times,serif" font-size="14.00" fill="#000000">{__res_randomid}</text>
</g>
<!-- Node0x805652340&#45;&gt;Node0x805651c80 -->
<g id="edge16" class="edge">
<title>Node0x805652340&#45;&gt;Node0x805651c80</title>
<path fill="none" stroke="#000000" stroke-opacity="0.200000" d="M671.3499,-243.5434C681.1031,-241.5524 691.1743,-239.6183 700.6915,-238 826.8924,-216.5411 975.7714,-199.2423 1057.7448,-190.4056"/>
<polygon fill="#000000" fill-opacity="0.200000" stroke="#000000" stroke-opacity="0.200000" points="1058.3185,-193.8642 1067.8886,-189.3185 1057.5726,-186.9041 1058.3185,-193.8642"/>
</g>
<!-- Node0x805627a00 -->
<g id="node22" class="node">
<title>Node0x805627a00</title>
<ellipse fill="none" stroke="#000000" cx="2752.6915" cy="-472" rx="80.4578" ry="18"/>
<text text-anchor="middle" x="2752.6915" y="-467.8" font-family="Times,serif" font-size="14.00" fill="#000000">{getnameinfo_inet}</text>
</g>
<!-- Node0x805627a00&#45;&gt;Node0x805627be0 -->
<g id="edge17" class="edge">
<title>Node0x805627a00&#45;&gt;Node0x805627be0</title>
<path fill="none" stroke="#000000" stroke-opacity="0.200000" d="M2752.6915,-453.8314C2752.6915,-446.131 2752.6915,-436.9743 2752.6915,-428.4166"/>
<polygon fill="#000000" fill-opacity="0.200000" stroke="#000000" stroke-opacity="0.200000" points="2756.1916,-428.4132 2752.6915,-418.4133 2749.1916,-428.4133 2756.1916,-428.4132"/>
</g>
<!-- Node0x805652280 -->
<g id="node23" class="node">
<title>Node0x805652280</title>
<ellipse fill="none" stroke="#000000" cx="798.6915" cy="-256" rx="88.6691" ry="18"/>
<text text-anchor="middle" x="798.6915" y="-251.8" font-family="Times,serif" font-size="14.00" fill="#000000">{__res_querydomain}</text>
</g>
<!-- Node0x805652280&#45;&gt;Node0x805651c80 -->
<g id="edge18" class="edge">
<title>Node0x805652280&#45;&gt;Node0x805651c80</title>
<path fill="none" stroke="#000000" stroke-opacity="0.200000" d="M858.3169,-242.6261C917.4969,-229.3521 1007.4477,-209.1762 1064.8847,-196.2931"/>
<polygon fill="#000000" fill-opacity="0.200000" stroke="#000000" stroke-opacity="0.200000" points="1065.8737,-199.6583 1074.8652,-194.0545 1064.3416,-192.828 1065.8737,-199.6583"/>
</g>
<!-- Node0x8056ae4a0 -->
<g id="node24" class="node">
<title>Node0x8056ae4a0</title>
<ellipse fill="none" stroke="#000000" cx="3061.6915" cy="-400" rx="55.3506" ry="18"/>
<text text-anchor="middle" x="3061.6915" y="-395.8" font-family="Times,serif" font-size="14.00" fill="#000000">{get_server}</text>
</g>
<!-- Node0x8056276a0 -->
<g id="node25" class="node">
<title>Node0x8056276a0</title>
<ellipse fill="none" stroke="#000000" cx="3125.6915" cy="-328" rx="72.2729" ry="18"/>
<text text-anchor="middle" x="3125.6915" y="-323.8" font-family="Times,serif" font-size="14.00" fill="#000000">{gethostbyname}</text>
</g>
<!-- Node0x8056ae4a0&#45;&gt;Node0x8056276a0 -->
<g id="edge19" class="edge">
<title>Node0x8056ae4a0&#45;&gt;Node0x8056276a0</title>
<path fill="none" stroke="#000000" stroke-opacity="0.200000" d="M3077.1842,-382.5708C3084.9298,-373.857 3094.4523,-363.1441 3103.0031,-353.5244"/>
<polygon fill="#000000" fill-opacity="0.200000" stroke="#000000" stroke-opacity="0.200000" points="3105.8692,-355.5683 3109.897,-345.7689 3100.6374,-350.9177 3105.8692,-355.5683"/>
</g>
<!-- Node0x8056273a0 -->
<g id="node43" class="node">
<title>Node0x8056273a0</title>
<ellipse fill="none" stroke="#000000" cx="3125.6915" cy="-256" rx="79.506" ry="18"/>
<text text-anchor="middle" x="3125.6915" y="-251.8" font-family="Times,serif" font-size="14.00" fill="#000000">{gethostbyname_r}</text>
</g>
<!-- Node0x8056276a0&#45;&gt;Node0x8056273a0 -->
<g id="edge46" class="edge">
<title>Node0x8056276a0&#45;&gt;Node0x8056273a0</title>
<path fill="none" stroke="#000000" stroke-opacity="0.200000" d="M3125.6915,-309.8314C3125.6915,-302.131 3125.6915,-292.9743 3125.6915,-284.4166"/>
<polygon fill="#000000" fill-opacity="0.200000" stroke="#000000" stroke-opacity="0.200000" points="3129.1916,-284.4132 3125.6915,-274.4133 3122.1916,-284.4133 3129.1916,-284.4132"/>
</g>
<!-- Node0x805651ce0&#45;&gt;Node0x803d2f7c0 -->
<g id="edge20" class="edge">
<title>Node0x805651ce0&#45;&gt;Node0x803d2f7c0</title>
<path fill="none" stroke="#000000" stroke-opacity="0.200000" d="M1063.3496,-107.136C916.0072,-94.4157 519.4412,-60.1798 356.7826,-46.1374"/>
<polygon fill="#000000" fill-opacity="0.200000" stroke="#000000" stroke-opacity="0.200000" points="356.676,-42.6152 346.412,-45.2421 356.0738,-49.5893 356.676,-42.6152"/>
</g>
<!-- Node0x80569af40 -->
<g id="node27" class="node">
<title>Node0x80569af40</title>
<ellipse fill="none" stroke="#000000" cx="3189.6915" cy="-400" rx="54.8747" ry="18"/>
<text text-anchor="middle" x="3189.6915" y="-395.8" font-family="Times,serif" font-size="14.00" fill="#000000">{getrpcport}</text>
</g>
<!-- Node0x80569af40&#45;&gt;Node0x8056276a0 -->
<g id="edge21" class="edge">
<title>Node0x80569af40&#45;&gt;Node0x8056276a0</title>
<path fill="none" stroke="#000000" stroke-opacity="0.200000" d="M3174.1989,-382.5708C3166.4533,-373.857 3156.9308,-363.1441 3148.3799,-353.5244"/>
<polygon fill="#000000" fill-opacity="0.200000" stroke="#000000" stroke-opacity="0.200000" points="3150.7457,-350.9177 3141.4861,-345.7689 3145.5138,-355.5683 3150.7457,-350.9177"/>
</g>
<!-- Node0x805697580&#45;&gt;Node0x803d2f7c0 -->
<g id="edge23" class="edge">
<title>Node0x805697580&#45;&gt;Node0x803d2f7c0</title>
<path fill="none" stroke="#000000" stroke-opacity="0.200000" d="M285.6915,-93.8314C285.6915,-86.131 285.6915,-76.9743 285.6915,-68.4166"/>
<polygon fill="#000000" fill-opacity="0.200000" stroke="#000000" stroke-opacity="0.200000" points="289.1916,-68.4132 285.6915,-58.4133 282.1916,-68.4133 289.1916,-68.4132"/>
</g>
<!-- Node0x8056275e0&#45;&gt;Node0x805625d80 -->
<g id="edge24" class="edge">
<title>Node0x8056275e0&#45;&gt;Node0x805625d80</title>
<path fill="none" stroke="#000000" stroke-opacity="0.200000" d="M2306.7737,-241.689C2351.0036,-229.2978 2414.7429,-211.4409 2459.5619,-198.8846"/>
<polygon fill="#000000" fill-opacity="0.200000" stroke="#000000" stroke-opacity="0.200000" points="2460.7045,-202.1993 2469.3896,-196.1313 2458.8161,-195.4588 2460.7045,-202.1993"/>
</g>
<!-- Node0x805652220 -->
<g id="node30" class="node">
<title>Node0x805652220</title>
<ellipse fill="none" stroke="#000000" cx="970.6915" cy="-256" rx="64.5143" ry="18"/>
<text text-anchor="middle" x="970.6915" y="-251.8" font-family="Times,serif" font-size="14.00" fill="#000000">{__res_search}</text>
</g>
<!-- Node0x805652220&#45;&gt;Node0x805651c80 -->
<g id="edge25" class="edge">
<title>Node0x805652220&#45;&gt;Node0x805651c80</title>
<path fill="none" stroke="#000000" stroke-opacity="0.200000" d="M1003.0223,-240.3771C1025.5392,-229.4964 1055.7191,-214.9129 1079.7424,-203.3043"/>
<polygon fill="#000000" fill-opacity="0.200000" stroke="#000000" stroke-opacity="0.200000" points="1081.4703,-206.3566 1088.9514,-198.8543 1078.4246,-200.0539 1081.4703,-206.3566"/>
</g>
<!-- Node0x805652160 -->
<g id="node31" class="node">
<title>Node0x805652160</title>
<ellipse fill="none" stroke="#000000" cx="1119.6915" cy="-256" rx="65.992" ry="18"/>
<text text-anchor="middle" x="1119.6915" y="-251.8" font-family="Times,serif" font-size="14.00" fill="#000000">{__res_update}</text>
</g>
<!-- Node0x805652160&#45;&gt;Node0x805651c80 -->
<g id="edge26" class="edge">
<title>Node0x805652160&#45;&gt;Node0x805651c80</title>
<path fill="none" stroke="#000000" stroke-opacity="0.200000" d="M1119.6915,-237.8314C1119.6915,-230.131 1119.6915,-220.9743 1119.6915,-212.4166"/>
<polygon fill="#000000" fill-opacity="0.200000" stroke="#000000" stroke-opacity="0.200000" points="1123.1916,-212.4132 1119.6915,-202.4133 1116.1916,-212.4133 1123.1916,-212.4132"/>
</g>
<!-- Node0x805651e00 -->
<g id="node32" class="node">
<title>Node0x805651e00</title>
<ellipse fill="none" stroke="#000000" cx="1267.6915" cy="-256" rx="63.5709" ry="18"/>
<text text-anchor="middle" x="1267.6915" y="-251.8" font-family="Times,serif" font-size="14.00" fill="#000000">{__fp_nquery}</text>
</g>
<!-- Node0x805651e00&#45;&gt;Node0x805651c80 -->
<g id="edge27" class="edge">
<title>Node0x805651e00&#45;&gt;Node0x805651c80</title>
<path fill="none" stroke="#000000" stroke-opacity="0.200000" d="M1235.5777,-240.3771C1213.212,-229.4964 1183.2346,-214.9129 1159.3726,-203.3043"/>
<polygon fill="#000000" fill-opacity="0.200000" stroke="#000000" stroke-opacity="0.200000" points="1160.7489,-200.0817 1150.2254,-198.8543 1157.6866,-206.3764 1160.7489,-200.0817"/>
</g>
<!-- Node0x805626e00 -->
<g id="node33" class="node">
<title>Node0x805626e00</title>
<ellipse fill="none" stroke="#000000" cx="2965.6915" cy="-328" rx="54.892" ry="18"/>
<text text-anchor="middle" x="2965.6915" y="-323.8" font-family="Times,serif" font-size="14.00" fill="#000000">{gethostent}</text>
</g>
<!-- Node0x805626d40 -->
<g id="node34" class="node">
<title>Node0x805626d40</title>
<ellipse fill="none" stroke="#000000" cx="2965.6915" cy="-256" rx="62.1258" ry="18"/>
<text text-anchor="middle" x="2965.6915" y="-251.8" font-family="Times,serif" font-size="14.00" fill="#000000">{gethostent_r}</text>
</g>
<!-- Node0x805626e00&#45;&gt;Node0x805626d40 -->
<g id="edge28" class="edge">
<title>Node0x805626e00&#45;&gt;Node0x805626d40</title>
<path fill="none" stroke="#000000" stroke-opacity="0.200000" d="M2965.6915,-309.8314C2965.6915,-302.131 2965.6915,-292.9743 2965.6915,-284.4166"/>
<polygon fill="#000000" fill-opacity="0.200000" stroke="#000000" stroke-opacity="0.200000" points="2969.1916,-284.4132 2965.6915,-274.4133 2962.1916,-284.4133 2969.1916,-284.4132"/>
</g>
<!-- Node0x805626d40&#45;&gt;Node0x805625d80 -->
<g id="edge29" class="edge">
<title>Node0x805626d40&#45;&gt;Node0x805625d80</title>
<path fill="none" stroke="#000000" stroke-opacity="0.200000" d="M2920.0239,-243.651C2911.6342,-241.6025 2902.9263,-239.621 2894.6915,-238 2784.3128,-216.2725 2654.3374,-199.8109 2577.9927,-191.058"/>
<polygon fill="#000000" fill-opacity="0.200000" stroke="#000000" stroke-opacity="0.200000" points="2578.372,-187.5787 2568.0405,-189.9259 2577.5808,-194.5338 2578.372,-187.5787"/>
</g>
<!-- Node0x805627640&#45;&gt;Node0x805625d80 -->
<g id="edge30" class="edge">
<title>Node0x805627640&#45;&gt;Node0x805625d80</title>
<path fill="none" stroke="#000000" stroke-opacity="0.200000" d="M2756.2509,-243.0447C2703.2669,-230.2001 2622.4301,-210.6033 2568.6008,-197.5538"/>
<polygon fill="#000000" fill-opacity="0.200000" stroke="#000000" stroke-opacity="0.200000" points="2569.42,-194.151 2558.8768,-195.1964 2567.7707,-200.954 2569.42,-194.151"/>
</g>
<!-- Node0x805651fe0 -->
<g id="node36" class="node">
<title>Node0x805651fe0</title>
<ellipse fill="none" stroke="#000000" cx="1411.6915" cy="-256" rx="62.1172" ry="18"/>
<text text-anchor="middle" x="1411.6915" y="-251.8" font-family="Times,serif" font-size="14.00" fill="#000000">{__res_query}</text>
</g>
<!-- Node0x805651fe0&#45;&gt;Node0x805651c80 -->
<g id="edge32" class="edge">
<title>Node0x805651fe0&#45;&gt;Node0x805651c80</title>
<path fill="none" stroke="#000000" stroke-opacity="0.200000" d="M1364.7306,-244.0335C1356.7133,-242.008 1348.4656,-239.9352 1340.6915,-238 1283.6798,-223.8082 1218.3069,-207.8771 1173.538,-197.0195"/>
<polygon fill="#000000" fill-opacity="0.200000" stroke="#000000" stroke-opacity="0.200000" points="1174.2896,-193.6003 1163.7465,-194.646 1172.6405,-200.4033 1174.2896,-193.6003"/>
</g>
<!-- Node0x805651d40 -->
<g id="node37" class="node">
<title>Node0x805651d40</title>
<ellipse fill="none" stroke="#000000" cx="1267.6915" cy="-400" rx="56.337" ry="18"/>
<text text-anchor="middle" x="1267.6915" y="-395.8" font-family="Times,serif" font-size="14.00" fill="#000000">{__p_query}</text>
</g>
<!-- Node0x805651da0 -->
<g id="node38" class="node">
<title>Node0x805651da0</title>
<ellipse fill="none" stroke="#000000" cx="1267.6915" cy="-328" rx="59.2271" ry="18"/>
<text text-anchor="middle" x="1267.6915" y="-323.8" font-family="Times,serif" font-size="14.00" fill="#000000">{__fp_query}</text>
</g>
<!-- Node0x805651d40&#45;&gt;Node0x805651da0 -->
<g id="edge33" class="edge">
<title>Node0x805651d40&#45;&gt;Node0x805651da0</title>
<path fill="none" stroke="#000000" stroke-opacity="0.200000" d="M1267.6915,-381.8314C1267.6915,-374.131 1267.6915,-364.9743 1267.6915,-356.4166"/>
<polygon fill="#000000" fill-opacity="0.200000" stroke="#000000" stroke-opacity="0.200000" points="1271.1916,-356.4132 1267.6915,-346.4133 1264.1916,-356.4133 1271.1916,-356.4132"/>
</g>
<!-- Node0x805651da0&#45;&gt;Node0x805651e00 -->
<g id="edge40" class="edge">
<title>Node0x805651da0&#45;&gt;Node0x805651e00</title>
<path fill="none" stroke="#000000" stroke-opacity="0.200000" d="M1267.6915,-309.8314C1267.6915,-302.131 1267.6915,-292.9743 1267.6915,-284.4166"/>
<polygon fill="#000000" fill-opacity="0.200000" stroke="#000000" stroke-opacity="0.200000" points="1271.1916,-284.4132 1267.6915,-274.4133 1264.1916,-284.4133 1271.1916,-284.4132"/>
</g>
<!-- Node0x8056520a0 -->
<g id="node39" class="node">
<title>Node0x8056520a0</title>
<ellipse fill="none" stroke="#000000" cx="1550.6915" cy="-256" rx="58.2666" ry="18"/>
<text text-anchor="middle" x="1550.6915" y="-251.8" font-family="Times,serif" font-size="14.00" fill="#000000">{__res_send}</text>
</g>
<!-- Node0x8056520a0&#45;&gt;Node0x805651c80 -->
<g id="edge38" class="edge">
<title>Node0x8056520a0&#45;&gt;Node0x805651c80</title>
<path fill="none" stroke="#000000" stroke-opacity="0.200000" d="M1507.3307,-243.7538C1499.1821,-241.6713 1490.7053,-239.6514 1482.6915,-238 1377.5642,-216.3365 1253.6009,-199.8003 1181.1177,-191.0246"/>
<polygon fill="#000000" fill-opacity="0.200000" stroke="#000000" stroke-opacity="0.200000" points="1181.1513,-187.5036 1170.8054,-189.7864 1180.3168,-194.4536 1181.1513,-187.5036"/>
</g>
<!-- Node0x805651ec0 -->
<g id="node40" class="node">
<title>Node0x805651ec0</title>
<ellipse fill="none" stroke="#000000" cx="1700.6915" cy="-256" rx="73.7177" ry="18"/>
<text text-anchor="middle" x="1700.6915" y="-251.8" font-family="Times,serif" font-size="14.00" fill="#000000">{__res_mkquery}</text>
</g>
<!-- Node0x805651ec0&#45;&gt;Node0x805651c80 -->
<g id="edge39" class="edge">
<title>Node0x805651ec0&#45;&gt;Node0x805651c80</title>
<path fill="none" stroke="#000000" stroke-opacity="0.200000" d="M1647.2714,-243.5469C1637.4672,-241.509 1627.2975,-239.558 1617.6915,-238 1462.1867,-212.7793 1277.3989,-196.2129 1182.6345,-188.6814"/>
<polygon fill="#000000" fill-opacity="0.200000" stroke="#000000" stroke-opacity="0.200000" points="1182.884,-185.1903 1172.64,-187.8941 1182.3343,-192.1687 1182.884,-185.1903"/>
</g>
<!-- Node0x8056ae440 -->
<g id="node41" class="node">
<title>Node0x8056ae440</title>
<ellipse fill="none" stroke="#000000" cx="3061.6915" cy="-472" rx="98.4966" ry="18"/>
<text text-anchor="middle" x="3061.6915" y="-467.8" font-family="Times,serif" font-size="14.00" fill="#000000">{__rpc_get_time_offset}</text>
</g>
<!-- Node0x8056ae440&#45;&gt;Node0x8056ae4a0 -->
<g id="edge41" class="edge">
<title>Node0x8056ae440&#45;&gt;Node0x8056ae4a0</title>
<path fill="none" stroke="#000000" stroke-opacity="0.200000" d="M3061.6915,-453.8314C3061.6915,-446.131 3061.6915,-436.9743 3061.6915,-428.4166"/>
<polygon fill="#000000" fill-opacity="0.200000" stroke="#000000" stroke-opacity="0.200000" points="3065.1916,-428.4132 3061.6915,-418.4133 3058.1916,-428.4133 3065.1916,-428.4132"/>
</g>
<!-- Node0x8056a6620 -->
<g id="node42" class="node">
<title>Node0x8056a6620</title>
<ellipse fill="none" stroke="#000000" cx="95.6915" cy="-400" rx="71.2693" ry="18"/>
<text text-anchor="middle" x="95.6915" y="-395.8" font-family="Times,serif" font-size="14.00" fill="#000000">{authdes_create}</text>
</g>
<!-- Node0x8056a6620&#45;&gt;Node0x8056a6680 -->
<g id="edge42" class="edge">
<title>Node0x8056a6620&#45;&gt;Node0x8056a6680</title>
<path fill="none" stroke="#000000" stroke-opacity="0.200000" d="M95.6915,-381.8314C95.6915,-374.131 95.6915,-364.9743 95.6915,-356.4166"/>
<polygon fill="#000000" fill-opacity="0.200000" stroke="#000000" stroke-opacity="0.200000" points="99.1916,-356.4132 95.6915,-346.4133 92.1916,-356.4133 99.1916,-356.4132"/>
</g>
<!-- Node0x8056273a0&#45;&gt;Node0x805625d80 -->
<g id="edge43" class="edge">
<title>Node0x8056273a0&#45;&gt;Node0x805625d80</title>
<path fill="none" stroke="#000000" stroke-opacity="0.200000" d="M3067.9076,-243.4682C3057.545,-241.4623 3046.8215,-239.5426 3036.6915,-238 2873.6188,-213.1666 2680.2197,-196.5206 2580.1773,-188.8524"/>
<polygon fill="#000000" fill-opacity="0.200000" stroke="#000000" stroke-opacity="0.200000" points="2580.1488,-185.3402 2569.9123,-188.072 2579.6181,-192.3201 2580.1488,-185.3402"/>
</g>
<!-- Node0x8056310c0 -->
<g id="node44" class="node">
<title>Node0x8056310c0</title>
<ellipse fill="none" stroke="#000000" cx="3312.6915" cy="-256" rx="89.1537" ry="18"/>
<text text-anchor="middle" x="3312.6915" y="-251.8" font-family="Times,serif" font-size="14.00" fill="#000000">{_dns_getnetbyname}</text>
</g>
<!-- Node0x8056310c0&#45;&gt;Node0x805625d80 -->
<g id="edge44" class="edge">
<title>Node0x8056310c0&#45;&gt;Node0x805625d80</title>
<path fill="none" stroke="#000000" stroke-opacity="0.200000" d="M3249.0576,-243.3115C3237.6478,-241.3223 3225.8418,-239.4488 3214.6915,-238 2983.3097,-207.9356 2706.6858,-192.6828 2580.9318,-186.8685"/>
<polygon fill="#000000" fill-opacity="0.200000" stroke="#000000" stroke-opacity="0.200000" points="2580.8375,-183.3606 2570.6881,-186.4004 2580.5179,-190.3533 2580.8375,-183.3606"/>
</g>
<!-- Node0x8056a6500 -->
<g id="node45" class="node">
<title>Node0x8056a6500</title>
<ellipse fill="none" stroke="#000000" cx="281.6915" cy="-328" rx="70.3263" ry="18"/>
<text text-anchor="middle" x="281.6915" y="-323.8" font-family="Times,serif" font-size="14.00" fill="#000000">{clnt_broadcast}</text>
</g>
<!-- Node0x8056a6500&#45;&gt;Node0x805697ee0 -->
<g id="edge45" class="edge">
<title>Node0x8056a6500&#45;&gt;Node0x805697ee0</title>
<path fill="none" stroke="#000000" stroke-opacity="0.200000" d="M281.6915,-309.8314C281.6915,-302.131 281.6915,-292.9743 281.6915,-284.4166"/>
<polygon fill="#000000" fill-opacity="0.200000" stroke="#000000" stroke-opacity="0.200000" points="285.1916,-284.4132 281.6915,-274.4133 278.1916,-284.4133 285.1916,-284.4132"/>
</g>
</g>
</svg>
