<?xml version="1.0" encoding="UTF-8" standalone="no"?>
<!DOCTYPE svg PUBLIC "-//W3C//DTD SVG 1.1//EN"
 "http://www.w3.org/Graphics/SVG/1.1/DTD/svg11.dtd">
<!-- Generated by graphviz version 2.40.1 (20161225.0304)
 -->
<!-- Title: Call graph Pages: 1 -->
<svg width="879pt" height="354pt"
 viewBox="0.00 0.00 878.67 354.00" xmlns="http://www.w3.org/2000/svg" xmlns:xlink="http://www.w3.org/1999/xlink">
<g id="graph0" class="graph" transform="scale(1 1) rotate(0) translate(4 350)">
<title>Call graph</title>
<polygon fill="#ffffff" stroke="transparent" points="-4,4 -4,-350 874.6685,-350 874.6685,4 -4,4"/>
<text text-anchor="middle" x="435.3342" y="-6.8" font-family="Times,serif" font-size="14.00" fill="#000000">Call graph</text>
<!-- Node0x803d2d300 -->
<g id="node1" class="node">
<title>Node0x803d2d300</title>
<ellipse fill="none" stroke="#000000" cx="610.032" cy="-184" rx="50.0812" ry="18"/>
<text text-anchor="middle" x="610.032" y="-179.8" font-family="Times,serif" font-size="14.00" fill="#000000">{fts_build}</text>
</g>
<!-- Node0x803d2d2a0 -->
<g id="node2" class="node">
<title>Node0x803d2d2a0</title>
<ellipse fill="none" stroke="#000000" cx="764.032" cy="-112" rx="85.2686" ry="18"/>
<text text-anchor="middle" x="764.032" y="-107.8" font-family="Times,serif" font-size="14.00" fill="#000000">{fts_safe_changedir}</text>
</g>
<!-- Node0x803d2d300&#45;&gt;Node0x803d2d2a0 -->
<g id="edge1" class="edge">
<title>Node0x803d2d300&#45;&gt;Node0x803d2d2a0</title>
<path fill="none" stroke="#000000" stroke-opacity="0.200000" d="M640.826,-169.6028C663.3196,-159.0863 694.1611,-144.6669 719.3591,-132.886"/>
<polygon fill="#000000" fill-opacity="0.200000" stroke="#000000" stroke-opacity="0.200000" points="721.1346,-135.9196 728.7111,-128.5137 718.1699,-129.5784 721.1346,-135.9196"/>
</g>
<!-- Node0x803d2d1e0 -->
<g id="node3" class="node">
<title>Node0x803d2d1e0</title>
<ellipse fill="none" stroke="#000000" cx="407.032" cy="-40" rx="39.9245" ry="18"/>
<text text-anchor="middle" x="407.032" y="-35.8" font-family="Times,serif" font-size="14.00" fill="#000000">{fchdir}</text>
</g>
<!-- Node0x803d2d300&#45;&gt;Node0x803d2d1e0 -->
<g id="edge2" class="edge">
<title>Node0x803d2d300&#45;&gt;Node0x803d2d1e0</title>
<path fill="none" stroke="#000000" stroke-opacity="0.200000" d="M570.9147,-172.6718C544.4613,-163.7913 509.6349,-149.6334 483.032,-130 458.9514,-112.2282 437.5664,-85.364 423.6643,-65.6105"/>
<polygon fill="#000000" fill-opacity="0.200000" stroke="#000000" stroke-opacity="0.200000" points="426.5455,-63.6232 417.9997,-57.3606 420.7749,-67.5856 426.5455,-63.6232"/>
</g>
<!-- Node0x803d2d2a0&#45;&gt;Node0x803d2d1e0 -->
<g id="edge9" class="edge">
<title>Node0x803d2d2a0&#45;&gt;Node0x803d2d1e0</title>
<path fill="none" stroke="#000000" stroke-opacity="0.200000" d="M702.2549,-99.5408C631.553,-85.2816 517.3448,-62.248 453.69,-49.41"/>
<polygon fill="#000000" fill-opacity="0.200000" stroke="#000000" stroke-opacity="0.200000" points="454.0398,-45.9102 443.5452,-47.364 452.6559,-52.772 454.0398,-45.9102"/>
</g>
<!-- Node0x80814c060 -->
<g id="node4" class="node">
<title>Node0x80814c060</title>
<ellipse fill="none" stroke="#000000" cx="294.032" cy="-184" rx="65.5333" ry="18"/>
<text text-anchor="middle" x="294.032" y="-179.8" font-family="Times,serif" font-size="14.00" fill="#000000">{fts_build.667}</text>
</g>
<!-- Node0x80814c060&#45;&gt;Node0x803d2d1e0 -->
<g id="edge4" class="edge">
<title>Node0x80814c060&#45;&gt;Node0x803d2d1e0</title>
<path fill="none" stroke="#000000" stroke-opacity="0.200000" d="M307.888,-166.3428C327.7345,-141.0516 364.3643,-94.373 387.1138,-65.3824"/>
<polygon fill="#000000" fill-opacity="0.200000" stroke="#000000" stroke-opacity="0.200000" points="389.9956,-67.3796 393.4156,-57.3519 384.4887,-63.0582 389.9956,-67.3796"/>
</g>
<!-- Node0x80814c000 -->
<g id="node5" class="node">
<title>Node0x80814c000</title>
<ellipse fill="none" stroke="#000000" cx="222.032" cy="-112" rx="100.2535" ry="18"/>
<text text-anchor="middle" x="222.032" y="-107.8" font-family="Times,serif" font-size="14.00" fill="#000000">{fts_safe_changedir.666}</text>
</g>
<!-- Node0x80814c060&#45;&gt;Node0x80814c000 -->
<g id="edge3" class="edge">
<title>Node0x80814c060&#45;&gt;Node0x80814c000</title>
<path fill="none" stroke="#000000" stroke-opacity="0.200000" d="M276.6028,-166.5708C267.7146,-157.6827 256.7468,-146.7148 246.9806,-136.9486"/>
<polygon fill="#000000" fill-opacity="0.200000" stroke="#000000" stroke-opacity="0.200000" points="249.3468,-134.3651 239.8008,-129.7689 244.3971,-139.3149 249.3468,-134.3651"/>
</g>
<!-- Node0x80814c000&#45;&gt;Node0x803d2d1e0 -->
<g id="edge8" class="edge">
<title>Node0x80814c000&#45;&gt;Node0x803d2d1e0</title>
<path fill="none" stroke="#000000" stroke-opacity="0.200000" d="M264.4747,-95.4817C295.47,-83.4187 337.1961,-67.1794 367.4918,-55.3886"/>
<polygon fill="#000000" fill-opacity="0.200000" stroke="#000000" stroke-opacity="0.200000" points="368.8487,-58.6163 376.8984,-51.7277 366.3098,-52.0929 368.8487,-58.6163"/>
</g>
<!-- Node0x803d2d240 -->
<g id="node6" class="node">
<title>Node0x803d2d240</title>
<ellipse fill="none" stroke="#000000" cx="695.032" cy="-256" rx="47.1569" ry="18"/>
<text text-anchor="middle" x="695.032" y="-251.8" font-family="Times,serif" font-size="14.00" fill="#000000">{fts_read}</text>
</g>
<!-- Node0x803d2d240&#45;&gt;Node0x803d2d300 -->
<g id="edge5" class="edge">
<title>Node0x803d2d240&#45;&gt;Node0x803d2d300</title>
<path fill="none" stroke="#000000" stroke-opacity="0.200000" d="M675.3176,-239.3008C664.0531,-229.7591 649.7566,-217.6491 637.4154,-207.1954"/>
<polygon fill="#000000" fill-opacity="0.200000" stroke="#000000" stroke-opacity="0.200000" points="639.5321,-204.4015 629.6394,-200.6087 635.0077,-209.7428 639.5321,-204.4015"/>
</g>
<!-- Node0x803d2d240&#45;&gt;Node0x803d2d2a0 -->
<g id="edge6" class="edge">
<title>Node0x803d2d240&#45;&gt;Node0x803d2d2a0</title>
<path fill="none" stroke="#000000" stroke-opacity="0.200000" d="M703.6313,-238.0535C715.5107,-213.2618 737.045,-168.3207 750.9326,-139.3378"/>
<polygon fill="#000000" fill-opacity="0.200000" stroke="#000000" stroke-opacity="0.200000" points="754.1593,-140.7033 755.3242,-130.1727 747.8466,-137.6784 754.1593,-140.7033"/>
</g>
<!-- Node0x803d2d240&#45;&gt;Node0x803d2d1e0 -->
<g id="edge7" class="edge">
<title>Node0x803d2d240&#45;&gt;Node0x803d2d1e0</title>
<path fill="none" stroke="#000000" stroke-opacity="0.200000" d="M727.1819,-242.7013C788.0664,-215.7268 909.6717,-152.1916 858.032,-94 831.7335,-64.3649 568.7656,-47.9792 456.9369,-42.3044"/>
<polygon fill="#000000" fill-opacity="0.200000" stroke="#000000" stroke-opacity="0.200000" points="457.0793,-38.8073 446.9172,-41.8042 456.7302,-45.7986 457.0793,-38.8073"/>
</g>
<!-- Node0x80813dd20 -->
<g id="node7" class="node">
<title>Node0x80813dd20</title>
<ellipse fill="none" stroke="#000000" cx="331.032" cy="-328" rx="34.6138" ry="18"/>
<text text-anchor="middle" x="331.032" y="-323.8" font-family="Times,serif" font-size="14.00" fill="#000000">{nftw}</text>
</g>
<!-- Node0x80813dd20&#45;&gt;Node0x803d2d240 -->
<g id="edge11" class="edge">
<title>Node0x80813dd20&#45;&gt;Node0x803d2d240</title>
<path fill="none" stroke="#000000" stroke-opacity="0.200000" d="M365.0755,-323.592C422.1973,-315.8488 540.7422,-298.2907 639.032,-274 642.666,-273.1019 646.4075,-272.0919 650.1512,-271.0206"/>
<polygon fill="#000000" fill-opacity="0.200000" stroke="#000000" stroke-opacity="0.200000" points="651.4165,-274.2954 659.9937,-268.0758 649.41,-267.5891 651.4165,-274.2954"/>
</g>
<!-- Node0x803d2d180 -->
<g id="node8" class="node">
<title>Node0x803d2d180</title>
<ellipse fill="none" stroke="#000000" cx="50.032" cy="-256" rx="50.0639" ry="18"/>
<text text-anchor="middle" x="50.032" y="-251.8" font-family="Times,serif" font-size="14.00" fill="#000000">{fts_close}</text>
</g>
<!-- Node0x80813dd20&#45;&gt;Node0x803d2d180 -->
<g id="edge10" class="edge">
<title>Node0x80813dd20&#45;&gt;Node0x803d2d180</title>
<path fill="none" stroke="#000000" stroke-opacity="0.200000" d="M299.0588,-320.7358C255.9621,-310.8195 176.9191,-292.1917 110.032,-274 106.018,-272.9083 101.864,-271.741 97.7015,-270.545"/>
<polygon fill="#000000" fill-opacity="0.200000" stroke="#000000" stroke-opacity="0.200000" points="98.6154,-267.1658 88.0353,-267.7245 96.6546,-273.8856 98.6154,-267.1658"/>
</g>
<!-- Node0x803d2d180&#45;&gt;Node0x803d2d1e0 -->
<g id="edge16" class="edge">
<title>Node0x803d2d180&#45;&gt;Node0x803d2d1e0</title>
<path fill="none" stroke="#000000" stroke-opacity="0.200000" d="M49.6452,-237.9767C49.9769,-204.2369 55.8742,-131.5668 98.032,-94 135.6301,-60.4964 280.179,-47.2177 357.5227,-42.4277"/>
<polygon fill="#000000" fill-opacity="0.200000" stroke="#000000" stroke-opacity="0.200000" points="357.7438,-45.9208 367.5182,-41.8327 357.3279,-38.9332 357.7438,-45.9208"/>
</g>
<!-- Node0x808144fa0 -->
<g id="node9" class="node">
<title>Node0x808144fa0</title>
<ellipse fill="none" stroke="#000000" cx="200.032" cy="-256" rx="81.4441" ry="18"/>
<text text-anchor="middle" x="200.032" y="-251.8" font-family="Times,serif" font-size="14.00" fill="#000000">{__fts_read_44bsd}</text>
</g>
<!-- Node0x808144fa0&#45;&gt;Node0x803d2d1e0 -->
<g id="edge13" class="edge">
<title>Node0x808144fa0&#45;&gt;Node0x803d2d1e0</title>
<path fill="none" stroke="#000000" stroke-opacity="0.200000" d="M177.9242,-238.5418C140.937,-207.2664 74.2087,-140.6035 113.032,-94 143.5267,-57.3941 281.5211,-45.5192 357.1213,-41.7305"/>
<polygon fill="#000000" fill-opacity="0.200000" stroke="#000000" stroke-opacity="0.200000" points="357.533,-45.2151 367.357,-41.2479 357.2033,-38.2229 357.533,-45.2151"/>
</g>
<!-- Node0x808144fa0&#45;&gt;Node0x80814c060 -->
<g id="edge14" class="edge">
<title>Node0x808144fa0&#45;&gt;Node0x80814c060</title>
<path fill="none" stroke="#000000" stroke-opacity="0.200000" d="M222.7867,-238.5708C235.1157,-229.1273 250.5098,-217.3361 263.8308,-207.1328"/>
<polygon fill="#000000" fill-opacity="0.200000" stroke="#000000" stroke-opacity="0.200000" points="266.0006,-209.8796 271.8111,-201.0202 261.744,-204.3225 266.0006,-209.8796"/>
</g>
<!-- Node0x808144fa0&#45;&gt;Node0x80814c000 -->
<g id="edge12" class="edge">
<title>Node0x808144fa0&#45;&gt;Node0x80814c000</title>
<path fill="none" stroke="#000000" stroke-opacity="0.200000" d="M202.8183,-237.7623C206.5707,-213.201 213.2858,-169.2474 217.7001,-140.3541"/>
<polygon fill="#000000" fill-opacity="0.200000" stroke="#000000" stroke-opacity="0.200000" points="221.2178,-140.5035 219.2683,-130.0896 214.2981,-139.4463 221.2178,-140.5035"/>
</g>
<!-- Node0x808144f40 -->
<g id="node10" class="node">
<title>Node0x808144f40</title>
<ellipse fill="none" stroke="#000000" cx="576.032" cy="-112" rx="84.3513" ry="18"/>
<text text-anchor="middle" x="576.032" y="-107.8" font-family="Times,serif" font-size="14.00" fill="#000000">{__fts_close_44bsd}</text>
</g>
<!-- Node0x808144f40&#45;&gt;Node0x803d2d1e0 -->
<g id="edge15" class="edge">
<title>Node0x808144f40&#45;&gt;Node0x803d2d1e0</title>
<path fill="none" stroke="#000000" stroke-opacity="0.200000" d="M538.1051,-95.8418C510.5089,-84.0849 473.2752,-68.222 445.5441,-56.4076"/>
<polygon fill="#000000" fill-opacity="0.200000" stroke="#000000" stroke-opacity="0.200000" points="446.7347,-53.1104 436.163,-52.4109 443.991,-59.5503 446.7347,-53.1104"/>
</g>
<!-- Node0x803d2d600 -->
<g id="node11" class="node">
<title>Node0x803d2d600</title>
<ellipse fill="none" stroke="#000000" cx="569.032" cy="-256" rx="60.6721" ry="18"/>
<text text-anchor="middle" x="569.032" y="-251.8" font-family="Times,serif" font-size="14.00" fill="#000000">{fts_children}</text>
</g>
<!-- Node0x803d2d600&#45;&gt;Node0x803d2d300 -->
<g id="edge17" class="edge">
<title>Node0x803d2d600&#45;&gt;Node0x803d2d300</title>
<path fill="none" stroke="#000000" stroke-opacity="0.200000" d="M579.1668,-238.2022C583.8976,-229.8944 589.6279,-219.8316 594.8604,-210.6427"/>
<polygon fill="#000000" fill-opacity="0.200000" stroke="#000000" stroke-opacity="0.200000" points="597.9646,-212.2644 599.8716,-201.8425 591.8817,-208.8005 597.9646,-212.2644"/>
</g>
<!-- Node0x803d2d600&#45;&gt;Node0x803d2d1e0 -->
<g id="edge18" class="edge">
<title>Node0x803d2d600&#45;&gt;Node0x803d2d1e0</title>
<path fill="none" stroke="#000000" stroke-opacity="0.200000" d="M546.9264,-239.0263C519.128,-216.6833 471.4838,-174.9412 442.032,-130 429.3938,-110.7152 420.2333,-86.1756 414.4614,-67.5932"/>
<polygon fill="#000000" fill-opacity="0.200000" stroke="#000000" stroke-opacity="0.200000" points="417.8016,-66.546 411.6028,-57.9538 411.0904,-68.5362 417.8016,-66.546"/>
</g>
<!-- Node0x803d2d780 -->
<g id="node12" class="node">
<title>Node0x803d2d780</title>
<ellipse fill="none" stroke="#000000" cx="554.032" cy="-328" rx="30.2697" ry="18"/>
<text text-anchor="middle" x="554.032" y="-323.8" font-family="Times,serif" font-size="14.00" fill="#000000">{ftw}</text>
</g>
<!-- Node0x803d2d780&#45;&gt;Node0x803d2d240 -->
<g id="edge20" class="edge">
<title>Node0x803d2d780&#45;&gt;Node0x803d2d240</title>
<path fill="none" stroke="#000000" stroke-opacity="0.200000" d="M577.3152,-316.1107C599.1199,-304.9764 632.0769,-288.1472 657.5784,-275.1252"/>
<polygon fill="#000000" fill-opacity="0.200000" stroke="#000000" stroke-opacity="0.200000" points="659.2876,-278.1824 666.6019,-270.5175 656.1041,-271.9482 659.2876,-278.1824"/>
</g>
<!-- Node0x803d2d780&#45;&gt;Node0x803d2d180 -->
<g id="edge19" class="edge">
<title>Node0x803d2d780&#45;&gt;Node0x803d2d180</title>
<path fill="none" stroke="#000000" stroke-opacity="0.200000" d="M523.907,-325.0133C437.4854,-316.3377 189.838,-290.6968 110.032,-274 105.8406,-273.1231 101.5191,-272.0901 97.2067,-270.9698"/>
<polygon fill="#000000" fill-opacity="0.200000" stroke="#000000" stroke-opacity="0.200000" points="97.7963,-267.5022 87.2264,-268.2296 95.9429,-274.2524 97.7963,-267.5022"/>
</g>
<!-- Node0x80814c240 -->
<g id="node13" class="node">
<title>Node0x80814c240</title>
<ellipse fill="none" stroke="#000000" cx="395.032" cy="-256" rx="95.4596" ry="18"/>
<text text-anchor="middle" x="395.032" y="-251.8" font-family="Times,serif" font-size="14.00" fill="#000000">{__fts_children_44bsd}</text>
</g>
<!-- Node0x80814c240&#45;&gt;Node0x803d2d1e0 -->
<g id="edge21" class="edge">
<title>Node0x80814c240&#45;&gt;Node0x803d2d1e0</title>
<path fill="none" stroke="#000000" stroke-opacity="0.200000" d="M396.0344,-237.9555C398.1212,-200.3938 402.9456,-113.5541 405.4536,-68.4103"/>
<polygon fill="#000000" fill-opacity="0.200000" stroke="#000000" stroke-opacity="0.200000" points="408.9637,-68.3238 406.0239,-58.1451 401.9745,-67.9355 408.9637,-68.3238"/>
</g>
<!-- Node0x80814c240&#45;&gt;Node0x80814c060 -->
<g id="edge22" class="edge">
<title>Node0x80814c240&#45;&gt;Node0x80814c060</title>
<path fill="none" stroke="#000000" stroke-opacity="0.200000" d="M370.5827,-238.5708C357.2106,-229.0383 340.4828,-217.1134 326.0777,-206.8445"/>
<polygon fill="#000000" fill-opacity="0.200000" stroke="#000000" stroke-opacity="0.200000" points="328.082,-203.9751 317.9076,-201.0202 324.0187,-209.675 328.082,-203.9751"/>
</g>
</g>
</svg>
