<?xml version="1.0" encoding="UTF-8" standalone="no"?>
<!DOCTYPE svg PUBLIC "-//W3C//DTD SVG 1.1//EN"
 "http://www.w3.org/Graphics/SVG/1.1/DTD/svg11.dtd">
<!-- Generated by graphviz version 2.40.1 (20161225.0304)
 -->
<!-- Title: Call graph Pages: 1 -->
<svg width="324pt" height="210pt"
 viewBox="0.00 0.00 323.70 210.00" xmlns="http://www.w3.org/2000/svg" xmlns:xlink="http://www.w3.org/1999/xlink">
<g id="graph0" class="graph" transform="scale(1 1) rotate(0) translate(4 206)">
<title>Call graph</title>
<polygon fill="#ffffff" stroke="transparent" points="-4,4 -4,-206 319.6998,-206 319.6998,4 -4,4"/>
<text text-anchor="middle" x="157.8499" y="-6.8" font-family="Times,serif" font-size="14.00" fill="#000000">Call graph</text>
<!-- Node0x805699bc0 -->
<g id="node1" class="node">
<title>Node0x805699bc0</title>
<ellipse fill="none" stroke="#000000" cx="201.4407" cy="-112" rx="74.1763" ry="18"/>
<text text-anchor="middle" x="201.4407" y="-107.8" font-family="Times,serif" font-size="14.00" fill="#000000">{_rpc_dtablesize}</text>
</g>
<!-- Node0x80565b940 -->
<g id="node2" class="node">
<title>Node0x80565b940</title>
<ellipse fill="none" stroke="#000000" cx="127.4407" cy="-40" rx="64.5143" ry="18"/>
<text text-anchor="middle" x="127.4407" y="-35.8" font-family="Times,serif" font-size="14.00" fill="#000000">{getdtablesize}</text>
</g>
<!-- Node0x805699bc0&#45;&gt;Node0x80565b940 -->
<g id="edge1" class="edge">
<title>Node0x805699bc0&#45;&gt;Node0x80565b940</title>
<path fill="none" stroke="#000000" stroke-opacity="0.200000" d="M183.1486,-94.2022C173.9399,-85.2425 162.6332,-74.2414 152.618,-64.4968"/>
<polygon fill="#000000" fill-opacity="0.200000" stroke="#000000" stroke-opacity="0.200000" points="154.8752,-61.8096 145.2671,-57.3446 149.9936,-66.8267 154.8752,-61.8096"/>
</g>
<!-- Node0x8056ae440 -->
<g id="node3" class="node">
<title>Node0x8056ae440</title>
<ellipse fill="none" stroke="#000000" cx="124.4407" cy="-184" rx="98.4966" ry="18"/>
<text text-anchor="middle" x="124.4407" y="-179.8" font-family="Times,serif" font-size="14.00" fill="#000000">{__rpc_get_time_offset}</text>
</g>
<!-- Node0x8056ae440&#45;&gt;Node0x805699bc0 -->
<g id="edge2" class="edge">
<title>Node0x8056ae440&#45;&gt;Node0x805699bc0</title>
<path fill="none" stroke="#000000" stroke-opacity="0.200000" d="M143.4745,-166.2022C153.0787,-157.2217 164.8762,-146.1902 175.3154,-136.4289"/>
<polygon fill="#000000" fill-opacity="0.200000" stroke="#000000" stroke-opacity="0.200000" points="177.7122,-138.9795 182.626,-129.593 172.9312,-133.8665 177.7122,-138.9795"/>
</g>
<!-- Node0x80565b8e0 -->
<g id="node4" class="node">
<title>Node0x80565b8e0</title>
<ellipse fill="none" stroke="#000000" cx="54.4407" cy="-112" rx="54.3815" ry="18"/>
<text text-anchor="middle" x="54.4407" y="-107.8" font-family="Times,serif" font-size="14.00" fill="#000000">{f_prealloc}</text>
</g>
<!-- Node0x80565b8e0&#45;&gt;Node0x80565b940 -->
<g id="edge3" class="edge">
<title>Node0x80565b8e0&#45;&gt;Node0x80565b940</title>
<path fill="none" stroke="#000000" stroke-opacity="0.200000" d="M72.112,-94.5708C81.1908,-85.6164 92.4099,-74.551 102.3671,-64.7302"/>
<polygon fill="#000000" fill-opacity="0.200000" stroke="#000000" stroke-opacity="0.200000" points="105.0173,-67.0323 109.6792,-57.5182 100.1017,-62.0485 105.0173,-67.0323"/>
</g>
<!-- Node0x8056afd60 -->
<g id="node5" class="node">
<title>Node0x8056afd60</title>
<ellipse fill="none" stroke="#000000" cx="278.4407" cy="-184" rx="37.0196" ry="18"/>
<text text-anchor="middle" x="278.4407" y="-179.8" font-family="Times,serif" font-size="14.00" fill="#000000">{rtime}</text>
</g>
<!-- Node0x8056afd60&#45;&gt;Node0x805699bc0 -->
<g id="edge4" class="edge">
<title>Node0x8056afd60&#45;&gt;Node0x805699bc0</title>
<path fill="none" stroke="#000000" stroke-opacity="0.200000" d="M260.9682,-167.6621C251.09,-158.4253 238.5477,-146.6974 227.5257,-136.3911"/>
<polygon fill="#000000" fill-opacity="0.200000" stroke="#000000" stroke-opacity="0.200000" points="229.8841,-133.8047 220.1894,-129.5312 225.1031,-138.9176 229.8841,-133.8047"/>
</g>
</g>
</svg>
