<?xml version="1.0" encoding="UTF-8" standalone="no"?>
<!DOCTYPE svg PUBLIC "-//W3C//DTD SVG 1.1//EN"
 "http://www.w3.org/Graphics/SVG/1.1/DTD/svg11.dtd">
<!-- Generated by graphviz version 2.40.1 (20161225.0304)
 -->
<!-- Title: Call graph Pages: 1 -->
<svg width="258pt" height="210pt"
 viewBox="0.00 0.00 258.37 210.00" xmlns="http://www.w3.org/2000/svg" xmlns:xlink="http://www.w3.org/1999/xlink">
<g id="graph0" class="graph" transform="scale(1 1) rotate(0) translate(4 206)">
<title>Call graph</title>
<polygon fill="#ffffff" stroke="transparent" points="-4,4 -4,-206 254.3683,-206 254.3683,4 -4,4"/>
<text text-anchor="middle" x="125.1842" y="-6.8" font-family="Times,serif" font-size="14.00" fill="#000000">Call graph</text>
<!-- Node0x80814e1c0 -->
<g id="node1" class="node">
<title>Node0x80814e1c0</title>
<ellipse fill="none" stroke="#000000" cx="125.1842" cy="-184" rx="105.0891" ry="18"/>
<text text-anchor="middle" x="125.1842" y="-179.8" font-family="Times,serif" font-size="14.00" fill="#000000">{_libc_sem_wait_compat}</text>
</g>
<!-- Node0x80814dce0 -->
<g id="node2" class="node">
<title>Node0x80814dce0</title>
<ellipse fill="none" stroke="#000000" cx="125.1842" cy="-112" rx="125.3686" ry="18"/>
<text text-anchor="middle" x="125.1842" y="-107.8" font-family="Times,serif" font-size="14.00" fill="#000000">{_libc_sem_timedwait_compat}</text>
</g>
<!-- Node0x80814e1c0&#45;&gt;Node0x80814dce0 -->
<g id="edge1" class="edge">
<title>Node0x80814e1c0&#45;&gt;Node0x80814dce0</title>
<path fill="none" stroke="#000000" stroke-opacity="0.200000" d="M125.1842,-165.8314C125.1842,-158.131 125.1842,-148.9743 125.1842,-140.4166"/>
<polygon fill="#000000" fill-opacity="0.200000" stroke="#000000" stroke-opacity="0.200000" points="128.6843,-140.4132 125.1842,-130.4133 121.6843,-140.4133 128.6843,-140.4132"/>
</g>
<!-- Node0x80814dda0 -->
<g id="node3" class="node">
<title>Node0x80814dda0</title>
<ellipse fill="none" stroke="#000000" cx="125.1842" cy="-40" rx="56.8215" ry="18"/>
<text text-anchor="middle" x="125.1842" y="-35.8" font-family="Times,serif" font-size="14.00" fill="#000000">{ksem_wait}</text>
</g>
<!-- Node0x80814dce0&#45;&gt;Node0x80814dda0 -->
<g id="edge2" class="edge">
<title>Node0x80814dce0&#45;&gt;Node0x80814dda0</title>
<path fill="none" stroke="#000000" stroke-opacity="0.200000" d="M125.1842,-93.8314C125.1842,-86.131 125.1842,-76.9743 125.1842,-68.4166"/>
<polygon fill="#000000" fill-opacity="0.200000" stroke="#000000" stroke-opacity="0.200000" points="128.6843,-68.4132 125.1842,-58.4133 121.6843,-68.4133 128.6843,-68.4132"/>
</g>
</g>
</svg>
