<?xml version="1.0" encoding="UTF-8" standalone="no"?>
<!DOCTYPE svg PUBLIC "-//W3C//DTD SVG 1.1//EN"
 "http://www.w3.org/Graphics/SVG/1.1/DTD/svg11.dtd">
<!-- Generated by graphviz version 2.40.1 (20161225.0304)
 -->
<!-- Title: Call graph Pages: 1 -->
<svg width="482pt" height="210pt"
 viewBox="0.00 0.00 482.47 210.00" xmlns="http://www.w3.org/2000/svg" xmlns:xlink="http://www.w3.org/1999/xlink">
<g id="graph0" class="graph" transform="scale(1 1) rotate(0) translate(4 206)">
<title>Call graph</title>
<polygon fill="#ffffff" stroke="transparent" points="-4,4 -4,-206 478.4662,-206 478.4662,4 -4,4"/>
<text text-anchor="middle" x="237.2331" y="-6.8" font-family="Times,serif" font-size="14.00" fill="#000000">Call graph</text>
<!-- Node0x80813e7a0 -->
<g id="node1" class="node">
<title>Node0x80813e7a0</title>
<ellipse fill="none" stroke="#000000" cx="333.6879" cy="-112" rx="78.087" ry="18"/>
<text text-anchor="middle" x="333.6879" y="-107.8" font-family="Times,serif" font-size="14.00" fill="#000000">{do_posix_spawn}</text>
</g>
<!-- Node0x80813e620 -->
<g id="node2" class="node">
<title>Node0x80813e620</title>
<ellipse fill="none" stroke="#000000" cx="197.6879" cy="-40" rx="37.5042" ry="18"/>
<text text-anchor="middle" x="197.6879" y="-35.8" font-family="Times,serif" font-size="14.00" fill="#000000">{vfork}</text>
</g>
<!-- Node0x80813e7a0&#45;&gt;Node0x80813e620 -->
<g id="edge1" class="edge">
<title>Node0x80813e7a0&#45;&gt;Node0x80813e620</title>
<path fill="none" stroke="#000000" stroke-opacity="0.200000" d="M302.4868,-95.4817C281.4894,-84.3655 253.7932,-69.7028 232.1467,-58.2429"/>
<polygon fill="#000000" fill-opacity="0.200000" stroke="#000000" stroke-opacity="0.200000" points="233.7528,-55.1329 223.2772,-53.5473 230.4775,-61.3195 233.7528,-55.1329"/>
</g>
<!-- Node0x80813ec20 -->
<g id="node3" class="node">
<title>Node0x80813ec20</title>
<ellipse fill="none" stroke="#000000" cx="257.6879" cy="-184" rx="69.4006" ry="18"/>
<text text-anchor="middle" x="257.6879" y="-179.8" font-family="Times,serif" font-size="14.00" fill="#000000">{posix_spawnp}</text>
</g>
<!-- Node0x80813ec20&#45;&gt;Node0x80813e7a0 -->
<g id="edge2" class="edge">
<title>Node0x80813ec20&#45;&gt;Node0x80813e7a0</title>
<path fill="none" stroke="#000000" stroke-opacity="0.200000" d="M276.0854,-166.5708C285.63,-157.5286 297.4467,-146.3338 307.8884,-136.4417"/>
<polygon fill="#000000" fill-opacity="0.200000" stroke="#000000" stroke-opacity="0.200000" points="310.344,-138.9366 315.1965,-129.5182 305.5298,-133.8549 310.344,-138.9366"/>
</g>
<!-- Node0x8056c9fe0 -->
<g id="node4" class="node">
<title>Node0x8056c9fe0</title>
<ellipse fill="none" stroke="#000000" cx="69.6879" cy="-112" rx="69.8764" ry="18"/>
<text text-anchor="middle" x="69.6879" y="-107.8" font-family="Times,serif" font-size="14.00" fill="#000000">{__libc_system}</text>
</g>
<!-- Node0x8056c9fe0&#45;&gt;Node0x80813e620 -->
<g id="edge3" class="edge">
<title>Node0x8056c9fe0&#45;&gt;Node0x80813e620</title>
<path fill="none" stroke="#000000" stroke-opacity="0.200000" d="M99.0537,-95.4817C118.5115,-84.5367 144.0813,-70.1537 164.3105,-58.7748"/>
<polygon fill="#000000" fill-opacity="0.200000" stroke="#000000" stroke-opacity="0.200000" points="166.1882,-61.7344 173.1881,-53.7812 162.7564,-55.6333 166.1882,-61.7344"/>
</g>
<!-- Node0x80813e560 -->
<g id="node5" class="node">
<title>Node0x80813e560</title>
<ellipse fill="none" stroke="#000000" cx="197.6879" cy="-112" rx="40.4177" ry="18"/>
<text text-anchor="middle" x="197.6879" y="-107.8" font-family="Times,serif" font-size="14.00" fill="#000000">{popen}</text>
</g>
<!-- Node0x80813e560&#45;&gt;Node0x80813e620 -->
<g id="edge4" class="edge">
<title>Node0x80813e560&#45;&gt;Node0x80813e620</title>
<path fill="none" stroke="#000000" stroke-opacity="0.200000" d="M197.6879,-93.8314C197.6879,-86.131 197.6879,-76.9743 197.6879,-68.4166"/>
<polygon fill="#000000" fill-opacity="0.200000" stroke="#000000" stroke-opacity="0.200000" points="201.188,-68.4132 197.6879,-58.4133 194.188,-68.4133 201.188,-68.4132"/>
</g>
<!-- Node0x80813e740 -->
<g id="node6" class="node">
<title>Node0x80813e740</title>
<ellipse fill="none" stroke="#000000" cx="409.6879" cy="-184" rx="64.5573" ry="18"/>
<text text-anchor="middle" x="409.6879" y="-179.8" font-family="Times,serif" font-size="14.00" fill="#000000">{posix_spawn}</text>
</g>
<!-- Node0x80813e740&#45;&gt;Node0x80813e7a0 -->
<g id="edge5" class="edge">
<title>Node0x80813e740&#45;&gt;Node0x80813e7a0</title>
<path fill="none" stroke="#000000" stroke-opacity="0.200000" d="M391.2905,-166.5708C381.7459,-157.5286 369.9292,-146.3338 359.4875,-136.4417"/>
<polygon fill="#000000" fill-opacity="0.200000" stroke="#000000" stroke-opacity="0.200000" points="361.8461,-133.8549 352.1794,-129.5182 357.0319,-138.9366 361.8461,-133.8549"/>
</g>
</g>
</svg>
