<?xml version="1.0" encoding="UTF-8" standalone="no"?>
<!DOCTYPE svg PUBLIC "-//W3C//DTD SVG 1.1//EN"
 "http://www.w3.org/Graphics/SVG/1.1/DTD/svg11.dtd">
<!-- Generated by graphviz version 2.40.1 (20161225.0304)
 -->
<!-- Title: Call graph Pages: 1 -->
<svg width="200pt" height="210pt"
 viewBox="0.00 0.00 200.28 210.00" xmlns="http://www.w3.org/2000/svg" xmlns:xlink="http://www.w3.org/1999/xlink">
<g id="graph0" class="graph" transform="scale(1 1) rotate(0) translate(4 206)">
<title>Call graph</title>
<polygon fill="#ffffff" stroke="transparent" points="-4,4 -4,-206 196.2823,-206 196.2823,4 -4,4"/>
<text text-anchor="middle" x="96.1412" y="-6.8" font-family="Times,serif" font-size="14.00" fill="#000000">Call graph</text>
<!-- Node0x8056c9260 -->
<g id="node1" class="node">
<title>Node0x8056c9260</title>
<ellipse fill="none" stroke="#000000" cx="47.0741" cy="-184" rx="47.1482" ry="18"/>
<text text-anchor="middle" x="47.0741" y="-179.8" font-family="Times,serif" font-size="14.00" fill="#000000">{realpath}</text>
</g>
<!-- Node0x807dc1ac0 -->
<g id="node2" class="node">
<title>Node0x807dc1ac0</title>
<ellipse fill="none" stroke="#000000" cx="99.0741" cy="-112" rx="44.2673" ry="18"/>
<text text-anchor="middle" x="99.0741" y="-107.8" font-family="Times,serif" font-size="14.00" fill="#000000">{getcwd}</text>
</g>
<!-- Node0x8056c9260&#45;&gt;Node0x807dc1ac0 -->
<g id="edge1" class="edge">
<title>Node0x8056c9260&#45;&gt;Node0x807dc1ac0</title>
<path fill="none" stroke="#000000" stroke-opacity="0.200000" d="M59.6618,-166.5708C65.9852,-157.8153 73.7661,-147.0418 80.7392,-137.3867"/>
<polygon fill="#000000" fill-opacity="0.200000" stroke="#000000" stroke-opacity="0.200000" points="83.5847,-139.4247 86.6022,-129.2687 77.9099,-135.3263 83.5847,-139.4247"/>
</g>
<!-- Node0x803d2de40 -->
<g id="node4" class="node">
<title>Node0x803d2de40</title>
<ellipse fill="none" stroke="#000000" cx="99.0741" cy="-40" rx="52.9538" ry="18"/>
<text text-anchor="middle" x="99.0741" y="-35.8" font-family="Times,serif" font-size="14.00" fill="#000000">{__getcwd}</text>
</g>
<!-- Node0x807dc1ac0&#45;&gt;Node0x803d2de40 -->
<g id="edge3" class="edge">
<title>Node0x807dc1ac0&#45;&gt;Node0x803d2de40</title>
<path fill="none" stroke="#000000" stroke-opacity="0.200000" d="M99.0741,-93.8314C99.0741,-86.131 99.0741,-76.9743 99.0741,-68.4166"/>
<polygon fill="#000000" fill-opacity="0.200000" stroke="#000000" stroke-opacity="0.200000" points="102.5742,-68.4132 99.0741,-58.4133 95.5742,-68.4133 102.5742,-68.4132"/>
</g>
<!-- Node0x807dc1a60 -->
<g id="node3" class="node">
<title>Node0x807dc1a60</title>
<ellipse fill="none" stroke="#000000" cx="152.0741" cy="-184" rx="40.4177" ry="18"/>
<text text-anchor="middle" x="152.0741" y="-179.8" font-family="Times,serif" font-size="14.00" fill="#000000">{getwd}</text>
</g>
<!-- Node0x807dc1a60&#45;&gt;Node0x807dc1ac0 -->
<g id="edge2" class="edge">
<title>Node0x807dc1a60&#45;&gt;Node0x807dc1ac0</title>
<path fill="none" stroke="#000000" stroke-opacity="0.200000" d="M139.2442,-166.5708C132.7992,-157.8153 124.8687,-147.0418 117.7615,-137.3867"/>
<polygon fill="#000000" fill-opacity="0.200000" stroke="#000000" stroke-opacity="0.200000" points="120.5326,-135.2472 111.7857,-129.2687 114.8953,-139.3969 120.5326,-135.2472"/>
</g>
</g>
</svg>
