<?xml version="1.0" encoding="UTF-8" standalone="no"?>
<!DOCTYPE svg PUBLIC "-//W3C//DTD SVG 1.1//EN"
 "http://www.w3.org/Graphics/SVG/1.1/DTD/svg11.dtd">
<!-- Generated by graphviz version 2.40.1 (20161225.0304)
 -->
<!-- Title: Call graph Pages: 1 -->
<svg width="456pt" height="138pt"
 viewBox="0.00 0.00 456.00 138.00" xmlns="http://www.w3.org/2000/svg" xmlns:xlink="http://www.w3.org/1999/xlink">
<g id="graph0" class="graph" transform="scale(1 1) rotate(0) translate(4 134)">
<title>Call graph</title>
<polygon fill="#ffffff" stroke="transparent" points="-4,4 -4,-134 451.9988,-134 451.9988,4 -4,4"/>
<text text-anchor="middle" x="223.9994" y="-6.8" font-family="Times,serif" font-size="14.00" fill="#000000">Call graph</text>
<!-- Node0x80814dbc0 -->
<g id="node1" class="node">
<title>Node0x80814dbc0</title>
<ellipse fill="none" stroke="#000000" cx="107.9895" cy="-112" rx="107.979" ry="18"/>
<text text-anchor="middle" x="107.9895" y="-107.8" font-family="Times,serif" font-size="14.00" fill="#000000">{_libc_sem_close_compat}</text>
</g>
<!-- Node0x80814db60 -->
<g id="node2" class="node">
<title>Node0x80814db60</title>
<ellipse fill="none" stroke="#000000" cx="223.9895" cy="-40" rx="59.7116" ry="18"/>
<text text-anchor="middle" x="223.9895" y="-35.8" font-family="Times,serif" font-size="14.00" fill="#000000">{ksem_close}</text>
</g>
<!-- Node0x80814dbc0&#45;&gt;Node0x80814db60 -->
<g id="edge1" class="edge">
<title>Node0x80814dbc0&#45;&gt;Node0x80814db60</title>
<path fill="none" stroke="#000000" stroke-opacity="0.200000" d="M136.0698,-94.5708C152.0575,-84.6474 172.2219,-72.1316 189.2055,-61.5901"/>
<polygon fill="#000000" fill-opacity="0.200000" stroke="#000000" stroke-opacity="0.200000" points="191.1072,-64.5291 197.7579,-56.2817 187.4157,-58.5816 191.1072,-64.5291"/>
</g>
<!-- Node0x80814daa0 -->
<g id="node3" class="node">
<title>Node0x80814daa0</title>
<ellipse fill="none" stroke="#000000" cx="340.9895" cy="-112" rx="107.0185" ry="18"/>
<text text-anchor="middle" x="340.9895" y="-107.8" font-family="Times,serif" font-size="14.00" fill="#000000">{_libc_sem_open_compat}</text>
</g>
<!-- Node0x80814daa0&#45;&gt;Node0x80814db60 -->
<g id="edge2" class="edge">
<title>Node0x80814daa0&#45;&gt;Node0x80814db60</title>
<path fill="none" stroke="#000000" stroke-opacity="0.200000" d="M312.667,-94.5708C296.5416,-84.6474 276.2034,-72.1316 259.0734,-61.5901"/>
<polygon fill="#000000" fill-opacity="0.200000" stroke="#000000" stroke-opacity="0.200000" points="260.7982,-58.5419 250.4472,-56.2817 257.1295,-64.5035 260.7982,-58.5419"/>
</g>
</g>
</svg>
