<?xml version="1.0" encoding="UTF-8" standalone="no"?>
<!DOCTYPE svg PUBLIC "-//W3C//DTD SVG 1.1//EN"
 "http://www.w3.org/Graphics/SVG/1.1/DTD/svg11.dtd">
<!-- Generated by graphviz version 2.40.1 (20161225.0304)
 -->
<!-- Title: Call graph Pages: 1 -->
<svg width="460pt" height="138pt"
 viewBox="0.00 0.00 460.46 138.00" xmlns="http://www.w3.org/2000/svg" xmlns:xlink="http://www.w3.org/1999/xlink">
<g id="graph0" class="graph" transform="scale(1 1) rotate(0) translate(4 134)">
<title>Call graph</title>
<polygon fill="#ffffff" stroke="transparent" points="-4,4 -4,-134 456.4644,-134 456.4644,4 -4,4"/>
<text text-anchor="middle" x="226.2322" y="-6.8" font-family="Times,serif" font-size="14.00" fill="#000000">Call graph</text>
<!-- Node0x80814d800 -->
<g id="node1" class="node">
<title>Node0x80814d800</title>
<ellipse fill="none" stroke="#000000" cx="101.6117" cy="-112" rx="101.7234" ry="18"/>
<text text-anchor="middle" x="101.6117" y="-107.8" font-family="Times,serif" font-size="14.00" fill="#000000">{_libc_sem_init_compat}</text>
</g>
<!-- Node0x80814d920 -->
<g id="node2" class="node">
<title>Node0x80814d920</title>
<ellipse fill="none" stroke="#000000" cx="218.6117" cy="-40" rx="67.9385" ry="18"/>
<text text-anchor="middle" x="218.6117" y="-35.8" font-family="Times,serif" font-size="14.00" fill="#000000">{ksem_destroy}</text>
</g>
<!-- Node0x80814d800&#45;&gt;Node0x80814d920 -->
<g id="edge1" class="edge">
<title>Node0x80814d800&#45;&gt;Node0x80814d920</title>
<path fill="none" stroke="#000000" stroke-opacity="0.200000" d="M129.9341,-94.5708C145.9444,-84.7183 166.1074,-72.3103 183.1602,-61.8163"/>
<polygon fill="#000000" fill-opacity="0.200000" stroke="#000000" stroke-opacity="0.200000" points="185.0735,-64.7486 191.7557,-56.5267 181.4048,-58.7869 185.0735,-64.7486"/>
</g>
<!-- Node0x80814d980 -->
<g id="node3" class="node">
<title>Node0x80814d980</title>
<ellipse fill="none" stroke="#000000" cx="336.6117" cy="-112" rx="115.7057" ry="18"/>
<text text-anchor="middle" x="336.6117" y="-107.8" font-family="Times,serif" font-size="14.00" fill="#000000">{_libc_sem_destroy_compat}</text>
</g>
<!-- Node0x80814d980&#45;&gt;Node0x80814d920 -->
<g id="edge2" class="edge">
<title>Node0x80814d980&#45;&gt;Node0x80814d920</title>
<path fill="none" stroke="#000000" stroke-opacity="0.200000" d="M307.7456,-94.3868C291.7094,-84.602 271.6134,-72.34 254.564,-61.937"/>
<polygon fill="#000000" fill-opacity="0.200000" stroke="#000000" stroke-opacity="0.200000" points="256.323,-58.9103 245.9636,-56.6893 252.6769,-64.8857 256.323,-58.9103"/>
</g>
</g>
</svg>
