<?xml version="1.0" encoding="UTF-8" standalone="no"?>
<!DOCTYPE svg PUBLIC "-//W3C//DTD SVG 1.1//EN"
 "http://www.w3.org/Graphics/SVG/1.1/DTD/svg11.dtd">
<!-- Generated by graphviz version 2.40.1 (20161225.0304)
 -->
<!-- Title: Call graph Pages: 1 -->
<svg width="168pt" height="210pt"
 viewBox="0.00 0.00 167.66 210.00" xmlns="http://www.w3.org/2000/svg" xmlns:xlink="http://www.w3.org/1999/xlink">
<g id="graph0" class="graph" transform="scale(1 1) rotate(0) translate(4 206)">
<title>Call graph</title>
<polygon fill="#ffffff" stroke="transparent" points="-4,4 -4,-206 163.6623,-206 163.6623,4 -4,4"/>
<text text-anchor="middle" x="79.8312" y="-6.8" font-family="Times,serif" font-size="14.00" fill="#000000">Call graph</text>
<!-- Node0x80813f760 -->
<g id="node1" class="node">
<title>Node0x80813f760</title>
<ellipse fill="none" stroke="#000000" cx="79.8312" cy="-40" rx="47.1482" ry="18"/>
<text text-anchor="middle" x="79.8312" y="-35.8" font-family="Times,serif" font-size="14.00" fill="#000000">{truncate}</text>
</g>
<!-- Node0x80813f580 -->
<g id="node2" class="node">
<title>Node0x80813f580</title>
<ellipse fill="none" stroke="#000000" cx="79.8312" cy="-112" rx="79.6627" ry="18"/>
<text text-anchor="middle" x="79.8312" y="-107.8" font-family="Times,serif" font-size="14.00" fill="#000000">{utx_active_purge}</text>
</g>
<!-- Node0x80813f580&#45;&gt;Node0x80813f760 -->
<g id="edge1" class="edge">
<title>Node0x80813f580&#45;&gt;Node0x80813f760</title>
<path fill="none" stroke="#000000" stroke-opacity="0.200000" d="M79.8312,-93.8314C79.8312,-86.131 79.8312,-76.9743 79.8312,-68.4166"/>
<polygon fill="#000000" fill-opacity="0.200000" stroke="#000000" stroke-opacity="0.200000" points="83.3313,-68.4132 79.8312,-58.4133 76.3313,-68.4133 83.3313,-68.4132"/>
</g>
<!-- Node0x80813f400 -->
<g id="node3" class="node">
<title>Node0x80813f400</title>
<ellipse fill="none" stroke="#000000" cx="79.8312" cy="-184" rx="54.4161" ry="18"/>
<text text-anchor="middle" x="79.8312" y="-179.8" font-family="Times,serif" font-size="14.00" fill="#000000">{pututxline}</text>
</g>
<!-- Node0x80813f400&#45;&gt;Node0x80813f580 -->
<g id="edge2" class="edge">
<title>Node0x80813f400&#45;&gt;Node0x80813f580</title>
<path fill="none" stroke="#000000" stroke-opacity="0.200000" d="M79.8312,-165.8314C79.8312,-158.131 79.8312,-148.9743 79.8312,-140.4166"/>
<polygon fill="#000000" fill-opacity="0.200000" stroke="#000000" stroke-opacity="0.200000" points="83.3313,-140.4132 79.8312,-130.4133 76.3313,-140.4133 83.3313,-140.4132"/>
</g>
</g>
</svg>
