<?xml version="1.0" encoding="UTF-8" standalone="no"?>
<!DOCTYPE svg PUBLIC "-//W3C//DTD SVG 1.1//EN"
 "http://www.w3.org/Graphics/SVG/1.1/DTD/svg11.dtd">
<!-- Generated by graphviz version 2.40.1 (20161225.0304)
 -->
<!-- Title: Call graph Pages: 1 -->
<svg width="340pt" height="282pt"
 viewBox="0.00 0.00 340.41 282.00" xmlns="http://www.w3.org/2000/svg" xmlns:xlink="http://www.w3.org/1999/xlink">
<g id="graph0" class="graph" transform="scale(1 1) rotate(0) translate(4 278)">
<title>Call graph</title>
<polygon fill="#ffffff" stroke="transparent" points="-4,4 -4,-278 336.4083,-278 336.4083,4 -4,4"/>
<text text-anchor="middle" x="166.2041" y="-6.8" font-family="Times,serif" font-size="14.00" fill="#000000">Call graph</text>
<!-- Node0x80813e7a0 -->
<g id="node1" class="node">
<title>Node0x80813e7a0</title>
<ellipse fill="none" stroke="#000000" cx="191.63" cy="-184" rx="78.087" ry="18"/>
<text text-anchor="middle" x="191.63" y="-179.8" font-family="Times,serif" font-size="14.00" fill="#000000">{do_posix_spawn}</text>
</g>
<!-- Node0x80813e800 -->
<g id="node2" class="node">
<title>Node0x80813e800</title>
<ellipse fill="none" stroke="#000000" cx="191.63" cy="-112" rx="83.8409" ry="18"/>
<text text-anchor="middle" x="191.63" y="-107.8" font-family="Times,serif" font-size="14.00" fill="#000000">{process_spawnattr}</text>
</g>
<!-- Node0x80813e7a0&#45;&gt;Node0x80813e800 -->
<g id="edge1" class="edge">
<title>Node0x80813e7a0&#45;&gt;Node0x80813e800</title>
<path fill="none" stroke="#000000" stroke-opacity="0.200000" d="M191.63,-165.8314C191.63,-158.131 191.63,-148.9743 191.63,-140.4166"/>
<polygon fill="#000000" fill-opacity="0.200000" stroke="#000000" stroke-opacity="0.200000" points="195.1301,-140.4132 191.63,-130.4133 188.1301,-140.4133 195.1301,-140.4132"/>
</g>
<!-- Node0x807dc1d00 -->
<g id="node4" class="node">
<title>Node0x807dc1d00</title>
<ellipse fill="none" stroke="#000000" cx="117.63" cy="-40" rx="44.2846" ry="18"/>
<text text-anchor="middle" x="117.63" y="-35.8" font-family="Times,serif" font-size="14.00" fill="#000000">{setpgid}</text>
</g>
<!-- Node0x80813e800&#45;&gt;Node0x807dc1d00 -->
<g id="edge3" class="edge">
<title>Node0x80813e800&#45;&gt;Node0x807dc1d00</title>
<path fill="none" stroke="#000000" stroke-opacity="0.200000" d="M173.3379,-94.2022C163.9246,-85.0434 152.319,-73.7514 142.1415,-63.849"/>
<polygon fill="#000000" fill-opacity="0.200000" stroke="#000000" stroke-opacity="0.200000" points="144.3052,-61.0709 134.6971,-56.6058 139.4237,-66.088 144.3052,-61.0709"/>
</g>
<!-- Node0x80813ec20 -->
<g id="node3" class="node">
<title>Node0x80813ec20</title>
<ellipse fill="none" stroke="#000000" cx="115.63" cy="-256" rx="69.4006" ry="18"/>
<text text-anchor="middle" x="115.63" y="-251.8" font-family="Times,serif" font-size="14.00" fill="#000000">{posix_spawnp}</text>
</g>
<!-- Node0x80813ec20&#45;&gt;Node0x80813e7a0 -->
<g id="edge2" class="edge">
<title>Node0x80813ec20&#45;&gt;Node0x80813e7a0</title>
<path fill="none" stroke="#000000" stroke-opacity="0.200000" d="M134.0275,-238.5708C143.5721,-229.5286 155.3887,-218.3338 165.8305,-208.4417"/>
<polygon fill="#000000" fill-opacity="0.200000" stroke="#000000" stroke-opacity="0.200000" points="168.2861,-210.9366 173.1385,-201.5182 163.4719,-205.8549 168.2861,-210.9366"/>
</g>
<!-- Node0x807dc1ca0 -->
<g id="node5" class="node">
<title>Node0x807dc1ca0</title>
<ellipse fill="none" stroke="#000000" cx="44.63" cy="-112" rx="44.7604" ry="18"/>
<text text-anchor="middle" x="44.63" y="-107.8" font-family="Times,serif" font-size="14.00" fill="#000000">{setpgrp}</text>
</g>
<!-- Node0x807dc1ca0&#45;&gt;Node0x807dc1d00 -->
<g id="edge4" class="edge">
<title>Node0x807dc1ca0&#45;&gt;Node0x807dc1d00</title>
<path fill="none" stroke="#000000" stroke-opacity="0.200000" d="M61.5612,-95.3008C70.9833,-86.0077 82.8755,-74.2784 93.2807,-64.0158"/>
<polygon fill="#000000" fill-opacity="0.200000" stroke="#000000" stroke-opacity="0.200000" points="95.8759,-66.3721 100.5378,-56.8581 90.9604,-61.3883 95.8759,-66.3721"/>
</g>
<!-- Node0x80813e740 -->
<g id="node6" class="node">
<title>Node0x80813e740</title>
<ellipse fill="none" stroke="#000000" cx="267.63" cy="-256" rx="64.5573" ry="18"/>
<text text-anchor="middle" x="267.63" y="-251.8" font-family="Times,serif" font-size="14.00" fill="#000000">{posix_spawn}</text>
</g>
<!-- Node0x80813e740&#45;&gt;Node0x80813e7a0 -->
<g id="edge5" class="edge">
<title>Node0x80813e740&#45;&gt;Node0x80813e7a0</title>
<path fill="none" stroke="#000000" stroke-opacity="0.200000" d="M249.2325,-238.5708C239.688,-229.5286 227.8713,-218.3338 217.4296,-208.4417"/>
<polygon fill="#000000" fill-opacity="0.200000" stroke="#000000" stroke-opacity="0.200000" points="219.7882,-205.8549 210.1215,-201.5182 214.9739,-210.9366 219.7882,-205.8549"/>
</g>
</g>
</svg>
