<?xml version="1.0" encoding="UTF-8" standalone="no"?>
<!DOCTYPE svg PUBLIC "-//W3C//DTD SVG 1.1//EN"
 "http://www.w3.org/Graphics/SVG/1.1/DTD/svg11.dtd">
<!-- Generated by graphviz version 2.40.1 (20161225.0304)
 -->
<!-- Title: Call graph Pages: 1 -->
<svg width="2447pt" height="570pt"
 viewBox="0.00 0.00 2446.75 570.00" xmlns="http://www.w3.org/2000/svg" xmlns:xlink="http://www.w3.org/1999/xlink">
<g id="graph0" class="graph" transform="scale(1 1) rotate(0) translate(4 566)">
<title>Call graph</title>
<polygon fill="#ffffff" stroke="transparent" points="-4,4 -4,-566 2442.7519,-566 2442.7519,4 -4,4"/>
<text text-anchor="middle" x="1219.376" y="-6.8" font-family="Times,serif" font-size="14.00" fill="#000000">Call graph</text>
<!-- Node0x8073473e0 -->
<g id="node1" class="node">
<title>Node0x8073473e0</title>
<ellipse fill="none" stroke="#000000" cx="854.7059" cy="-112" rx="59.2529" ry="18"/>
<text text-anchor="middle" x="854.7059" y="-107.8" font-family="Times,serif" font-size="14.00" fill="#000000">{nis_passwd}</text>
</g>
<!-- Node0x803d2dfc0 -->
<g id="node2" class="node">
<title>Node0x803d2dfc0</title>
<ellipse fill="none" stroke="#000000" cx="1361.7059" cy="-40" rx="75.1539" ry="18"/>
<text text-anchor="middle" x="1361.7059" y="-35.8" font-family="Times,serif" font-size="14.00" fill="#000000">{getdomainname}</text>
</g>
<!-- Node0x8073473e0&#45;&gt;Node0x803d2dfc0 -->
<g id="edge1" class="edge">
<title>Node0x8073473e0&#45;&gt;Node0x803d2dfc0</title>
<path fill="none" stroke="#000000" stroke-opacity="0.200000" d="M898.309,-99.6933C906.6929,-97.5921 915.4373,-95.581 923.7059,-94 1046.9465,-70.4357 1191.753,-54.9217 1280.0999,-46.8014"/>
<polygon fill="#000000" fill-opacity="0.200000" stroke="#000000" stroke-opacity="0.200000" points="1280.6816,-50.263 1290.3235,-45.8716 1280.0476,-43.2918 1280.6816,-50.263"/>
</g>
<!-- Node0x8056c13c0 -->
<g id="node3" class="node">
<title>Node0x8056c13c0</title>
<ellipse fill="none" stroke="#000000" cx="1259.7059" cy="-112" rx="130.6636" ry="18"/>
<text text-anchor="middle" x="1259.7059" y="-107.8" font-family="Times,serif" font-size="14.00" fill="#000000">{yp_get_default_domain_locked}</text>
</g>
<!-- Node0x8056c13c0&#45;&gt;Node0x803d2dfc0 -->
<g id="edge2" class="edge">
<title>Node0x8056c13c0&#45;&gt;Node0x803d2dfc0</title>
<path fill="none" stroke="#000000" stroke-opacity="0.200000" d="M1284.9194,-94.2022C1298.2079,-84.8221 1314.666,-73.2047 1328.9328,-63.134"/>
<polygon fill="#000000" fill-opacity="0.200000" stroke="#000000" stroke-opacity="0.200000" points="1331.3336,-65.7235 1337.4849,-57.0972 1327.2968,-60.0047 1331.3336,-65.7235"/>
</g>
<!-- Node0x805631540 -->
<g id="node4" class="node">
<title>Node0x805631540</title>
<ellipse fill="none" stroke="#000000" cx="1032.7059" cy="-256" rx="63.5795" ry="18"/>
<text text-anchor="middle" x="1032.7059" y="-251.8" font-family="Times,serif" font-size="14.00" fill="#000000">{_getnetbynis}</text>
</g>
<!-- Node0x807346060 -->
<g id="node5" class="node">
<title>Node0x807346060</title>
<ellipse fill="none" stroke="#000000" cx="1259.7059" cy="-184" rx="102.6752" ry="18"/>
<text text-anchor="middle" x="1259.7059" y="-179.8" font-family="Times,serif" font-size="14.00" fill="#000000">{yp_get_default_domain}</text>
</g>
<!-- Node0x805631540&#45;&gt;Node0x807346060 -->
<g id="edge3" class="edge">
<title>Node0x805631540&#45;&gt;Node0x807346060</title>
<path fill="none" stroke="#000000" stroke-opacity="0.200000" d="M1075.1366,-242.5418C1110.3897,-231.3602 1160.9489,-215.3238 1200.2396,-202.8616"/>
<polygon fill="#000000" fill-opacity="0.200000" stroke="#000000" stroke-opacity="0.200000" points="1201.4961,-206.135 1209.9699,-199.7753 1199.3796,-199.4626 1201.4961,-206.135"/>
</g>
<!-- Node0x807346060&#45;&gt;Node0x8056c13c0 -->
<g id="edge47" class="edge">
<title>Node0x807346060&#45;&gt;Node0x8056c13c0</title>
<path fill="none" stroke="#000000" stroke-opacity="0.200000" d="M1259.7059,-165.8314C1259.7059,-158.131 1259.7059,-148.9743 1259.7059,-140.4166"/>
<polygon fill="#000000" fill-opacity="0.200000" stroke="#000000" stroke-opacity="0.200000" points="1263.206,-140.4132 1259.7059,-130.4133 1256.206,-140.4133 1263.206,-140.4132"/>
</g>
<!-- Node0x805639e20 -->
<g id="node6" class="node">
<title>Node0x805639e20</title>
<ellipse fill="none" stroke="#000000" cx="1454.7059" cy="-400" rx="47.65" ry="18"/>
<text text-anchor="middle" x="1454.7059" y="-395.8" font-family="Times,serif" font-size="14.00" fill="#000000">{iruserok}</text>
</g>
<!-- Node0x805639b80 -->
<g id="node7" class="node">
<title>Node0x805639b80</title>
<ellipse fill="none" stroke="#000000" cx="1561.7059" cy="-328" rx="59.2271" ry="18"/>
<text text-anchor="middle" x="1561.7059" y="-323.8" font-family="Times,serif" font-size="14.00" fill="#000000">{iruserok_sa}</text>
</g>
<!-- Node0x805639e20&#45;&gt;Node0x805639b80 -->
<g id="edge4" class="edge">
<title>Node0x805639e20&#45;&gt;Node0x805639b80</title>
<path fill="none" stroke="#000000" stroke-opacity="0.200000" d="M1478.1875,-384.1993C1492.9288,-374.28 1512.1656,-361.3355 1528.4611,-350.3704"/>
<polygon fill="#000000" fill-opacity="0.200000" stroke="#000000" stroke-opacity="0.200000" points="1530.8217,-353.0006 1537.1643,-344.514 1526.9137,-347.193 1530.8217,-353.0006"/>
</g>
<!-- Node0x805639be0 -->
<g id="node20" class="node">
<title>Node0x805639be0</title>
<ellipse fill="none" stroke="#000000" cx="1499.7059" cy="-256" rx="74.2022" ry="18"/>
<text text-anchor="middle" x="1499.7059" y="-251.8" font-family="Times,serif" font-size="14.00" fill="#000000">{__ivaliduser_sa}</text>
</g>
<!-- Node0x805639b80&#45;&gt;Node0x805639be0 -->
<g id="edge19" class="edge">
<title>Node0x805639b80&#45;&gt;Node0x805639be0</title>
<path fill="none" stroke="#000000" stroke-opacity="0.200000" d="M1546.6975,-310.5708C1539.1939,-301.857 1529.9689,-291.1441 1521.6853,-281.5244"/>
<polygon fill="#000000" fill-opacity="0.200000" stroke="#000000" stroke-opacity="0.200000" points="1524.1844,-279.0627 1515.0069,-273.7689 1518.88,-283.6304 1524.1844,-279.0627"/>
</g>
<!-- Node0x8056ae680 -->
<g id="node8" class="node">
<title>Node0x8056ae680</title>
<ellipse fill="none" stroke="#000000" cx="1700.7059" cy="-400" rx="64.0469" ry="18"/>
<text text-anchor="middle" x="1700.7059" y="-395.8" font-family="Times,serif" font-size="14.00" fill="#000000">{getpublickey}</text>
</g>
<!-- Node0x8056af760 -->
<g id="node9" class="node">
<title>Node0x8056af760</title>
<ellipse fill="none" stroke="#000000" cx="1872.7059" cy="-328" rx="90.5815" ry="18"/>
<text text-anchor="middle" x="1872.7059" y="-323.8" font-family="Times,serif" font-size="14.00" fill="#000000">{__getpublickey_real}</text>
</g>
<!-- Node0x8056ae680&#45;&gt;Node0x8056af760 -->
<g id="edge5" class="edge">
<title>Node0x8056ae680&#45;&gt;Node0x8056af760</title>
<path fill="none" stroke="#000000" stroke-opacity="0.200000" d="M1736.7628,-384.9064C1762.1408,-374.2831 1796.3983,-359.9427 1824.1742,-348.3156"/>
<polygon fill="#000000" fill-opacity="0.200000" stroke="#000000" stroke-opacity="0.200000" points="1825.8304,-351.4167 1833.7034,-344.3267 1823.1274,-344.9596 1825.8304,-351.4167"/>
</g>
<!-- Node0x8056af700 -->
<g id="node30" class="node">
<title>Node0x8056af700</title>
<ellipse fill="none" stroke="#000000" cx="1693.7059" cy="-256" rx="101.6888" ry="18"/>
<text text-anchor="middle" x="1693.7059" y="-251.8" font-family="Times,serif" font-size="14.00" fill="#000000">{getpublicandprivatekey}</text>
</g>
<!-- Node0x8056af760&#45;&gt;Node0x8056af700 -->
<g id="edge53" class="edge">
<title>Node0x8056af760&#45;&gt;Node0x8056af700</title>
<path fill="none" stroke="#000000" stroke-opacity="0.200000" d="M1832.5348,-311.8418C1806.4408,-301.3459 1772.2112,-287.5775 1744.2702,-276.3387"/>
<polygon fill="#000000" fill-opacity="0.200000" stroke="#000000" stroke-opacity="0.200000" points="1745.2568,-272.9631 1734.6731,-272.4784 1742.6445,-279.4574 1745.2568,-272.9631"/>
</g>
<!-- Node0x8056a7f40 -->
<g id="node10" class="node">
<title>Node0x8056a7f40</title>
<ellipse fill="none" stroke="#000000" cx="1700.7059" cy="-544" rx="65.9746" ry="18"/>
<text text-anchor="middle" x="1700.7059" y="-539.8" font-family="Times,serif" font-size="14.00" fill="#000000">{_authenticate}</text>
</g>
<!-- Node0x8056ad0c0 -->
<g id="node11" class="node">
<title>Node0x8056ad0c0</title>
<ellipse fill="none" stroke="#000000" cx="1700.7059" cy="-472" rx="66.4851" ry="18"/>
<text text-anchor="middle" x="1700.7059" y="-467.8" font-family="Times,serif" font-size="14.00" fill="#000000">{_svcauth_des}</text>
</g>
<!-- Node0x8056a7f40&#45;&gt;Node0x8056ad0c0 -->
<g id="edge6" class="edge">
<title>Node0x8056a7f40&#45;&gt;Node0x8056ad0c0</title>
<path fill="none" stroke="#000000" stroke-opacity="0.200000" d="M1700.7059,-525.8314C1700.7059,-518.131 1700.7059,-508.9743 1700.7059,-500.4166"/>
<polygon fill="#000000" fill-opacity="0.200000" stroke="#000000" stroke-opacity="0.200000" points="1704.206,-500.4132 1700.7059,-490.4133 1697.206,-500.4133 1704.206,-500.4132"/>
</g>
<!-- Node0x8056ad0c0&#45;&gt;Node0x8056ae680 -->
<g id="edge48" class="edge">
<title>Node0x8056ad0c0&#45;&gt;Node0x8056ae680</title>
<path fill="none" stroke="#000000" stroke-opacity="0.200000" d="M1700.7059,-453.8314C1700.7059,-446.131 1700.7059,-436.9743 1700.7059,-428.4166"/>
<polygon fill="#000000" fill-opacity="0.200000" stroke="#000000" stroke-opacity="0.200000" points="1704.206,-428.4132 1700.7059,-418.4133 1697.206,-428.4133 1704.206,-428.4132"/>
</g>
<!-- Node0x8056afac0 -->
<g id="node12" class="node">
<title>Node0x8056afac0</title>
<ellipse fill="none" stroke="#000000" cx="220.7059" cy="-256" rx="67.9298" ry="18"/>
<text text-anchor="middle" x="220.7059" y="-251.8" font-family="Times,serif" font-size="14.00" fill="#000000">{host2netname}</text>
</g>
<!-- Node0x8056afb80 -->
<g id="node13" class="node">
<title>Node0x8056afb80</title>
<ellipse fill="none" stroke="#000000" cx="316.7059" cy="-184" rx="113.7589" ry="18"/>
<text text-anchor="middle" x="316.7059" y="-179.8" font-family="Times,serif" font-size="14.00" fill="#000000">{__rpc_get_default_domain}</text>
</g>
<!-- Node0x8056afac0&#45;&gt;Node0x8056afb80 -->
<g id="edge7" class="edge">
<title>Node0x8056afac0&#45;&gt;Node0x8056afb80</title>
<path fill="none" stroke="#000000" stroke-opacity="0.200000" d="M243.4566,-238.937C255.854,-229.6389 271.393,-217.9847 284.9652,-207.8055"/>
<polygon fill="#000000" fill-opacity="0.200000" stroke="#000000" stroke-opacity="0.200000" points="287.216,-210.4925 293.116,-201.6924 283.016,-204.8925 287.216,-210.4925"/>
</g>
<!-- Node0x8056afd00 -->
<g id="node23" class="node">
<title>Node0x8056afd00</title>
<ellipse fill="none" stroke="#000000" cx="1021.7059" cy="-112" rx="89.145" ry="18"/>
<text text-anchor="middle" x="1021.7059" y="-107.8" font-family="Times,serif" font-size="14.00" fill="#000000">{get_default_domain}</text>
</g>
<!-- Node0x8056afb80&#45;&gt;Node0x8056afd00 -->
<g id="edge44" class="edge">
<title>Node0x8056afb80&#45;&gt;Node0x8056afd00</title>
<path fill="none" stroke="#000000" stroke-opacity="0.200000" d="M422.9451,-177.4712C544.1965,-169.339 748.2943,-153.5767 922.7059,-130 930.7059,-128.9186 939.0435,-127.6411 947.3363,-126.2735"/>
<polygon fill="#000000" fill-opacity="0.200000" stroke="#000000" stroke-opacity="0.200000" points="948.1288,-129.6892 957.4036,-124.5678 946.9594,-122.7875 948.1288,-129.6892"/>
</g>
<!-- Node0x803d2fee0 -->
<g id="node14" class="node">
<title>Node0x803d2fee0</title>
<ellipse fill="none" stroke="#000000" cx="2136.7059" cy="-400" rx="87.6914" ry="18"/>
<text text-anchor="middle" x="2136.7059" y="-395.8" font-family="Times,serif" font-size="14.00" fill="#000000">{compat_setnetgrent}</text>
</g>
<!-- Node0x803d2fe80 -->
<g id="node15" class="node">
<title>Node0x803d2fe80</title>
<ellipse fill="none" stroke="#000000" cx="2045.7059" cy="-328" rx="64.0383" ry="18"/>
<text text-anchor="middle" x="2045.7059" y="-323.8" font-family="Times,serif" font-size="14.00" fill="#000000">{parse_netgrp}</text>
</g>
<!-- Node0x803d2fee0&#45;&gt;Node0x803d2fe80 -->
<g id="edge8" class="edge">
<title>Node0x803d2fee0&#45;&gt;Node0x803d2fe80</title>
<path fill="none" stroke="#000000" stroke-opacity="0.200000" d="M2114.6774,-382.5708C2102.8545,-373.2164 2088.12,-361.5584 2075.3088,-351.422"/>
<polygon fill="#000000" fill-opacity="0.200000" stroke="#000000" stroke-opacity="0.200000" points="2077.2316,-348.4803 2067.2176,-345.0202 2072.8882,-353.9699 2077.2316,-348.4803"/>
</g>
<!-- Node0x803d2fe80&#45;&gt;Node0x803d2fe80 -->
<g id="edge27" class="edge">
<title>Node0x803d2fe80&#45;&gt;Node0x803d2fe80</title>
<path fill="none" stroke="#000000" stroke-opacity="0.200000" d="M2089.7185,-341.233C2110.1357,-342.6766 2127.9747,-338.2656 2127.9747,-328 2127.9747,-319.4988 2115.7409,-315.0126 2099.9401,-314.5415"/>
<polygon fill="#000000" fill-opacity="0.200000" stroke="#000000" stroke-opacity="0.200000" points="2099.6388,-311.0472 2089.7185,-314.767 2099.7933,-318.0455 2099.6388,-311.0472"/>
</g>
<!-- Node0x807346000 -->
<g id="node33" class="node">
<title>Node0x807346000</title>
<ellipse fill="none" stroke="#000000" cx="1886.7059" cy="-256" rx="73.7004" ry="18"/>
<text text-anchor="middle" x="1886.7059" y="-251.8" font-family="Times,serif" font-size="14.00" fill="#000000">{read_for_group}</text>
</g>
<!-- Node0x803d2fe80&#45;&gt;Node0x807346000 -->
<g id="edge28" class="edge">
<title>Node0x803d2fe80&#45;&gt;Node0x807346000</title>
<path fill="none" stroke="#000000" stroke-opacity="0.200000" d="M2011.5964,-312.5542C1988.1319,-301.9288 1956.7338,-287.7107 1931.2902,-276.1891"/>
<polygon fill="#000000" fill-opacity="0.200000" stroke="#000000" stroke-opacity="0.200000" points="1932.4125,-272.8552 1921.8591,-271.9184 1929.5249,-279.2319 1932.4125,-272.8552"/>
</g>
<!-- Node0x805626fe0 -->
<g id="node16" class="node">
<title>Node0x805626fe0</title>
<ellipse fill="none" stroke="#000000" cx="1224.7059" cy="-328" rx="94.4906" ry="18"/>
<text text-anchor="middle" x="1224.7059" y="-323.8" font-family="Times,serif" font-size="14.00" fill="#000000">{_gethostbynisname_r}</text>
</g>
<!-- Node0x805627040 -->
<g id="node17" class="node">
<title>Node0x805627040</title>
<ellipse fill="none" stroke="#000000" cx="1182.7059" cy="-256" rx="67.9558" ry="18"/>
<text text-anchor="middle" x="1182.7059" y="-251.8" font-family="Times,serif" font-size="14.00" fill="#000000">{_gethostbynis}</text>
</g>
<!-- Node0x805626fe0&#45;&gt;Node0x805627040 -->
<g id="edge9" class="edge">
<title>Node0x805626fe0&#45;&gt;Node0x805627040</title>
<path fill="none" stroke="#000000" stroke-opacity="0.200000" d="M1214.1076,-309.8314C1209.296,-301.5829 1203.5097,-291.6635 1198.2221,-282.5992"/>
<polygon fill="#000000" fill-opacity="0.200000" stroke="#000000" stroke-opacity="0.200000" points="1201.2174,-280.7876 1193.1554,-273.9134 1195.171,-284.3148 1201.2174,-280.7876"/>
</g>
<!-- Node0x805627040&#45;&gt;Node0x807346060 -->
<g id="edge16" class="edge">
<title>Node0x805627040&#45;&gt;Node0x807346060</title>
<path fill="none" stroke="#000000" stroke-opacity="0.200000" d="M1201.3455,-238.5708C1210.944,-229.5955 1222.8106,-218.4996 1233.3316,-208.6617"/>
<polygon fill="#000000" fill-opacity="0.200000" stroke="#000000" stroke-opacity="0.200000" points="1235.7893,-211.1553 1240.7031,-201.7689 1231.0084,-206.0424 1235.7893,-211.1553"/>
</g>
<!-- Node0x8056314e0 -->
<g id="node18" class="node">
<title>Node0x8056314e0</title>
<ellipse fill="none" stroke="#000000" cx="825.7059" cy="-328" rx="87.2241" ry="18"/>
<text text-anchor="middle" x="825.7059" y="-323.8" font-family="Times,serif" font-size="14.00" fill="#000000">{_nis_getnetbyname}</text>
</g>
<!-- Node0x8056314e0&#45;&gt;Node0x805631540 -->
<g id="edge10" class="edge">
<title>Node0x8056314e0&#45;&gt;Node0x805631540</title>
<path fill="none" stroke="#000000" stroke-opacity="0.200000" d="M870.367,-312.4657C903.3601,-300.9899 948.2981,-285.3592 982.5297,-273.4526"/>
<polygon fill="#000000" fill-opacity="0.200000" stroke="#000000" stroke-opacity="0.200000" points="984.0371,-276.6341 992.3322,-270.043 981.7374,-270.0226 984.0371,-276.6341"/>
</g>
<!-- Node0x805639e80 -->
<g id="node19" class="node">
<title>Node0x805639e80</title>
<ellipse fill="none" stroke="#000000" cx="1701.7059" cy="-328" rx="62.1258" ry="18"/>
<text text-anchor="middle" x="1701.7059" y="-323.8" font-family="Times,serif" font-size="14.00" fill="#000000">{__ivaliduser}</text>
</g>
<!-- Node0x805639e80&#45;&gt;Node0x805639be0 -->
<g id="edge11" class="edge">
<title>Node0x805639e80&#45;&gt;Node0x805639be0</title>
<path fill="none" stroke="#000000" stroke-opacity="0.200000" d="M1662.2788,-313.9468C1630.4793,-302.6123 1585.5117,-286.5842 1550.9273,-274.2571"/>
<polygon fill="#000000" fill-opacity="0.200000" stroke="#000000" stroke-opacity="0.200000" points="1552.0623,-270.946 1541.4676,-270.8853 1549.712,-277.5397 1552.0623,-270.946"/>
</g>
<!-- Node0x805639be0&#45;&gt;Node0x807346060 -->
<g id="edge14" class="edge">
<title>Node0x805639be0&#45;&gt;Node0x807346060</title>
<path fill="none" stroke="#000000" stroke-opacity="0.200000" d="M1452.8618,-241.9468C1415.3536,-230.6943 1362.4257,-214.8159 1321.4568,-202.5253"/>
<polygon fill="#000000" fill-opacity="0.200000" stroke="#000000" stroke-opacity="0.200000" points="1322.4322,-199.1638 1311.8482,-199.6427 1320.4208,-205.8686 1322.4322,-199.1638"/>
</g>
<!-- Node0x8056ae6e0 -->
<g id="node21" class="node">
<title>Node0x8056ae6e0</title>
<ellipse fill="none" stroke="#000000" cx="220.7059" cy="-400" rx="95.8835" ry="18"/>
<text text-anchor="middle" x="220.7059" y="-395.8" font-family="Times,serif" font-size="14.00" fill="#000000">{authdes_pk_seccreate}</text>
</g>
<!-- Node0x8056ae740 -->
<g id="node22" class="node">
<title>Node0x8056ae740</title>
<ellipse fill="none" stroke="#000000" cx="168.7059" cy="-328" rx="59.2098" ry="18"/>
<text text-anchor="middle" x="168.7059" y="-323.8" font-family="Times,serif" font-size="14.00" fill="#000000">{getnetname}</text>
</g>
<!-- Node0x8056ae6e0&#45;&gt;Node0x8056ae740 -->
<g id="edge12" class="edge">
<title>Node0x8056ae6e0&#45;&gt;Node0x8056ae740</title>
<path fill="none" stroke="#000000" stroke-opacity="0.200000" d="M207.5841,-381.8314C201.5028,-373.411 194.1639,-363.2495 187.5081,-354.0338"/>
<polygon fill="#000000" fill-opacity="0.200000" stroke="#000000" stroke-opacity="0.200000" points="190.3357,-351.971 181.6434,-345.9134 184.661,-356.0695 190.3357,-351.971"/>
</g>
<!-- Node0x8056ae740&#45;&gt;Node0x8056afac0 -->
<g id="edge22" class="edge">
<title>Node0x8056ae740&#45;&gt;Node0x8056afac0</title>
<path fill="none" stroke="#000000" stroke-opacity="0.200000" d="M181.5599,-310.2022C187.685,-301.7214 195.1309,-291.4115 201.8779,-282.0696"/>
<polygon fill="#000000" fill-opacity="0.200000" stroke="#000000" stroke-opacity="0.200000" points="204.8021,-283.9986 207.8197,-273.8425 199.1273,-279.9001 204.8021,-283.9986"/>
</g>
<!-- Node0x8056afb20 -->
<g id="node29" class="node">
<title>Node0x8056afb20</title>
<ellipse fill="none" stroke="#000000" cx="67.7059" cy="-256" rx="67.9125" ry="18"/>
<text text-anchor="middle" x="67.7059" y="-251.8" font-family="Times,serif" font-size="14.00" fill="#000000">{user2netname}</text>
</g>
<!-- Node0x8056ae740&#45;&gt;Node0x8056afb20 -->
<g id="edge23" class="edge">
<title>Node0x8056ae740&#45;&gt;Node0x8056afb20</title>
<path fill="none" stroke="#000000" stroke-opacity="0.200000" d="M145.2806,-311.3008C131.8357,-301.7163 114.7555,-289.5403 100.0466,-279.0547"/>
<polygon fill="#000000" fill-opacity="0.200000" stroke="#000000" stroke-opacity="0.200000" points="101.88,-276.0635 91.7056,-273.1086 97.8167,-281.7634 101.88,-276.0635"/>
</g>
<!-- Node0x8056afd00&#45;&gt;Node0x803d2dfc0 -->
<g id="edge13" class="edge">
<title>Node0x8056afd00&#45;&gt;Node0x803d2dfc0</title>
<path fill="none" stroke="#000000" stroke-opacity="0.200000" d="M1083.6718,-98.8778C1143.5463,-86.1985 1233.9495,-67.0543 1295.2843,-54.0658"/>
<polygon fill="#000000" fill-opacity="0.200000" stroke="#000000" stroke-opacity="0.200000" points="1296.1894,-57.4518 1305.2473,-51.9559 1294.7392,-50.6037 1296.1894,-57.4518"/>
</g>
<!-- Node0x8056315a0 -->
<g id="node24" class="node">
<title>Node0x8056315a0</title>
<ellipse fill="none" stroke="#000000" cx="636.7059" cy="-328" rx="83.8495" ry="18"/>
<text text-anchor="middle" x="636.7059" y="-323.8" font-family="Times,serif" font-size="14.00" fill="#000000">{_nis_getnetbyaddr}</text>
</g>
<!-- Node0x8056315a0&#45;&gt;Node0x805631540 -->
<g id="edge15" class="edge">
<title>Node0x8056315a0&#45;&gt;Node0x805631540</title>
<path fill="none" stroke="#000000" stroke-opacity="0.200000" d="M698.4296,-315.7312C708.8572,-313.751 719.5813,-311.7716 729.7059,-310 831.6243,-292.1666 858.271,-294.4043 959.7059,-274 964.9846,-272.9382 970.4576,-271.7512 975.925,-270.5069"/>
<polygon fill="#000000" fill-opacity="0.200000" stroke="#000000" stroke-opacity="0.200000" points="976.7755,-273.9026 985.7175,-268.2201 975.1836,-267.086 976.7755,-273.9026"/>
</g>
<!-- Node0x805627100 -->
<g id="node25" class="node">
<title>Node0x805627100</title>
<ellipse fill="none" stroke="#000000" cx="1021.7059" cy="-328" rx="90.6159" ry="18"/>
<text text-anchor="middle" x="1021.7059" y="-323.8" font-family="Times,serif" font-size="14.00" fill="#000000">{_gethostbynisaddr_r}</text>
</g>
<!-- Node0x805627100&#45;&gt;Node0x805627040 -->
<g id="edge17" class="edge">
<title>Node0x805627100&#45;&gt;Node0x805627040</title>
<path fill="none" stroke="#000000" stroke-opacity="0.200000" d="M1058.6426,-311.4817C1082.4332,-300.8424 1113.4882,-286.9545 1138.5759,-275.7352"/>
<polygon fill="#000000" fill-opacity="0.200000" stroke="#000000" stroke-opacity="0.200000" points="1140.1714,-278.8558 1147.8713,-271.5782 1137.3137,-272.4657 1140.1714,-278.8558"/>
</g>
<!-- Node0x807348580 -->
<g id="node26" class="node">
<title>Node0x807348580</title>
<ellipse fill="none" stroke="#000000" cx="1337.7059" cy="-256" rx="69.8937" ry="18"/>
<text text-anchor="middle" x="1337.7059" y="-251.8" font-family="Times,serif" font-size="14.00" fill="#000000">{_nis_initshells}</text>
</g>
<!-- Node0x807348580&#45;&gt;Node0x807346060 -->
<g id="edge18" class="edge">
<title>Node0x807348580&#45;&gt;Node0x807346060</title>
<path fill="none" stroke="#000000" stroke-opacity="0.200000" d="M1318.8243,-238.5708C1309.1011,-229.5955 1297.0805,-218.4996 1286.4228,-208.6617"/>
<polygon fill="#000000" fill-opacity="0.200000" stroke="#000000" stroke-opacity="0.200000" points="1288.6776,-205.9799 1278.9556,-201.7689 1283.9296,-211.1235 1288.6776,-205.9799"/>
</g>
<!-- Node0x8056afca0 -->
<g id="node27" class="node">
<title>Node0x8056afca0</title>
<ellipse fill="none" stroke="#000000" cx="313.7059" cy="-328" rx="67.9298" ry="18"/>
<text text-anchor="middle" x="313.7059" y="-323.8" font-family="Times,serif" font-size="14.00" fill="#000000">{netname2host}</text>
</g>
<!-- Node0x8056afca0&#45;&gt;Node0x8056afb80 -->
<g id="edge20" class="edge">
<title>Node0x8056afca0&#45;&gt;Node0x8056afb80</title>
<path fill="none" stroke="#000000" stroke-opacity="0.200000" d="M314.0859,-309.7623C314.5976,-285.201 315.5133,-241.2474 316.1152,-212.3541"/>
<polygon fill="#000000" fill-opacity="0.200000" stroke="#000000" stroke-opacity="0.200000" points="319.6199,-212.1604 316.3291,-202.0896 312.6214,-212.0145 319.6199,-212.1604"/>
</g>
<!-- Node0x8056afbe0 -->
<g id="node28" class="node">
<title>Node0x8056afbe0</title>
<ellipse fill="none" stroke="#000000" cx="391.7059" cy="-256" rx="47.1655" ry="18"/>
<text text-anchor="middle" x="391.7059" y="-251.8" font-family="Times,serif" font-size="14.00" fill="#000000">{getnetid}</text>
</g>
<!-- Node0x8056afca0&#45;&gt;Node0x8056afbe0 -->
<g id="edge21" class="edge">
<title>Node0x8056afca0&#45;&gt;Node0x8056afbe0</title>
<path fill="none" stroke="#000000" stroke-opacity="0.200000" d="M332.5876,-310.5708C342.601,-301.3276 355.0511,-289.8352 365.9398,-279.7842"/>
<polygon fill="#000000" fill-opacity="0.200000" stroke="#000000" stroke-opacity="0.200000" points="368.5612,-282.1276 373.5353,-272.7729 363.8132,-276.9839 368.5612,-282.1276"/>
</g>
<!-- Node0x8056afbe0&#45;&gt;Node0x807346060 -->
<g id="edge49" class="edge">
<title>Node0x8056afbe0&#45;&gt;Node0x807346060</title>
<path fill="none" stroke="#000000" stroke-opacity="0.200000" d="M432.7148,-247.0439C449.1224,-243.75 468.2403,-240.2732 485.7059,-238 720.4141,-207.4517 997.5678,-193.3986 1148.3253,-187.5885"/>
<polygon fill="#000000" fill-opacity="0.200000" stroke="#000000" stroke-opacity="0.200000" points="1148.6552,-191.0786 1158.515,-187.201 1148.3891,-184.0837 1148.6552,-191.0786"/>
</g>
<!-- Node0x8056afb20&#45;&gt;Node0x8056afb80 -->
<g id="edge36" class="edge">
<title>Node0x8056afb20&#45;&gt;Node0x8056afb80</title>
<path fill="none" stroke="#000000" stroke-opacity="0.200000" d="M113.6666,-242.7102C152.5977,-231.453 208.8463,-215.1883 252.2722,-202.6314"/>
<polygon fill="#000000" fill-opacity="0.200000" stroke="#000000" stroke-opacity="0.200000" points="253.2579,-205.9899 261.8921,-199.8498 251.3134,-199.2654 253.2579,-205.9899"/>
</g>
<!-- Node0x8056af700&#45;&gt;Node0x807346060 -->
<g id="edge24" class="edge">
<title>Node0x8056af700&#45;&gt;Node0x807346060</title>
<path fill="none" stroke="#000000" stroke-opacity="0.200000" d="M1619.0987,-243.6228C1542.7497,-230.9566 1424.2959,-211.3052 1344.4542,-198.0596"/>
<polygon fill="#000000" fill-opacity="0.200000" stroke="#000000" stroke-opacity="0.200000" points="1344.866,-194.5802 1334.428,-196.3963 1343.7203,-201.4858 1344.866,-194.5802"/>
</g>
<!-- Node0x805639ee0 -->
<g id="node31" class="node">
<title>Node0x805639ee0</title>
<ellipse fill="none" stroke="#000000" cx="1410.7059" cy="-328" rx="73.7091" ry="18"/>
<text text-anchor="middle" x="1410.7059" y="-323.8" font-family="Times,serif" font-size="14.00" fill="#000000">{__ivaliduser_af}</text>
</g>
<!-- Node0x805639ee0&#45;&gt;Node0x805639be0 -->
<g id="edge25" class="edge">
<title>Node0x805639ee0&#45;&gt;Node0x805639be0</title>
<path fill="none" stroke="#000000" stroke-opacity="0.200000" d="M1432.2504,-310.5708C1443.729,-301.2847 1458.0138,-289.7285 1470.479,-279.6442"/>
<polygon fill="#000000" fill-opacity="0.200000" stroke="#000000" stroke-opacity="0.200000" points="1472.7867,-282.2793 1478.3599,-273.2687 1468.3841,-276.8371 1472.7867,-282.2793"/>
</g>
<!-- Node0x805626f80 -->
<g id="node32" class="node">
<title>Node0x805626f80</title>
<ellipse fill="none" stroke="#000000" cx="1224.7059" cy="-400" rx="91.1005" ry="18"/>
<text text-anchor="middle" x="1224.7059" y="-395.8" font-family="Times,serif" font-size="14.00" fill="#000000">{_nis_gethostbyname}</text>
</g>
<!-- Node0x805626f80&#45;&gt;Node0x805626fe0 -->
<g id="edge26" class="edge">
<title>Node0x805626f80&#45;&gt;Node0x805626fe0</title>
<path fill="none" stroke="#000000" stroke-opacity="0.200000" d="M1224.7059,-381.8314C1224.7059,-374.131 1224.7059,-364.9743 1224.7059,-356.4166"/>
<polygon fill="#000000" fill-opacity="0.200000" stroke="#000000" stroke-opacity="0.200000" points="1228.206,-356.4132 1224.7059,-346.4133 1221.206,-356.4133 1228.206,-356.4132"/>
</g>
<!-- Node0x807346000&#45;&gt;Node0x807346060 -->
<g id="edge54" class="edge">
<title>Node0x807346000&#45;&gt;Node0x807346060</title>
<path fill="none" stroke="#000000" stroke-opacity="0.200000" d="M1833.506,-243.3723C1823.9542,-241.3767 1814.0626,-239.4852 1804.7059,-238 1653.5417,-214.0048 1476.9916,-198.8348 1366.7514,-190.8789"/>
<polygon fill="#000000" fill-opacity="0.200000" stroke="#000000" stroke-opacity="0.200000" points="1366.8476,-187.377 1356.6235,-190.1549 1366.3484,-194.3592 1366.8476,-187.377"/>
</g>
<!-- Node0x805622ca0 -->
<g id="node34" class="node">
<title>Node0x805622ca0</title>
<ellipse fill="none" stroke="#000000" cx="2046.7059" cy="-256" rx="68.9161" ry="18"/>
<text text-anchor="middle" x="2046.7059" y="-251.8" font-family="Times,serif" font-size="14.00" fill="#000000">{eui64_hostton}</text>
</g>
<!-- Node0x805622ca0&#45;&gt;Node0x807346060 -->
<g id="edge29" class="edge">
<title>Node0x805622ca0&#45;&gt;Node0x807346060</title>
<path fill="none" stroke="#000000" stroke-opacity="0.200000" d="M1997.6332,-243.3424C1988.4035,-241.2998 1978.7969,-239.3998 1969.7059,-238 1759.77,-205.6749 1511.7948,-192.4156 1371.4194,-187.1908"/>
<polygon fill="#000000" fill-opacity="0.200000" stroke="#000000" stroke-opacity="0.200000" points="1371.2062,-183.6808 1361.0851,-186.8135 1370.9507,-190.6761 1371.2062,-183.6808"/>
</g>
<!-- Node0x805622a00 -->
<g id="node35" class="node">
<title>Node0x805622a00</title>
<ellipse fill="none" stroke="#000000" cx="2199.7059" cy="-256" rx="66.9696" ry="18"/>
<text text-anchor="middle" x="2199.7059" y="-251.8" font-family="Times,serif" font-size="14.00" fill="#000000">{ether_ntohost}</text>
</g>
<!-- Node0x805622a00&#45;&gt;Node0x807346060 -->
<g id="edge30" class="edge">
<title>Node0x805622a00&#45;&gt;Node0x807346060</title>
<path fill="none" stroke="#000000" stroke-opacity="0.200000" d="M2151.9365,-243.2305C2142.9438,-241.1988 2133.5783,-239.3314 2124.7059,-238 1982.2881,-216.6292 1569.2175,-197.0257 1369.8788,-188.4954"/>
<polygon fill="#000000" fill-opacity="0.200000" stroke="#000000" stroke-opacity="0.200000" points="1369.8175,-184.9897 1359.6775,-188.0605 1369.5193,-191.9833 1369.8175,-184.9897"/>
</g>
<!-- Node0x8056a6680 -->
<g id="node36" class="node">
<title>Node0x8056a6680</title>
<ellipse fill="none" stroke="#000000" cx="909.7059" cy="-472" rx="82.3527" ry="18"/>
<text text-anchor="middle" x="909.7059" y="-467.8" font-family="Times,serif" font-size="14.00" fill="#000000">{authdes_seccreate}</text>
</g>
<!-- Node0x8056a6680&#45;&gt;Node0x8056ae680 -->
<g id="edge32" class="edge">
<title>Node0x8056a6680&#45;&gt;Node0x8056ae680</title>
<path fill="none" stroke="#000000" stroke-opacity="0.200000" d="M991.5866,-469.5686C1124.1692,-464.7816 1393.7911,-451.5176 1619.7059,-418 1627.0378,-416.9122 1634.6945,-415.5346 1642.2493,-414.0275"/>
<polygon fill="#000000" fill-opacity="0.200000" stroke="#000000" stroke-opacity="0.200000" points="1643.0066,-417.445 1652.0864,-411.9853 1641.5836,-410.5911 1643.0066,-417.445"/>
</g>
<!-- Node0x8056a6680&#45;&gt;Node0x8056ae6e0 -->
<g id="edge31" class="edge">
<title>Node0x8056a6680&#45;&gt;Node0x8056ae6e0</title>
<path fill="none" stroke="#000000" stroke-opacity="0.200000" d="M834.3479,-464.662C731.2285,-454.5496 540.3816,-435.5807 377.7059,-418 356.5132,-415.7097 333.723,-413.1516 312.2571,-410.6992"/>
<polygon fill="#000000" fill-opacity="0.200000" stroke="#000000" stroke-opacity="0.200000" points="312.503,-407.2045 302.1695,-409.5435 311.7061,-414.159 312.503,-407.2045"/>
</g>
<!-- Node0x805639b20 -->
<g id="node37" class="node">
<title>Node0x805639b20</title>
<ellipse fill="none" stroke="#000000" cx="1565.7059" cy="-400" rx="45.2362" ry="18"/>
<text text-anchor="middle" x="1565.7059" y="-395.8" font-family="Times,serif" font-size="14.00" fill="#000000">{ruserok}</text>
</g>
<!-- Node0x805639b20&#45;&gt;Node0x805639b80 -->
<g id="edge33" class="edge">
<title>Node0x805639b20&#45;&gt;Node0x805639b80</title>
<path fill="none" stroke="#000000" stroke-opacity="0.200000" d="M1564.6966,-381.8314C1564.2688,-374.131 1563.7601,-364.9743 1563.2846,-356.4166"/>
<polygon fill="#000000" fill-opacity="0.200000" stroke="#000000" stroke-opacity="0.200000" points="1566.7783,-356.2037 1562.7289,-346.4133 1559.7891,-356.592 1566.7783,-356.2037"/>
</g>
<!-- Node0x805622be0 -->
<g id="node38" class="node">
<title>Node0x805622be0</title>
<ellipse fill="none" stroke="#000000" cx="563.7059" cy="-256" rx="68.9161" ry="18"/>
<text text-anchor="middle" x="563.7059" y="-251.8" font-family="Times,serif" font-size="14.00" fill="#000000">{eui64_ntohost}</text>
</g>
<!-- Node0x805622be0&#45;&gt;Node0x807346060 -->
<g id="edge34" class="edge">
<title>Node0x805622be0&#45;&gt;Node0x807346060</title>
<path fill="none" stroke="#000000" stroke-opacity="0.200000" d="M613.4358,-243.4338C622.7834,-241.3824 632.5091,-239.4557 641.7059,-238 818.3767,-210.0365 1025.9207,-195.6282 1149.9221,-188.9565"/>
<polygon fill="#000000" fill-opacity="0.200000" stroke="#000000" stroke-opacity="0.200000" points="1150.3791,-192.4373 1160.1795,-188.4121 1150.008,-185.4471 1150.3791,-192.4373"/>
</g>
<!-- Node0x80569a580 -->
<g id="node39" class="node">
<title>Node0x80569a580</title>
<ellipse fill="none" stroke="#000000" cx="1463.7059" cy="-112" rx="55.3679" ry="18"/>
<text text-anchor="middle" x="1463.7059" y="-107.8" font-family="Times,serif" font-size="14.00" fill="#000000">{nis_rpcent}</text>
</g>
<!-- Node0x80569a580&#45;&gt;Node0x803d2dfc0 -->
<g id="edge35" class="edge">
<title>Node0x80569a580&#45;&gt;Node0x803d2dfc0</title>
<path fill="none" stroke="#000000" stroke-opacity="0.200000" d="M1440.3051,-95.4817C1426.7351,-85.9029 1409.4346,-73.6908 1394.5212,-63.1637"/>
<polygon fill="#000000" fill-opacity="0.200000" stroke="#000000" stroke-opacity="0.200000" points="1396.2506,-60.1004 1386.0625,-57.1929 1392.2138,-65.8192 1396.2506,-60.1004"/>
</g>
<!-- Node0x8056afa00 -->
<g id="node40" class="node">
<title>Node0x8056afa00</title>
<ellipse fill="none" stroke="#000000" cx="466.7059" cy="-400" rx="80.4491" ry="18"/>
<text text-anchor="middle" x="466.7059" y="-395.8" font-family="Times,serif" font-size="14.00" fill="#000000">{authdes_getucred}</text>
</g>
<!-- Node0x8056afa60 -->
<g id="node41" class="node">
<title>Node0x8056afa60</title>
<ellipse fill="none" stroke="#000000" cx="466.7059" cy="-328" rx="67.9125" ry="18"/>
<text text-anchor="middle" x="466.7059" y="-323.8" font-family="Times,serif" font-size="14.00" fill="#000000">{netname2user}</text>
</g>
<!-- Node0x8056afa00&#45;&gt;Node0x8056afa60 -->
<g id="edge37" class="edge">
<title>Node0x8056afa00&#45;&gt;Node0x8056afa60</title>
<path fill="none" stroke="#000000" stroke-opacity="0.200000" d="M466.7059,-381.8314C466.7059,-374.131 466.7059,-364.9743 466.7059,-356.4166"/>
<polygon fill="#000000" fill-opacity="0.200000" stroke="#000000" stroke-opacity="0.200000" points="470.206,-356.4132 466.7059,-346.4133 463.206,-356.4133 470.206,-356.4132"/>
</g>
<!-- Node0x8056afa60&#45;&gt;Node0x8056afb80 -->
<g id="edge45" class="edge">
<title>Node0x8056afa60&#45;&gt;Node0x8056afb80</title>
<path fill="none" stroke="#000000" stroke-opacity="0.200000" d="M467.5986,-309.6467C467.5798,-289.7885 464.5581,-258.2559 447.7059,-238 433.9881,-221.5116 414.4183,-209.9907 394.5741,-201.9662"/>
<polygon fill="#000000" fill-opacity="0.200000" stroke="#000000" stroke-opacity="0.200000" points="395.7392,-198.665 385.1474,-198.4108 393.2689,-205.2146 395.7392,-198.665"/>
</g>
<!-- Node0x8056afa60&#45;&gt;Node0x8056afbe0 -->
<g id="edge46" class="edge">
<title>Node0x8056afa60&#45;&gt;Node0x8056afbe0</title>
<path fill="none" stroke="#000000" stroke-opacity="0.200000" d="M448.5505,-310.5708C438.9222,-301.3276 426.951,-289.8352 416.4811,-279.7842"/>
<polygon fill="#000000" fill-opacity="0.200000" stroke="#000000" stroke-opacity="0.200000" points="418.8155,-277.1734 409.1777,-272.7729 413.9678,-282.2231 418.8155,-277.1734"/>
</g>
<!-- Node0x805632aa0 -->
<g id="node42" class="node">
<title>Node0x805632aa0</title>
<ellipse fill="none" stroke="#000000" cx="1595.7059" cy="-112" rx="58.7511" ry="18"/>
<text text-anchor="middle" x="1595.7059" y="-107.8" font-family="Times,serif" font-size="14.00" fill="#000000">{nis_servent}</text>
</g>
<!-- Node0x805632aa0&#45;&gt;Node0x803d2dfc0 -->
<g id="edge38" class="edge">
<title>Node0x805632aa0&#45;&gt;Node0x803d2dfc0</title>
<path fill="none" stroke="#000000" stroke-opacity="0.200000" d="M1554.1411,-99.2108C1516.2065,-87.5386 1459.8284,-70.1915 1417.8897,-57.2873"/>
<polygon fill="#000000" fill-opacity="0.200000" stroke="#000000" stroke-opacity="0.200000" points="1418.6856,-53.8703 1408.0985,-54.2746 1416.627,-60.5608 1418.6856,-53.8703"/>
</g>
<!-- Node0x805625ea0 -->
<g id="node43" class="node">
<title>Node0x805625ea0</title>
<ellipse fill="none" stroke="#000000" cx="2361.7059" cy="-256" rx="77.092" ry="18"/>
<text text-anchor="middle" x="2361.7059" y="-251.8" font-family="Times,serif" font-size="14.00" fill="#000000">{_yp_getaddrinfo}</text>
</g>
<!-- Node0x805625f00 -->
<g id="node44" class="node">
<title>Node0x805625f00</title>
<ellipse fill="none" stroke="#000000" cx="1937.7059" cy="-184" rx="56.8043" ry="18"/>
<text text-anchor="middle" x="1937.7059" y="-179.8" font-family="Times,serif" font-size="14.00" fill="#000000">{_yp_check}</text>
</g>
<!-- Node0x805625ea0&#45;&gt;Node0x805625f00 -->
<g id="edge39" class="edge">
<title>Node0x805625ea0&#45;&gt;Node0x805625f00</title>
<path fill="none" stroke="#000000" stroke-opacity="0.200000" d="M2304.8821,-243.7057C2295.1642,-241.7181 2285.1566,-239.7429 2275.7059,-238 2179.6816,-220.2909 2067.6761,-203.0683 1999.7645,-193.0035"/>
<polygon fill="#000000" fill-opacity="0.200000" stroke="#000000" stroke-opacity="0.200000" points="2000.0668,-189.5102 1989.6626,-191.511 1999.0436,-196.4351 2000.0668,-189.5102"/>
</g>
<!-- Node0x805625f00&#45;&gt;Node0x8056c13c0 -->
<g id="edge43" class="edge">
<title>Node0x805625f00&#45;&gt;Node0x8056c13c0</title>
<path fill="none" stroke="#000000" stroke-opacity="0.200000" d="M1882.6628,-178.9851C1785.2129,-169.9929 1575.9735,-150.1737 1399.7059,-130 1388.1983,-128.683 1376.1676,-127.2387 1364.1993,-125.759"/>
<polygon fill="#000000" fill-opacity="0.200000" stroke="#000000" stroke-opacity="0.200000" points="1364.5294,-122.2731 1354.1734,-124.5098 1363.6638,-129.2194 1364.5294,-122.2731"/>
</g>
<!-- Node0x803d2fe20 -->
<g id="node45" class="node">
<title>Node0x803d2fe20</title>
<ellipse fill="none" stroke="#000000" cx="1954.7059" cy="-400" rx="76.6161" ry="18"/>
<text text-anchor="middle" x="1954.7059" y="-395.8" font-family="Times,serif" font-size="14.00" fill="#000000">{files_setnetgrent}</text>
</g>
<!-- Node0x803d2fe20&#45;&gt;Node0x803d2fe80 -->
<g id="edge40" class="edge">
<title>Node0x803d2fe20&#45;&gt;Node0x803d2fe80</title>
<path fill="none" stroke="#000000" stroke-opacity="0.200000" d="M1976.7345,-382.5708C1988.5574,-373.2164 2003.2919,-361.5584 2016.1031,-351.422"/>
<polygon fill="#000000" fill-opacity="0.200000" stroke="#000000" stroke-opacity="0.200000" points="2018.5237,-353.9699 2024.1942,-345.0202 2014.1803,-348.4803 2018.5237,-353.9699"/>
</g>
<!-- Node0x8056270a0 -->
<g id="node46" class="node">
<title>Node0x8056270a0</title>
<ellipse fill="none" stroke="#000000" cx="1021.7059" cy="-400" rx="87.7259" ry="18"/>
<text text-anchor="middle" x="1021.7059" y="-395.8" font-family="Times,serif" font-size="14.00" fill="#000000">{_nis_gethostbyaddr}</text>
</g>
<!-- Node0x8056270a0&#45;&gt;Node0x805627100 -->
<g id="edge41" class="edge">
<title>Node0x8056270a0&#45;&gt;Node0x805627100</title>
<path fill="none" stroke="#000000" stroke-opacity="0.200000" d="M1021.7059,-381.8314C1021.7059,-374.131 1021.7059,-364.9743 1021.7059,-356.4166"/>
<polygon fill="#000000" fill-opacity="0.200000" stroke="#000000" stroke-opacity="0.200000" points="1025.206,-356.4132 1021.7059,-346.4133 1018.206,-356.4133 1025.206,-356.4132"/>
</g>
<!-- Node0x803d2ed40 -->
<g id="node47" class="node">
<title>Node0x803d2ed40</title>
<ellipse fill="none" stroke="#000000" cx="1726.7059" cy="-112" rx="53.9401" ry="18"/>
<text text-anchor="middle" x="1726.7059" y="-107.8" font-family="Times,serif" font-size="14.00" fill="#000000">{nis_group}</text>
</g>
<!-- Node0x803d2ed40&#45;&gt;Node0x803d2dfc0 -->
<g id="edge42" class="edge">
<title>Node0x803d2ed40&#45;&gt;Node0x803d2dfc0</title>
<path fill="none" stroke="#000000" stroke-opacity="0.200000" d="M1686.5339,-99.8657C1678.9844,-97.7724 1671.1307,-95.7198 1663.7059,-94 1586.5373,-76.1252 1497.1069,-60.7942 1435.7053,-51.0841"/>
<polygon fill="#000000" fill-opacity="0.200000" stroke="#000000" stroke-opacity="0.200000" points="1436.1402,-47.6095 1425.7181,-49.5152 1435.0538,-54.5247 1436.1402,-47.6095"/>
</g>
<!-- Node0x807346240 -->
<g id="node48" class="node">
<title>Node0x807346240</title>
<ellipse fill="none" stroke="#000000" cx="724.7059" cy="-256" rx="74.1936" ry="18"/>
<text text-anchor="middle" x="724.7059" y="-251.8" font-family="Times,serif" font-size="14.00" fill="#000000">{compat_innetgr}</text>
</g>
<!-- Node0x807346240&#45;&gt;Node0x807346060 -->
<g id="edge50" class="edge">
<title>Node0x807346240&#45;&gt;Node0x807346060</title>
<path fill="none" stroke="#000000" stroke-opacity="0.200000" d="M778.5861,-243.5403C788.251,-241.5268 798.254,-239.5859 807.7059,-238 927.5297,-217.8958 1066.4469,-202.4635 1158.3115,-193.3422"/>
<polygon fill="#000000" fill-opacity="0.200000" stroke="#000000" stroke-opacity="0.200000" points="1158.8328,-196.8079 1168.441,-192.3431 1158.1457,-189.8417 1158.8328,-196.8079"/>
</g>
<!-- Node0x8056a6620 -->
<g id="node49" class="node">
<title>Node0x8056a6620</title>
<ellipse fill="none" stroke="#000000" cx="909.7059" cy="-544" rx="71.2693" ry="18"/>
<text text-anchor="middle" x="909.7059" y="-539.8" font-family="Times,serif" font-size="14.00" fill="#000000">{authdes_create}</text>
</g>
<!-- Node0x8056a6620&#45;&gt;Node0x8056a6680 -->
<g id="edge51" class="edge">
<title>Node0x8056a6620&#45;&gt;Node0x8056a6680</title>
<path fill="none" stroke="#000000" stroke-opacity="0.200000" d="M909.7059,-525.8314C909.7059,-518.131 909.7059,-508.9743 909.7059,-500.4166"/>
<polygon fill="#000000" fill-opacity="0.200000" stroke="#000000" stroke-opacity="0.200000" points="913.206,-500.4132 909.7059,-490.4133 906.206,-500.4133 913.206,-500.4132"/>
</g>
<!-- Node0x805622ac0 -->
<g id="node50" class="node">
<title>Node0x805622ac0</title>
<ellipse fill="none" stroke="#000000" cx="883.7059" cy="-256" rx="66.9696" ry="18"/>
<text text-anchor="middle" x="883.7059" y="-251.8" font-family="Times,serif" font-size="14.00" fill="#000000">{ether_hostton}</text>
</g>
<!-- Node0x805622ac0&#45;&gt;Node0x807346060 -->
<g id="edge52" class="edge">
<title>Node0x805622ac0&#45;&gt;Node0x807346060</title>
<path fill="none" stroke="#000000" stroke-opacity="0.200000" d="M933.4943,-243.7982C942.2123,-241.779 951.2102,-239.7693 959.7059,-238 1031.8223,-222.9811 1114.2094,-208.3297 1174.3766,-198.0865"/>
<polygon fill="#000000" fill-opacity="0.200000" stroke="#000000" stroke-opacity="0.200000" points="1175.3159,-201.4773 1184.5895,-196.3538 1174.1449,-194.5759 1175.3159,-201.4773"/>
</g>
</g>
</svg>
