<?xml version="1.0" encoding="UTF-8" standalone="no"?>
<!DOCTYPE svg PUBLIC "-//W3C//DTD SVG 1.1//EN"
 "http://www.w3.org/Graphics/SVG/1.1/DTD/svg11.dtd">
<!-- Generated by graphviz version 2.40.1 (20161225.0304)
 -->
<!-- Title: Call graph Pages: 1 -->
<svg width="976pt" height="354pt"
 viewBox="0.00 0.00 976.34 354.00" xmlns="http://www.w3.org/2000/svg" xmlns:xlink="http://www.w3.org/1999/xlink">
<g id="graph0" class="graph" transform="scale(1 1) rotate(0) translate(4 350)">
<title>Call graph</title>
<polygon fill="#ffffff" stroke="transparent" points="-4,4 -4,-350 972.336,-350 972.336,4 -4,4"/>
<text text-anchor="middle" x="484.168" y="-6.8" font-family="Times,serif" font-size="14.00" fill="#000000">Call graph</text>
<!-- Node0x803d2d300 -->
<g id="node1" class="node">
<title>Node0x803d2d300</title>
<ellipse fill="none" stroke="#000000" cx="781.5001" cy="-184" rx="50.0812" ry="18"/>
<text text-anchor="middle" x="781.5001" y="-179.8" font-family="Times,serif" font-size="14.00" fill="#000000">{fts_build}</text>
</g>
<!-- Node0x803d2d420 -->
<g id="node2" class="node">
<title>Node0x803d2d420</title>
<ellipse fill="none" stroke="#000000" cx="738.5001" cy="-112" rx="59.7375" ry="18"/>
<text text-anchor="middle" x="738.5001" y="-107.8" font-family="Times,serif" font-size="14.00" fill="#000000">{fts_ufslinks}</text>
</g>
<!-- Node0x803d2d300&#45;&gt;Node0x803d2d420 -->
<g id="edge1" class="edge">
<title>Node0x803d2d300&#45;&gt;Node0x803d2d420</title>
<path fill="none" stroke="#000000" stroke-opacity="0.200000" d="M770.8709,-166.2022C765.9093,-157.8944 759.8995,-147.8316 754.4117,-138.6427"/>
<polygon fill="#000000" fill-opacity="0.200000" stroke="#000000" stroke-opacity="0.200000" points="757.2884,-136.6334 749.1561,-129.8425 751.2786,-140.2226 757.2884,-136.6334"/>
</g>
<!-- Node0x8043d7b80 -->
<g id="node5" class="node">
<title>Node0x8043d7b80</title>
<ellipse fill="none" stroke="#000000" cx="528.5001" cy="-40" rx="37.0282" ry="18"/>
<text text-anchor="middle" x="528.5001" y="-35.8" font-family="Times,serif" font-size="14.00" fill="#000000">{statfs}</text>
</g>
<!-- Node0x803d2d420&#45;&gt;Node0x8043d7b80 -->
<g id="edge5" class="edge">
<title>Node0x803d2d420&#45;&gt;Node0x8043d7b80</title>
<path fill="none" stroke="#000000" stroke-opacity="0.200000" d="M699.0007,-98.4574C661.7002,-85.6686 606.0378,-66.5843 568.556,-53.7334"/>
<polygon fill="#000000" fill-opacity="0.200000" stroke="#000000" stroke-opacity="0.200000" points="569.5639,-50.3791 558.9693,-50.4466 567.2936,-57.0007 569.5639,-50.3791"/>
</g>
<!-- Node0x803d2d240 -->
<g id="node3" class="node">
<title>Node0x803d2d240</title>
<ellipse fill="none" stroke="#000000" cx="781.5001" cy="-256" rx="47.1569" ry="18"/>
<text text-anchor="middle" x="781.5001" y="-251.8" font-family="Times,serif" font-size="14.00" fill="#000000">{fts_read}</text>
</g>
<!-- Node0x803d2d240&#45;&gt;Node0x803d2d300 -->
<g id="edge2" class="edge">
<title>Node0x803d2d240&#45;&gt;Node0x803d2d300</title>
<path fill="none" stroke="#000000" stroke-opacity="0.200000" d="M781.5001,-237.8314C781.5001,-230.131 781.5001,-220.9743 781.5001,-212.4166"/>
<polygon fill="#000000" fill-opacity="0.200000" stroke="#000000" stroke-opacity="0.200000" points="785.0002,-212.4132 781.5001,-202.4133 778.0002,-212.4133 785.0002,-212.4132"/>
</g>
<!-- Node0x8043d7ac0 -->
<g id="node4" class="node">
<title>Node0x8043d7ac0</title>
<ellipse fill="none" stroke="#000000" cx="284.5001" cy="-112" rx="45.7467" ry="18"/>
<text text-anchor="middle" x="284.5001" y="-107.8" font-family="Times,serif" font-size="14.00" fill="#000000">{fixfsfile}</text>
</g>
<!-- Node0x8043d7ac0&#45;&gt;Node0x8043d7b80 -->
<g id="edge3" class="edge">
<title>Node0x8043d7ac0&#45;&gt;Node0x8043d7b80</title>
<path fill="none" stroke="#000000" stroke-opacity="0.200000" d="M321.2936,-101.1429C365.6968,-88.0403 440.1775,-66.0624 486.7071,-52.3324"/>
<polygon fill="#000000" fill-opacity="0.200000" stroke="#000000" stroke-opacity="0.200000" points="487.8745,-55.6372 496.475,-49.45 485.8933,-48.9234 487.8745,-55.6372"/>
</g>
<!-- Node0x8043d78e0 -->
<g id="node6" class="node">
<title>Node0x8043d78e0</title>
<ellipse fill="none" stroke="#000000" cx="223.5001" cy="-184" rx="51.5002" ry="18"/>
<text text-anchor="middle" x="223.5001" y="-179.8" font-family="Times,serif" font-size="14.00" fill="#000000">{fstabscan}</text>
</g>
<!-- Node0x8043d78e0&#45;&gt;Node0x8043d7ac0 -->
<g id="edge4" class="edge">
<title>Node0x8043d78e0&#45;&gt;Node0x8043d7ac0</title>
<path fill="none" stroke="#000000" stroke-opacity="0.200000" d="M238.2665,-166.5708C245.7593,-157.7269 254.9965,-146.8239 263.2395,-137.0945"/>
<polygon fill="#000000" fill-opacity="0.200000" stroke="#000000" stroke-opacity="0.200000" points="266.0759,-139.161 269.8697,-129.2687 260.735,-134.6361 266.0759,-139.161"/>
</g>
<!-- Node0x803d2d600 -->
<g id="node7" class="node">
<title>Node0x803d2d600</title>
<ellipse fill="none" stroke="#000000" cx="907.5001" cy="-256" rx="60.6721" ry="18"/>
<text text-anchor="middle" x="907.5001" y="-251.8" font-family="Times,serif" font-size="14.00" fill="#000000">{fts_children}</text>
</g>
<!-- Node0x803d2d600&#45;&gt;Node0x803d2d300 -->
<g id="edge6" class="edge">
<title>Node0x803d2d600&#45;&gt;Node0x803d2d300</title>
<path fill="none" stroke="#000000" stroke-opacity="0.200000" d="M879.2233,-239.8418C860.8506,-229.3431 836.7481,-215.5703 817.0774,-204.3299"/>
<polygon fill="#000000" fill-opacity="0.200000" stroke="#000000" stroke-opacity="0.200000" points="818.8067,-201.287 808.3878,-199.3644 815.3337,-207.3647 818.8067,-201.287"/>
</g>
<!-- Node0x803d2d780 -->
<g id="node8" class="node">
<title>Node0x803d2d780</title>
<ellipse fill="none" stroke="#000000" cx="740.5001" cy="-328" rx="30.2697" ry="18"/>
<text text-anchor="middle" x="740.5001" y="-323.8" font-family="Times,serif" font-size="14.00" fill="#000000">{ftw}</text>
</g>
<!-- Node0x803d2d780&#45;&gt;Node0x803d2d240 -->
<g id="edge7" class="edge">
<title>Node0x803d2d780&#45;&gt;Node0x803d2d240</title>
<path fill="none" stroke="#000000" stroke-opacity="0.200000" d="M750.2165,-310.937C755.0617,-302.4284 761.0304,-291.9468 766.4509,-282.4279"/>
<polygon fill="#000000" fill-opacity="0.200000" stroke="#000000" stroke-opacity="0.200000" points="769.5183,-284.1142 771.4253,-273.6924 763.4354,-280.6503 769.5183,-284.1142"/>
</g>
<!-- Node0x80814c240 -->
<g id="node9" class="node">
<title>Node0x80814c240</title>
<ellipse fill="none" stroke="#000000" cx="439.5001" cy="-256" rx="95.4596" ry="18"/>
<text text-anchor="middle" x="439.5001" y="-251.8" font-family="Times,serif" font-size="14.00" fill="#000000">{__fts_children_44bsd}</text>
</g>
<!-- Node0x80814c060 -->
<g id="node10" class="node">
<title>Node0x80814c060</title>
<ellipse fill="none" stroke="#000000" cx="461.5001" cy="-184" rx="65.5333" ry="18"/>
<text text-anchor="middle" x="461.5001" y="-179.8" font-family="Times,serif" font-size="14.00" fill="#000000">{fts_build.667}</text>
</g>
<!-- Node0x80814c240&#45;&gt;Node0x80814c060 -->
<g id="edge8" class="edge">
<title>Node0x80814c240&#45;&gt;Node0x80814c060</title>
<path fill="none" stroke="#000000" stroke-opacity="0.200000" d="M445.0516,-237.8314C447.4304,-230.0463 450.2639,-220.7729 452.9034,-212.1347"/>
<polygon fill="#000000" fill-opacity="0.200000" stroke="#000000" stroke-opacity="0.200000" points="456.2988,-212.9996 455.8738,-202.4133 449.6044,-210.954 456.2988,-212.9996"/>
</g>
<!-- Node0x80814c120 -->
<g id="node14" class="node">
<title>Node0x80814c120</title>
<ellipse fill="none" stroke="#000000" cx="461.5001" cy="-112" rx="75.1896" ry="18"/>
<text text-anchor="middle" x="461.5001" y="-107.8" font-family="Times,serif" font-size="14.00" fill="#000000">{fts_ufslinks.670}</text>
</g>
<!-- Node0x80814c060&#45;&gt;Node0x80814c120 -->
<g id="edge15" class="edge">
<title>Node0x80814c060&#45;&gt;Node0x80814c120</title>
<path fill="none" stroke="#000000" stroke-opacity="0.200000" d="M461.5001,-165.8314C461.5001,-158.131 461.5001,-148.9743 461.5001,-140.4166"/>
<polygon fill="#000000" fill-opacity="0.200000" stroke="#000000" stroke-opacity="0.200000" points="465.0002,-140.4132 461.5001,-130.4133 458.0002,-140.4133 465.0002,-140.4132"/>
</g>
<!-- Node0x8043d7c40 -->
<g id="node11" class="node">
<title>Node0x8043d7c40</title>
<ellipse fill="none" stroke="#000000" cx="51.5001" cy="-256" rx="51.5002" ry="18"/>
<text text-anchor="middle" x="51.5001" y="-251.8" font-family="Times,serif" font-size="14.00" fill="#000000">{getfsspec}</text>
</g>
<!-- Node0x8043d7c40&#45;&gt;Node0x8043d78e0 -->
<g id="edge9" class="edge">
<title>Node0x8043d7c40&#45;&gt;Node0x8043d78e0</title>
<path fill="none" stroke="#000000" stroke-opacity="0.200000" d="M84.6634,-242.1177C112.1464,-230.6132 151.3831,-214.1885 181.138,-201.733"/>
<polygon fill="#000000" fill-opacity="0.200000" stroke="#000000" stroke-opacity="0.200000" points="182.5657,-204.9297 190.4386,-197.8397 179.8627,-198.4726 182.5657,-204.9297"/>
</g>
<!-- Node0x8043d7820 -->
<g id="node12" class="node">
<title>Node0x8043d7820</title>
<ellipse fill="none" stroke="#000000" cx="167.5001" cy="-256" rx="46.681" ry="18"/>
<text text-anchor="middle" x="167.5001" y="-251.8" font-family="Times,serif" font-size="14.00" fill="#000000">{getfsent}</text>
</g>
<!-- Node0x8043d7820&#45;&gt;Node0x8043d78e0 -->
<g id="edge10" class="edge">
<title>Node0x8043d7820&#45;&gt;Node0x8043d78e0</title>
<path fill="none" stroke="#000000" stroke-opacity="0.200000" d="M181.0562,-238.5708C187.8159,-229.8797 196.1223,-219.2001 203.5891,-209.5998"/>
<polygon fill="#000000" fill-opacity="0.200000" stroke="#000000" stroke-opacity="0.200000" points="206.4981,-211.5606 209.8748,-201.5182 200.9726,-207.263 206.4981,-211.5606"/>
</g>
<!-- Node0x8043d7ca0 -->
<g id="node13" class="node">
<title>Node0x8043d7ca0</title>
<ellipse fill="none" stroke="#000000" cx="279.5001" cy="-256" rx="47.1742" ry="18"/>
<text text-anchor="middle" x="279.5001" y="-251.8" font-family="Times,serif" font-size="14.00" fill="#000000">{getfsfile}</text>
</g>
<!-- Node0x8043d7ca0&#45;&gt;Node0x8043d78e0 -->
<g id="edge11" class="edge">
<title>Node0x8043d7ca0&#45;&gt;Node0x8043d78e0</title>
<path fill="none" stroke="#000000" stroke-opacity="0.200000" d="M265.9441,-238.5708C259.1843,-229.8797 250.878,-219.2001 243.4111,-209.5998"/>
<polygon fill="#000000" fill-opacity="0.200000" stroke="#000000" stroke-opacity="0.200000" points="246.0276,-207.263 237.1254,-201.5182 240.5021,-211.5606 246.0276,-207.263"/>
</g>
<!-- Node0x80814c120&#45;&gt;Node0x8043d7b80 -->
<g id="edge12" class="edge">
<title>Node0x80814c120&#45;&gt;Node0x8043d7b80</title>
<path fill="none" stroke="#000000" stroke-opacity="0.200000" d="M478.0619,-94.2022C486.5012,-85.1332 496.8867,-73.9726 506.0359,-64.1407"/>
<polygon fill="#000000" fill-opacity="0.200000" stroke="#000000" stroke-opacity="0.200000" points="508.7974,-66.3109 513.0475,-56.6058 503.6729,-61.5422 508.7974,-66.3109"/>
</g>
<!-- Node0x808144fa0 -->
<g id="node15" class="node">
<title>Node0x808144fa0</title>
<ellipse fill="none" stroke="#000000" cx="634.5001" cy="-256" rx="81.4441" ry="18"/>
<text text-anchor="middle" x="634.5001" y="-251.8" font-family="Times,serif" font-size="14.00" fill="#000000">{__fts_read_44bsd}</text>
</g>
<!-- Node0x808144fa0&#45;&gt;Node0x80814c060 -->
<g id="edge13" class="edge">
<title>Node0x808144fa0&#45;&gt;Node0x80814c060</title>
<path fill="none" stroke="#000000" stroke-opacity="0.200000" d="M596.1058,-240.0209C569.8371,-229.0882 534.8896,-214.5436 507.1875,-203.0144"/>
<polygon fill="#000000" fill-opacity="0.200000" stroke="#000000" stroke-opacity="0.200000" points="508.2944,-199.6841 497.7172,-199.073 505.6047,-206.1468 508.2944,-199.6841"/>
</g>
<!-- Node0x808142d80 -->
<g id="node16" class="node">
<title>Node0x808142d80</title>
<ellipse fill="none" stroke="#000000" cx="596.5001" cy="-112" rx="41.871" ry="18"/>
<text text-anchor="middle" x="596.5001" y="-107.8" font-family="Times,serif" font-size="14.00" fill="#000000">{statvfs}</text>
</g>
<!-- Node0x808142d80&#45;&gt;Node0x8043d7b80 -->
<g id="edge14" class="edge">
<title>Node0x808142d80&#45;&gt;Node0x8043d7b80</title>
<path fill="none" stroke="#000000" stroke-opacity="0.200000" d="M580.7286,-95.3008C571.9745,-86.0317 560.9314,-74.339 551.2569,-64.0954"/>
<polygon fill="#000000" fill-opacity="0.200000" stroke="#000000" stroke-opacity="0.200000" points="553.5969,-61.4756 544.1861,-56.6087 548.5078,-66.282 553.5969,-61.4756"/>
</g>
<!-- Node0x80813dd20 -->
<g id="node17" class="node">
<title>Node0x80813dd20</title>
<ellipse fill="none" stroke="#000000" cx="823.5001" cy="-328" rx="34.6138" ry="18"/>
<text text-anchor="middle" x="823.5001" y="-323.8" font-family="Times,serif" font-size="14.00" fill="#000000">{nftw}</text>
</g>
<!-- Node0x80813dd20&#45;&gt;Node0x803d2d240 -->
<g id="edge16" class="edge">
<title>Node0x80813dd20&#45;&gt;Node0x803d2d240</title>
<path fill="none" stroke="#000000" stroke-opacity="0.200000" d="M813.3331,-310.5708C808.4533,-302.2055 802.4989,-291.998 797.0657,-282.6839"/>
<polygon fill="#000000" fill-opacity="0.200000" stroke="#000000" stroke-opacity="0.200000" points="799.9273,-280.6431 791.8653,-273.7689 793.8808,-284.1702 799.9273,-280.6431"/>
</g>
</g>
</svg>
