<?xml version="1.0" encoding="UTF-8" standalone="no"?>
<!DOCTYPE svg PUBLIC "-//W3C//DTD SVG 1.1//EN"
 "http://www.w3.org/Graphics/SVG/1.1/DTD/svg11.dtd">
<!-- Generated by graphviz version 2.40.1 (20161225.0304)
 -->
<!-- Title: Call graph Pages: 1 -->
<svg width="400pt" height="138pt"
 viewBox="0.00 0.00 400.48 138.00" xmlns="http://www.w3.org/2000/svg" xmlns:xlink="http://www.w3.org/1999/xlink">
<g id="graph0" class="graph" transform="scale(1 1) rotate(0) translate(4 134)">
<title>Call graph</title>
<polygon fill="#ffffff" stroke="transparent" points="-4,4 -4,-134 396.4752,-134 396.4752,4 -4,4"/>
<text text-anchor="middle" x="196.2376" y="-6.8" font-family="Times,serif" font-size="14.00" fill="#000000">Call graph</text>
<!-- Node0x80563f100 -->
<g id="node1" class="node">
<title>Node0x80563f100</title>
<ellipse fill="none" stroke="#000000" cx="101.5944" cy="-112" rx="101.6888" ry="18"/>
<text text-anchor="middle" x="101.5944" y="-107.8" font-family="Times,serif" font-size="14.00" fill="#000000">{acl_delete_def_link_np}</text>
</g>
<!-- Node0x80563f160 -->
<g id="node2" class="node">
<title>Node0x80563f160</title>
<ellipse fill="none" stroke="#000000" cx="203.5944" cy="-40" rx="81.4182" ry="18"/>
<text text-anchor="middle" x="203.5944" y="-35.8" font-family="Times,serif" font-size="14.00" fill="#000000">{__acl_delete_link}</text>
</g>
<!-- Node0x80563f100&#45;&gt;Node0x80563f160 -->
<g id="edge1" class="edge">
<title>Node0x80563f100&#45;&gt;Node0x80563f160</title>
<path fill="none" stroke="#000000" stroke-opacity="0.200000" d="M126.5464,-94.3868C139.9566,-84.9208 156.6513,-73.1363 171.0685,-62.9594"/>
<polygon fill="#000000" fill-opacity="0.200000" stroke="#000000" stroke-opacity="0.200000" points="173.1007,-65.8092 179.252,-57.1829 169.0638,-60.0904 173.1007,-65.8092"/>
</g>
<!-- Node0x80563f280 -->
<g id="node3" class="node">
<title>Node0x80563f280</title>
<ellipse fill="none" stroke="#000000" cx="306.5944" cy="-112" rx="85.7618" ry="18"/>
<text text-anchor="middle" x="306.5944" y="-107.8" font-family="Times,serif" font-size="14.00" fill="#000000">{acl_delete_link_np}</text>
</g>
<!-- Node0x80563f280&#45;&gt;Node0x80563f160 -->
<g id="edge2" class="edge">
<title>Node0x80563f280&#45;&gt;Node0x80563f160</title>
<path fill="none" stroke="#000000" stroke-opacity="0.200000" d="M281.9233,-94.7542C268.3911,-85.2948 251.4301,-73.4386 236.7546,-63.1799"/>
<polygon fill="#000000" fill-opacity="0.200000" stroke="#000000" stroke-opacity="0.200000" points="238.6225,-60.2153 228.4211,-57.3546 234.6119,-65.9526 238.6225,-60.2153"/>
</g>
</g>
</svg>
